<svg xmlns="http://www.w3.org/2000/svg" viewBox="0 0 512 512" style="height: 64px; width: 64px;"><g class="" transform="translate(0,0)" style=""><path d="M372.48 31.215c-77.65 0-116.48 65.73-116.48 65.73s-38.83-65.72-116.48-65.72c-37.14 0-107.77 33.72-107.77 125.13 0 161.24 224.25 324.43 224.25 324.43s224.25-163.19 224.25-324.43c0-91.42-70.63-125.13-107.77-125.14zm-145.492 115.02h60.698v79.415h79.238v60.7h-79.238v79.884h-60.698V286.35h-80.064v-60.7h80.064z" fill="#d0021b" fill-opacity="1"></path></g><g class="" transform="translate(256,255)" style=""><g transform="translate(246.4, 246.4) scale(-0.7, -0.7) rotate(-180, 128, 128)"><circle cx="128" cy="128" r="128" fill="#000" fill-opacity="1"></circle><circle stroke="#fff" stroke-opacity="1" fill="#000" fill-opacity="1" stroke-width="18" cx="128" cy="128" r="101"></circle><path fill="#fff" fill-opacity="1" d="MZ"></path></g></g></svg>