<?xml version="1.0" standalone="no"?>
<!DOCTYPE svg PUBLIC "-//W3C//DTD SVG 20010904//EN"
 "http://www.w3.org/TR/2001/REC-SVG-20010904/DTD/svg10.dtd">
<svg version="1.0" xmlns="http://www.w3.org/2000/svg"
 width="1920.000000pt" height="1920.000000pt" viewBox="0 0 1920.000000 1920.000000"
 preserveAspectRatio="xMidYMid meet">

<g transform="translate(0.000000,1920.000000) scale(0.100000,-0.100000)"
fill="#000000" stroke="none">
<path d="M7545 14199 c-107 -25 -129 -123 -72 -319 30 -103 34 -136 23 -217
-6 -51 -4 -73 13 -123 20 -57 21 -80 21 -463 0 -231 5 -419 10 -442 16 -64 12
-285 -9 -485 -28 -266 -35 -390 -23 -422 15 -36 50 -42 185 -28 97 10 116 15
139 37 52 50 59 161 32 533 -25 348 -12 390 120 412 65 11 245 0 313 -18 12
-3 45 -42 79 -92 31 -48 105 -150 163 -227 111 -148 142 -196 165 -262 20 -56
165 -283 181 -283 7 0 22 -22 34 -50 32 -74 53 -84 164 -77 99 7 165 24 180
48 7 11 -16 55 -91 171 -166 257 -270 452 -336 630 -9 26 -44 81 -76 123 -33
42 -67 94 -77 116 -21 49 -38 45 -38 -9 l0 -42 -42 0 c-45 0 -53 9 -28 30 20
17 8 29 -47 50 -23 8 -43 20 -45 26 -2 5 32 21 74 35 73 22 80 27 110 73 18
27 38 53 45 57 17 11 78 12 78 1 0 -4 -25 -32 -55 -62 -30 -30 -55 -59 -55
-66 0 -6 12 -16 26 -23 23 -10 29 -9 50 14 14 15 34 25 52 25 23 0 44 16 104
78 90 92 122 142 158 242 60 165 72 373 31 573 -13 64 -28 117 -32 117 -5 0
-9 13 -9 28 0 22 -18 46 -87 114 -137 132 -199 160 -403 178 -158 14 -326 12
-513 -4 -135 -12 -172 -12 -255 -1 -110 16 -199 17 -257 4z m218 -95 c30 -5
37 -10 32 -22 -3 -9 6 -28 27 -49 l32 -33 -32 0 c-38 0 -92 21 -129 50 -24 19
-26 19 -39 3 -12 -17 -14 -17 -41 3 -71 53 -12 72 150 48z m597 -13 c5 -11 10
-35 10 -53 0 -32 -2 -34 -53 -46 -29 -6 -58 -12 -64 -12 -11 0 -93 101 -93
114 0 5 57 10 147 14 33 2 45 -2 53 -17z m-230 -42 c31 -60 24 -69 -62 -69
-90 1 -145 13 -171 38 -18 19 -18 21 -2 46 17 25 21 26 116 26 l99 0 20 -41z
m505 11 c0 -18 -5 -25 -20 -25 -31 -1 -43 -12 -50 -48 -11 -47 -21 -56 -58
-47 -54 12 -78 30 -98 73 -35 78 -35 78 104 75 l122 -3 0 -25z m142 -10 c29
-6 64 -21 78 -32 63 -50 162 -232 172 -319 l6 -48 -53 14 c-63 17 -68 20 -41
35 12 6 21 19 21 29 0 15 -18 22 -102 40 -132 28 -139 34 -93 81 19 20 35 40
35 44 0 8 -49 4 -118 -10 l-34 -7 7 69 c9 95 22 127 49 120 12 -3 45 -10 73
-16z m-425 -201 c100 -11 192 -37 263 -77 47 -26 52 -31 82 -112 39 -105 56
-197 56 -315 1 -194 -62 -246 -333 -275 -58 -7 -132 -19 -165 -27 -39 -11
-108 -16 -200 -17 -121 -1 -145 2 -180 19 l-40 20 -6 335 c-3 184 -9 349 -13
365 -11 44 34 84 106 95 62 9 305 3 430 -11z m438 -99 c0 -11 -7 -20 -15 -20
-15 0 -21 21 -8 33 12 13 23 7 23 -13z m-1075 -123 c17 -92 17 -100 0 -142 -9
-25 -20 -45 -24 -45 -13 0 -62 169 -63 218 -1 55 5 70 36 81 28 11 30 5 51
-112z m1268 -8 l22 -12 -23 -10 c-31 -14 -22 -31 18 -35 l33 -3 -6 -97 c-7
-109 -20 -164 -43 -183 -22 -18 -70 -15 -93 5 -19 18 -40 101 -28 113 4 3 20
0 36 -7 17 -7 38 -10 47 -6 13 5 7 16 -30 57 -44 49 -106 158 -106 187 0 12
12 14 75 9 42 -4 86 -12 98 -18z m-63 -447 c0 -18 -32 -50 -55 -54 -41 -8 -29
33 15 51 31 12 40 13 40 3z m-102 -110 c2 -7 -7 -12 -22 -12 -27 0 -35 15 -13
23 17 7 30 3 35 -11z m-1155 -141 c2 -10 1 -25 -4 -32 -6 -10 -9 -4 -9 19 0
36 5 42 13 13z m657 -9 c0 -5 -6 -16 -13 -26 -13 -18 -21 -18 -128 -7 -165 17
-181 25 -64 32 170 9 205 9 205 1z m220 -1 c0 -9 -66 -44 -107 -56 -30 -8 -31
17 -3 45 14 14 33 20 65 20 25 0 45 -4 45 -9z m-625 -31 c-3 -5 -15 -10 -25
-10 -10 0 -22 5 -25 10 -4 6 7 10 25 10 18 0 29 -4 25 -10z m525 -108 c26 -33
25 -42 -4 -42 -26 0 -56 33 -56 61 0 24 35 13 60 -19z m-733 -59 c8 -11 9 -23
2 -42 -11 -27 -47 -71 -60 -71 -13 0 -28 82 -19 105 14 36 51 40 77 8z m793
-63 c0 -5 -9 -10 -20 -10 -11 0 -20 5 -20 10 0 6 9 10 20 10 11 0 20 -4 20
-10z m192 -51 c10 -5 18 -21 18 -35 0 -24 -2 -25 -37 -20 -21 3 -59 8 -84 12
-25 3 -51 9 -58 13 -17 11 -3 39 22 45 30 6 117 -3 139 -15z m-944 -11 c-8
-12 -24 -28 -36 -36 -19 -13 -22 -13 -22 1 0 16 45 57 63 57 5 0 3 -10 -5 -22z
m-37 -170 c-35 -31 -49 -35 -57 -14 -8 21 13 55 49 77 l32 19 3 -27 c3 -21 -4
-35 -27 -55z m963 72 c-6 -6 -27 -13 -47 -17 -30 -4 -37 -3 -37 11 0 12 10 16
47 16 32 0 44 -3 37 -10z m132 -129 c64 -155 101 -232 160 -331 69 -114 116
-214 107 -224 -4 -3 -19 -6 -34 -6 -24 0 -37 12 -83 78 -87 121 -135 220 -143
292 l-6 62 -33 -6 c-28 -6 -34 -3 -40 16 -4 15 -2 25 9 32 13 9 13 11 -6 21
-23 11 -27 46 -12 91 5 17 1 23 -24 34 -40 16 -39 27 2 45 30 13 33 13 54 -12
12 -15 34 -56 49 -92z m-1026 39 c0 -6 -6 -26 -14 -45 -11 -26 -24 -36 -55
-46 -23 -7 -43 -10 -46 -7 -12 12 20 72 49 89 34 21 66 25 66 9z m-43 -158
c-14 -15 -40 -35 -57 -45 l-30 -18 0 33 c0 45 15 58 69 58 l45 0 -27 -28z m37
-58 c20 -52 -5 -300 -34 -336 -15 -19 -22 -20 -51 -12 -28 8 -35 15 -37 40 -3
26 5 39 43 75 87 82 87 118 0 44 -60 -52 -77 -52 -56 -2 8 18 13 55 12 83 -2
46 2 55 32 88 37 38 80 48 91 20z"/>
<path d="M5459 14174 c-42 -13 -83 -31 -90 -40 -15 -19 -15 -194 1 -361 5 -60
10 -201 10 -314 l0 -206 -107 -26 c-190 -47 -276 -53 -474 -34 -161 15 -182
15 -305 0 -118 -15 -146 -16 -280 -3 -82 8 -170 15 -196 15 -26 1 -50 4 -53 7
-3 3 -8 133 -10 289 -2 237 -6 302 -24 393 -24 124 -27 206 -8 225 10 10 7 16
-12 32 -22 18 -37 19 -175 17 l-151 -3 -7 -108 c-4 -61 -3 -151 3 -205 5 -54
14 -356 19 -672 6 -316 13 -760 18 -987 l7 -412 40 -41 c57 -58 145 -100 210
-100 35 0 57 5 65 15 16 19 9 281 -15 555 -8 96 -18 275 -22 396 l-6 221 27
18 c26 17 39 17 329 -4 166 -12 363 -21 438 -21 136 0 136 0 147 25 10 22 15
24 31 15 11 -5 23 -15 26 -20 3 -6 41 -10 83 -10 152 0 257 -30 300 -85 36
-46 42 -115 45 -526 2 -333 4 -399 17 -418 12 -17 41 -29 125 -51 149 -38 229
-52 259 -44 l26 6 0 387 c1 324 3 389 15 405 10 13 15 43 15 84 0 95 -19 350
-31 407 -6 28 -15 106 -20 175 -5 69 -13 157 -17 197 -5 51 -4 83 5 110 15 43
13 69 -28 268 -30 145 -40 337 -19 350 13 8 13 35 -1 35 -5 0 -31 16 -56 35
-25 19 -53 35 -62 35 -9 -1 -50 -12 -92 -26z m-1705 -104 c8 -8 -35 -83 -55
-96 -10 -6 -36 33 -44 68 -6 23 -3 30 16 38 25 10 68 5 83 -10z m1817 -1 c21
-21 22 -28 15 -148 -3 -69 -9 -138 -12 -153 -8 -36 -40 -68 -68 -68 -37 0 -41
29 -9 62 18 19 24 31 17 36 -6 4 -23 30 -38 59 -22 45 -26 65 -26 143 l0 90
50 0 c38 0 55 -5 71 -21z m-1744 -68 c7 -49 -15 -81 -56 -81 -51 0 -58 15 -25
55 16 20 36 47 44 61 18 29 30 18 37 -35z m-67 -141 c0 -29 -72 -122 -84 -109
-9 9 24 85 45 102 24 19 39 22 39 7z m80 -50 c23 -23 27 -77 8 -103 -16 -21
-108 -36 -108 -17 0 18 63 140 72 140 5 0 17 -9 28 -20z m1768 -208 c1 -37 -1
-73 -7 -81 -5 -8 -32 -17 -60 -21 -50 -6 -51 -6 -51 19 1 58 81 184 104 161 6
-6 12 -41 14 -78z m-1783 28 c8 -12 -69 -125 -90 -134 -31 -11 -54 -6 -60 14
-10 33 13 87 48 109 34 22 92 28 102 11z m29 -107 c-20 -81 -18 -78 -65 -81
l-44 -3 26 28 c15 15 34 40 44 56 9 15 24 27 31 27 11 0 13 -7 8 -27z m1701
-118 c-45 -39 -75 -45 -75 -16 0 27 38 51 80 51 l35 -1 -40 -34z m-1725 -47
c0 -17 -39 -79 -59 -95 -67 -54 -69 -55 -79 -36 -5 10 -12 37 -16 60 -9 62 15
83 94 83 41 0 60 -4 60 -12z m1810 -23 c0 -62 -60 -104 -104 -72 -16 12 -14
16 24 60 52 58 80 62 80 12z m-1812 -180 l5 -62 -33 -12 c-46 -15 -90 -14 -96
4 -8 20 28 92 67 134 29 32 32 33 41 16 6 -10 13 -46 16 -80z m801 -29 c10
-12 8 -22 -9 -55 -11 -23 -17 -41 -12 -41 11 0 55 30 70 48 10 13 12 7 12 -36
0 -29 5 -52 10 -52 6 0 10 8 10 18 0 38 40 83 96 109 51 23 60 24 96 13 l41
-12 -39 -40 c-79 -82 -198 -140 -318 -154 -56 -7 -56 -7 -56 21 0 28 -11 29
-63 9 -10 -3 -21 2 -28 14 -12 18 -12 18 -50 -2 -44 -24 -57 -17 -42 24 11 29
11 30 -10 15 -32 -23 -98 -39 -106 -26 -5 7 -28 4 -70 -9 -34 -11 -80 -20
-102 -20 -32 0 -39 3 -39 20 0 49 -77 8 -128 -68 -46 -67 -67 -87 -106 -102
-33 -12 -62 -6 -70 16 -8 22 93 121 183 179 144 93 271 134 326 105 23 -12 35
-10 98 15 12 5 17 2 17 -9 0 -9 7 -16 16 -16 8 0 37 -9 64 -21 l48 -21 41 26
c22 14 47 39 56 56 13 25 19 29 34 21 10 -6 23 -17 30 -25z m861 -8 c-37 -51
-121 -140 -128 -134 -9 9 10 84 29 115 20 33 67 60 107 61 22 0 22 -1 -8 -42z
m-350 -8 c11 0 38 7 60 16 48 20 57 15 41 -24 -16 -39 -63 -83 -130 -122 l-53
-31 4 58 c3 32 12 76 22 98 15 34 19 38 27 23 6 -10 19 -18 29 -18z m495 -67
c-7 -39 -34 -59 -92 -69 -40 -6 -43 -5 -43 17 0 29 30 67 90 114 l45 35 3 -32
c2 -17 1 -47 -3 -65z m-320 47 c7 -22 2 -43 -27 -112 l-20 -48 -59 0 c-45 0
-59 3 -59 14 0 18 130 164 147 165 6 1 15 -8 18 -19z m-328 -76 c-7 -64 -22
-76 -109 -81 l-73 -5 35 37 c39 42 116 95 138 95 11 0 13 -10 9 -46z m-1218
-54 c-34 -38 -64 -70 -65 -70 -2 0 -4 18 -4 39 0 27 7 48 23 66 23 27 100 59
105 44 2 -5 -24 -40 -59 -79z m1911 -77 c0 -47 -14 -69 -51 -82 -53 -18 -129
-12 -129 10 0 14 66 71 111 96 50 28 69 21 69 -24z m-1853 -134 c-24 -39 -24
-43 -10 -77 10 -23 15 -67 14 -120 0 -75 -4 -90 -31 -139 -28 -50 -29 -54 -11
-48 19 6 21 2 21 -41 0 -45 -1 -46 -27 -41 -83 17 -83 16 -83 125 0 54 4 102
10 108 8 8 -8 90 -34 171 -6 18 0 27 33 49 40 26 104 53 129 54 9 0 5 -13 -11
-41z m1722 -8 c27 -17 -92 -191 -130 -191 -5 0 -16 25 -25 55 -14 51 -14 58 0
80 18 27 47 45 91 56 42 10 48 10 64 0z m129 -73 c3 -44 0 -59 -20 -88 -41
-60 -178 -119 -178 -76 0 23 174 236 184 226 5 -5 11 -33 14 -62z m-38 -192
c0 -23 -46 -71 -98 -104 -45 -29 -119 -58 -127 -50 -11 10 17 84 41 109 46 48
184 81 184 45z m17 -108 c-8 -60 -37 -84 -118 -99 -38 -7 -72 -9 -77 -5 -15
16 171 162 190 149 6 -3 8 -23 5 -45z m-1842 -160 c-13 -77 -39 -112 -94 -128
l-31 -9 0 68 c0 86 20 108 98 110 l34 1 -7 -42z m1815 23 c0 -18 -110 -129
-140 -141 -40 -16 -49 -7 -56 57 -7 59 -4 62 76 79 68 15 120 17 120 5z m-2
-186 c-16 -16 -151 -29 -146 -15 2 6 37 39 78 75 l75 65 3 -57 c2 -37 -1 -60
-10 -68z m-1792 -15 c-11 -104 -31 -164 -67 -194 -17 -14 -39 -26 -50 -26 -17
0 -19 8 -19 65 0 54 3 66 20 75 19 10 19 13 5 39 -13 26 -13 30 8 49 18 16 93
60 106 62 2 0 0 -32 -3 -70z m1790 -47 c-9 -29 -84 -100 -117 -112 -38 -13
-67 11 -75 64 l-6 41 99 15 c54 8 100 14 101 13 2 -1 1 -11 -2 -21z m14 -71
c0 -16 -27 -45 -39 -41 -8 3 -7 11 4 27 16 22 35 30 35 14z"/>
<path d="M10302 14139 c-35 -74 -93 -254 -124 -386 -18 -74 -27 -94 -45 -102
-32 -15 -59 -75 -77 -171 -9 -46 -20 -88 -25 -94 -5 -6 -21 -46 -35 -88 -14
-42 -54 -146 -89 -230 -84 -200 -108 -273 -162 -475 -64 -245 -110 -391 -170
-543 -56 -142 -72 -194 -84 -272 l-8 -48 64 -20 c83 -25 180 -35 216 -21 34
13 50 49 71 156 8 44 40 140 71 213 30 74 68 179 84 234 16 55 31 102 34 104
2 3 96 0 208 -7 187 -11 308 -9 494 7 89 7 122 -10 186 -93 51 -66 82 -136
173 -384 34 -91 68 -176 77 -189 15 -23 18 -23 56 -12 58 17 105 15 159 -8 96
-42 200 -35 222 15 12 26 0 62 -82 240 -69 148 -147 336 -166 398 -11 34 -28
120 -40 190 -23 147 -37 185 -85 238 -54 60 -73 108 -102 255 -24 121 -31 143
-71 205 -39 61 -43 73 -34 94 10 21 8 24 -9 27 -21 3 -36 32 -62 120 -8 28 -8
41 0 49 8 8 5 20 -12 44 -12 19 -35 79 -50 135 -18 66 -34 106 -46 113 -11 7
-19 21 -19 33 0 23 -38 115 -93 223 -46 91 -68 101 -250 108 l-145 6 -30 -64z
m207 -59 c24 -11 57 -20 75 -20 26 0 41 -11 88 -65 56 -64 73 -101 80 -174 l3
-34 -137 -46 c-135 -45 -138 -47 -166 -91 -66 -104 -251 -232 -276 -191 -12
19 21 80 48 87 23 5 24 7 10 22 -12 12 -15 27 -10 61 9 62 26 85 106 136 39
25 70 49 70 55 0 5 -18 10 -39 10 l-40 0 13 33 c8 17 19 66 26 107 17 103 32
130 73 130 17 0 52 -9 76 -20z m186 -420 c-92 -93 -111 -98 -143 -41 -12 21
-22 43 -22 48 0 25 134 70 215 72 28 1 27 -2 -50 -79z m159 -73 l40 -97 -35
-36 c-24 -26 -28 -33 -12 -25 58 30 80 6 90 -93 8 -90 -15 -159 -79 -231 -62
-69 -81 -63 -76 24 3 53 5 56 43 78 22 12 45 24 50 26 6 3 7 7 4 11 -4 4 -36
1 -73 -5 -36 -7 -68 -10 -71 -8 -2 3 2 29 10 59 8 30 15 56 15 57 0 2 -16 -5
-35 -14 -26 -12 -38 -14 -46 -6 -17 17 -23 97 -10 122 9 16 9 21 0 21 -18 0
-49 31 -49 49 0 26 152 172 175 169 15 -2 30 -27 59 -101z m-464 -100 c0 -33
-48 -104 -112 -164 -60 -56 -173 -133 -195 -133 -14 0 -18 56 -5 77 10 16 63
37 129 53 28 6 60 21 70 32 18 21 18 21 -17 14 -19 -4 -53 -10 -75 -13 l-40
-6 30 33 c40 42 172 130 196 130 13 0 19 -7 19 -23z m199 -215 c37 -75 71
-150 75 -167 4 -16 25 -70 46 -120 40 -94 70 -187 70 -215 0 -31 -487 -57
-546 -29 -39 19 -41 41 -6 91 78 114 183 362 222 523 12 50 24 96 26 104 6 19
27 -15 113 -187z m-305 -19 c-11 -47 -40 -107 -60 -125 -37 -32 -171 -53 -162
-25 3 6 29 31 59 55 30 23 74 60 99 82 54 47 73 51 64 13z m724 -105 c23 -48
34 -134 22 -177 -13 -48 -57 -97 -95 -107 -23 -6 -32 -2 -47 16 -10 12 -18 28
-18 36 0 8 30 30 68 49 62 33 64 35 27 28 -68 -12 -109 -10 -113 8 -2 13 62
120 101 167 15 19 40 10 55 -20z m-827 -116 c-47 -34 -226 -141 -229 -137 -10
10 33 112 54 133 22 19 35 22 112 21 84 0 86 -1 63 -17z m-23 -109 c-24 -27
-86 -58 -96 -49 -14 14 22 57 65 80 40 20 49 22 51 9 2 -8 -7 -26 -20 -40z
m956 -118 c49 -172 45 -272 -15 -340 -46 -52 -125 -60 -149 -15 -9 17 -3 23
52 51 73 37 128 79 104 79 -9 0 -57 -16 -106 -35 -84 -33 -150 -45 -150 -27 1
11 80 115 143 185 31 35 57 69 57 76 0 7 -21 11 -55 11 -30 0 -55 4 -55 10 0
5 16 28 36 50 34 37 91 65 105 51 4 -3 18 -46 33 -96z m-1034 28 c0 -27 -51
-81 -117 -124 l-78 -51 -3 48 c-5 78 22 110 107 124 63 11 91 11 91 3z m886
-108 c-21 -16 -32 -13 -21 4 3 6 14 11 23 11 15 -1 15 -2 -2 -15z m-946 -70
l0 -45 -47 0 -47 0 44 45 c24 25 45 45 47 45 2 0 3 -20 3 -45z m718 -45 c40
-18 42 -21 30 -39 -42 -60 -130 -91 -256 -91 -81 0 -83 1 -80 23 2 15 19 31
53 49 59 32 65 33 65 12 0 -12 14 -4 45 25 51 47 77 51 143 21z m-480 -12 c20
-20 14 -56 -12 -73 -36 -24 -153 -40 -184 -26 -31 15 -26 21 69 71 78 41 107
48 127 28z m187 -17 c9 -15 -59 -61 -99 -68 -45 -7 -47 8 -7 48 21 21 39 29
65 29 19 0 37 -4 41 -9z m-480 -31 c4 -6 1 -18 -6 -26 -13 -16 -108 -74 -121
-74 -5 0 -8 14 -8 30 0 45 39 80 89 80 22 0 43 -5 46 -10z m858 -10 c-6 -21
-40 -46 -50 -36 -3 3 2 17 11 31 20 31 46 34 39 5z m390 -126 c1 -49 -4 -69
-29 -114 -51 -90 -113 -116 -128 -54 -10 37 9 61 64 85 79 34 81 47 4 35 -111
-16 -109 15 6 94 68 47 81 40 83 -46z m-1269 5 c-35 -37 -75 -59 -105 -59 -22
0 -22 1 5 29 32 33 81 60 110 61 17 0 16 -4 -10 -31z m-60 -130 c-21 -23 -108
-89 -118 -89 -18 0 -2 43 28 74 27 29 41 36 71 36 38 0 38 0 19 -21z m1399
-22 c13 -56 -2 -81 -59 -101 -26 -9 -58 -16 -71 -16 -23 0 -23 1 -9 28 28 55
97 133 114 130 10 -2 20 -19 25 -41z m-10 -203 c-32 -29 -63 -53 -70 -54 -16
0 -53 49 -53 71 0 23 49 50 120 64 52 11 55 11 58 -8 3 -14 -14 -36 -55 -73z
m147 -128 c7 -21 9 -49 6 -62 -6 -22 -11 -24 -70 -24 -47 0 -70 5 -87 19 l-23
18 39 47 c37 45 37 46 11 36 -15 -5 -36 -10 -46 -10 -32 0 -6 40 53 82 l52 36
27 -51 c15 -29 32 -69 38 -91z m-1640 108 c0 -13 -26 -53 -68 -101 -30 -36
-39 -53 -29 -53 13 0 14 -5 6 -29 -21 -60 -64 -45 -63 21 2 85 61 168 120 168
19 0 34 -3 34 -6z"/>
<path d="M14327 14154 c-30 -60 -108 -300 -133 -410 -15 -68 -22 -83 -46 -97
-33 -19 -53 -63 -74 -167 -8 -44 -24 -96 -35 -117 -10 -20 -19 -43 -19 -51 0
-7 -40 -111 -89 -230 -94 -229 -124 -317 -166 -484 -52 -206 -108 -386 -165
-533 -58 -150 -83 -228 -94 -297 l-7 -36 63 -21 c78 -25 156 -36 203 -27 31 6
40 14 56 50 10 24 25 77 33 118 8 41 37 128 64 194 28 65 66 171 85 234 l35
115 144 -5 c165 -6 409 -5 554 1 97 4 102 3 136 -23 75 -57 121 -147 234 -456
36 -98 71 -183 78 -190 10 -10 22 -11 59 -1 57 14 104 9 182 -21 92 -34 175
-19 195 34 7 20 -5 52 -129 329 -120 269 -138 326 -165 510 -19 130 -30 156
-88 225 -52 61 -79 133 -103 282 -16 92 -21 105 -89 212 -15 24 -17 34 -8 54
11 22 9 24 -12 24 -18 0 -25 7 -29 28 -3 15 -13 48 -23 74 -15 37 -16 52 -8
66 9 14 8 23 -7 41 -11 13 -30 62 -44 110 -30 101 -51 151 -64 151 -5 0 -11
12 -14 28 -9 48 -95 243 -119 269 -43 46 -72 54 -223 60 l-143 6 -25 -49z
m198 -74 c26 -11 59 -20 74 -20 19 0 41 -15 78 -52 60 -61 92 -126 93 -183 l0
-41 -135 -44 c-133 -44 -134 -44 -165 -91 -41 -64 -125 -138 -192 -171 -77
-38 -92 -37 -84 5 6 33 38 67 63 67 12 0 11 3 -2 17 -14 13 -16 28 -11 67 4
43 12 57 44 86 22 19 58 46 80 59 58 34 61 51 12 51 -40 0 -48 7 -31 26 5 5
18 55 29 112 12 57 26 110 33 118 16 20 59 18 114 -6z m190 -420 c-93 -94
-114 -100 -145 -40 -11 21 -20 43 -20 49 0 24 128 66 215 70 28 1 26 -2 -50
-79z m159 -73 l39 -98 -39 -41 c-25 -26 -30 -35 -14 -25 34 24 67 21 82 -5 6
-13 12 -60 12 -108 0 -99 -15 -137 -88 -216 -53 -57 -66 -51 -66 32 0 54 14
75 57 88 11 4 27 13 33 21 16 19 6 19 -72 3 -31 -7 -60 -9 -63 -6 -3 3 -1 27
6 52 6 26 9 49 7 52 -3 3 -18 -1 -33 -8 -24 -11 -29 -10 -41 7 -16 22 -18 88
-4 116 8 14 7 19 -3 19 -7 0 -24 11 -37 25 l-23 24 84 86 c58 60 89 85 103 83
15 -2 30 -27 60 -101z m-464 -94 c0 -60 -104 -178 -231 -261 -86 -57 -101 -53
-84 24 5 24 46 43 132 63 28 7 60 22 70 33 18 21 18 21 -19 15 -21 -4 -55 -10
-75 -13 l-38 -7 30 33 c38 42 172 130 196 130 11 0 19 -7 19 -17z m183 -192
c48 -92 87 -174 87 -181 0 -6 25 -74 55 -149 30 -75 57 -155 60 -177 l7 -40
-159 -13 c-300 -24 -412 -15 -421 31 -2 9 14 42 34 74 88 137 198 409 226 559
7 36 15 65 18 65 3 0 45 -76 93 -169z m-289 -48 c-12 -57 -49 -118 -82 -136
-17 -11 -60 -21 -93 -24 -58 -6 -60 -5 -49 13 6 10 45 44 86 74 41 30 84 65
96 77 30 32 50 30 42 -4z m720 -102 c22 -41 33 -129 23 -178 -9 -49 -52 -99
-92 -109 -23 -6 -32 -2 -47 16 -10 12 -18 28 -18 36 0 8 30 30 68 49 56 30 61
35 32 30 -101 -18 -108 -18 -119 3 -8 15 -7 23 2 31 8 6 33 42 58 81 48 77 70
87 93 41z m-829 -120 c-33 -32 -220 -140 -224 -130 -6 17 41 129 58 139 9 5
54 10 101 10 83 0 84 0 65 -19z m-9 -96 c-18 -27 -49 -49 -83 -60 -19 -5 -23
-2 -23 14 0 21 48 64 90 79 31 12 37 -1 16 -33z m947 -135 c36 -134 42 -198
23 -264 -23 -80 -88 -128 -151 -112 -13 3 -29 15 -35 26 -9 17 -2 23 59 55 68
36 116 75 92 75 -6 0 -52 -16 -101 -35 -87 -34 -150 -45 -150 -26 0 13 62 93
137 177 34 39 63 76 63 83 0 7 -21 11 -55 11 -30 0 -55 4 -55 10 0 5 16 28 36
50 34 37 91 65 105 51 4 -3 18 -49 32 -101z m-1033 34 c0 -25 -53 -81 -117
-124 -85 -57 -98 -54 -87 15 9 55 30 83 73 95 63 17 131 24 131 14z m886 -109
c-21 -16 -32 -13 -21 4 3 6 14 11 23 11 15 -1 15 -2 -2 -15z m-946 -75 l0 -40
-47 0 -47 0 39 40 c21 22 43 40 47 40 4 0 8 -18 8 -40z m718 -40 c37 -17 41
-22 31 -38 -17 -28 -72 -62 -125 -78 -45 -13 -224 -20 -224 -8 0 20 28 48 70
69 40 20 50 22 50 10 0 -23 9 -19 56 25 50 46 77 50 142 20z m-478 -20 c26
-49 -16 -82 -122 -94 -59 -8 -109 7 -91 25 20 20 159 88 180 89 12 0 27 -9 33
-20z m185 -9 c3 -5 -9 -21 -27 -34 -35 -27 -108 -51 -108 -37 0 21 24 59 44
68 27 13 83 15 91 3z m-480 -31 c4 -6 1 -17 -5 -25 -12 -15 -112 -75 -124 -75
-15 0 -4 60 15 84 16 21 29 26 64 26 24 0 47 -5 50 -10z m855 -4 c0 -16 -26
-46 -41 -46 -14 0 -11 22 8 42 19 22 33 23 33 4z m390 -133 c0 -44 -6 -76 -20
-102 -22 -45 -76 -101 -95 -101 -21 0 -45 29 -45 54 0 28 21 47 85 77 38 17
45 23 29 26 -11 2 -39 0 -62 -5 -32 -8 -44 -7 -53 4 -17 20 -10 30 65 84 85
60 96 56 96 -37z m-1252 25 c-8 -23 -73 -68 -108 -74 l-35 -7 30 33 c41 45
123 80 113 48z m-67 -142 c-16 -19 -116 -96 -124 -96 -19 0 -3 46 27 76 26 26
42 34 71 34 31 0 35 -2 26 -14z m1382 -3 c16 -59 16 -72 -2 -95 -19 -24 -79
-48 -120 -48 -26 0 -26 4 1 43 73 107 111 138 121 100z m0 -227 c-32 -31 -65
-55 -74 -56 -20 0 -49 41 -49 68 0 27 41 51 113 66 58 12 62 12 65 -5 2 -12
-17 -38 -55 -73z m117 -58 c37 -78 46 -123 30 -143 -25 -30 -170 -13 -170 20
0 6 16 30 36 53 34 41 35 42 9 32 -14 -5 -35 -10 -45 -10 -17 0 -18 3 -8 25
11 24 90 85 110 85 5 0 22 -28 38 -62z m-1610 34 c0 -9 -34 -56 -86 -119 -15
-18 -21 -33 -15 -33 19 0 12 -36 -10 -56 -20 -18 -21 -18 -36 1 -29 39 14 175
65 204 21 13 82 14 82 3z"/>
<path d="M6418 14180 c-121 -15 -112 -1 -105 -164 4 -77 14 -202 22 -276 22
-196 40 -1257 27 -1610 -4 -127 9 -424 20 -437 13 -17 204 -18 214 -2 4 7 18
0 38 -19 37 -37 84 -51 97 -31 5 8 9 389 8 909 -1 885 -1 897 -25 1085 -13
105 -27 240 -31 302 -6 104 -5 113 16 138 11 15 21 41 21 57 0 24 -6 32 -35
44 -37 15 -152 17 -267 4z m145 -148 c30 -31 35 -110 8 -144 -23 -28 -82 -53
-106 -44 -12 4 -11 12 5 48 26 58 26 72 -1 58 -27 -15 -31 -10 -37 49 -4 42
-2 50 14 54 35 10 97 -1 117 -21z m-3 -228 c0 -29 -41 -84 -67 -90 -19 -5 -30
-2 -39 11 -17 23 -3 50 39 75 39 24 67 26 67 4z m20 -104 l0 -40 -45 0 c-25 0
-45 4 -45 9 0 10 70 70 83 71 4 0 7 -18 7 -40z m25 -100 c12 -20 -25 -119 -59
-154 -45 -48 -72 -47 -85 2 -15 50 -14 135 1 150 15 15 134 16 143 2z m25
-169 c16 -31 12 -69 -10 -91 -15 -15 -33 -20 -75 -20 -54 0 -55 1 -44 21 13
24 99 109 110 109 5 0 13 -9 19 -19z m-2 -184 c6 -31 -6 -61 -43 -110 -33 -44
-120 -106 -131 -94 -3 3 1 47 8 98 13 92 14 94 48 112 46 23 113 19 118 -6z
m6 -169 c3 -13 6 -45 6 -72 l0 -49 -61 7 c-97 11 -98 12 -33 77 32 33 64 59
70 59 6 0 14 -10 18 -22z m-14 -176 c0 -30 -55 -97 -90 -112 -30 -12 -34 -12
-47 6 -14 18 -12 91 3 115 3 5 34 9 70 9 56 0 64 -2 64 -18z m10 -146 l0 -63
-57 -12 c-48 -9 -60 -9 -72 4 -13 13 -8 22 46 75 33 33 65 60 71 60 8 0 12
-22 12 -64z m0 -119 c0 -17 -112 -127 -129 -127 -19 0 -9 87 13 108 8 8 35 19
58 23 24 3 46 7 51 8 4 0 7 -5 7 -12z m8 -89 c18 -18 14 -83 -6 -108 -13 -17
-32 -24 -72 -28 l-53 -5 7 28 c10 38 51 96 78 112 29 16 31 16 46 1z m1 -210
c-6 -13 -29 -44 -51 -70 -43 -52 -42 -59 4 -27 27 20 31 20 46 6 17 -18 20
-133 4 -176 -5 -14 -4 -41 3 -68 12 -47 3 -169 -14 -186 -16 -16 -139 -3 -158
16 -21 21 -32 159 -22 277 4 41 10 114 14 163 l8 87 89 0 89 0 -12 -22z"/>
<path d="M6530 12100 c-13 -9 -13 -10 0 -9 8 0 24 4 35 9 l20 9 -20 0 c-11 0
-27 -4 -35 -9z"/>
<path d="M11640 14153 c-80 -13 -187 -36 -207 -46 -31 -14 -29 -33 12 -97 46
-73 46 -104 0 -131 -19 -12 -35 -25 -35 -30 0 -5 28 -9 62 -9 l63 0 76 -79
c53 -55 90 -104 120 -161 31 -61 50 -86 71 -95 20 -8 37 -28 52 -61 41 -87
163 -259 251 -353 48 -51 93 -108 101 -126 22 -54 18 -145 -11 -221 -23 -60
-24 -68 -10 -94 8 -16 19 -32 25 -35 6 -4 10 -146 10 -400 0 -237 4 -404 10
-420 13 -33 61 -54 143 -61 34 -3 87 -10 118 -16 41 -7 62 -7 78 1 20 11 21
19 21 135 0 79 5 140 15 172 12 40 15 132 15 485 l1 437 29 58 c15 33 62 102
104 154 42 52 99 136 126 187 47 87 204 342 344 558 58 89 71 103 128 135 51
29 64 41 66 64 6 52 -6 56 -174 56 -87 0 -154 -4 -154 -9 0 -24 16 -44 56 -72
43 -29 44 -31 30 -58 -16 -30 -53 -51 -92 -51 -18 0 -31 10 -45 35 -12 19 -25
35 -30 35 -16 0 -88 -106 -229 -340 -189 -312 -233 -380 -269 -414 -26 -25
-36 -28 -70 -23 -107 14 -227 156 -564 671 -150 229 -154 233 -237 219z m35
-127 c26 -7 45 -21 55 -39 14 -26 14 -29 -4 -43 -21 -15 -126 -20 -126 -6 0 4
6 14 13 21 10 11 8 11 -10 2 -53 -27 -103 -6 -103 44 0 33 97 45 175 21z m94
-148 c-15 -31 -50 -68 -63 -68 -12 0 -56 40 -56 51 0 16 55 38 93 39 36 0 37
-1 26 -22z m1208 -159 c-40 -63 -101 -162 -136 -220 -34 -58 -73 -118 -86
-135 l-24 -29 -1 29 c0 19 28 72 85 162 47 73 95 161 108 195 25 69 56 106 95
111 15 2 28 3 30 2 2 -1 -30 -53 -71 -115z m-1115 82 l33 -30 -35 -31 c-19
-16 -43 -35 -54 -41 -17 -10 -18 -8 -12 25 7 35 6 36 -26 36 l-32 0 34 35 c19
19 40 35 47 35 7 0 27 -13 45 -29z m39 -91 c10 -6 19 -17 19 -25 0 -8 6 -15
14 -15 7 0 26 -25 40 -55 16 -31 48 -73 75 -97 27 -24 52 -54 56 -68 4 -14 16
-37 26 -52 22 -30 25 -68 7 -86 -20 -20 -36 -13 -43 18 -5 21 -36 57 -101 117
-65 61 -92 93 -89 104 4 11 -8 28 -35 49 -45 36 -49 56 -19 94 23 30 23 30 50
16z m313 -423 c9 -15 7 -21 -8 -33 -43 -31 -70 -9 -45 37 12 24 37 22 53 -4z
m496 11 c-1 -20 -69 -108 -84 -108 -22 0 -6 48 29 86 33 35 55 44 55 22z
m-422 -125 c-2 -10 -12 -18 -23 -18 -11 0 -21 8 -23 18 -3 13 3 17 23 17 20 0
26 -4 23 -17z m238 -428 c-10 -150 -12 -155 -82 -155 l-57 0 20 23 c29 31 48
73 63 137 19 81 28 100 46 100 15 0 16 -11 10 -105z m-76 -284 c0 -28 -78 -91
-113 -91 -18 0 -10 58 11 83 16 18 102 25 102 8z m-40 -229 c0 -12 -23 -32
-37 -32 -17 0 -17 27 0 33 19 8 37 8 37 -1z m108 -59 c-2 -11 -14 -19 -33 -21
-30 -4 -30 -4 -11 17 23 26 49 28 44 4z m-88 -136 c0 -2 -16 -18 -35 -37 l-35
-34 0 37 c0 36 1 37 35 37 19 0 35 -1 35 -3z"/>
<path d="M6095 10376 c-5 -3 -26 -7 -45 -10 l-35 -6 -2 -104 c-1 -57 -7 -148
-14 -202 -20 -159 -16 -323 11 -434 20 -84 22 -118 21 -285 -1 -104 -9 -305
-17 -445 -23 -397 -29 -775 -15 -930 7 -74 14 -137 17 -139 2 -3 29 -10 59
-16 69 -13 222 -2 263 19 35 18 38 26 47 121 4 39 15 121 26 183 25 149 25
349 0 732 -32 481 -35 550 -21 628 15 94 27 102 75 54 91 -90 328 -434 396
-576 17 -36 60 -98 96 -139 37 -43 82 -109 106 -158 33 -66 49 -87 75 -99 27
-13 41 -34 88 -130 67 -138 93 -175 138 -191 19 -7 37 -21 40 -31 2 -11 14
-22 25 -25 13 -3 21 -13 21 -26 0 -44 43 -109 113 -170 39 -34 94 -84 123
-110 48 -45 59 -50 146 -67 96 -20 178 -26 178 -12 0 4 -9 39 -20 77 -15 51
-23 127 -31 285 -13 247 -7 459 21 737 25 247 25 385 0 652 -11 116 -22 269
-26 339 -3 70 -12 161 -20 203 -11 57 -12 87 -4 122 13 59 6 74 -38 87 -49 13
-172 13 -227 -1 -75 -19 -77 -23 -93 -257 -11 -165 -11 -220 -2 -272 14 -74
10 -1012 -4 -1042 -5 -10 -14 -18 -21 -18 -35 0 -211 214 -428 519 -82 114
-140 210 -195 320 -83 165 -148 273 -357 595 -88 133 -138 202 -155 208 -25
10 -295 22 -315 14z m84 -120 l23 -13 -38 -22 c-39 -23 -53 -18 -54 20 0 32
28 38 69 15z m91 -83 c-147 -163 -160 -173 -160 -130 0 62 113 177 173 177
l30 0 -43 -47z m120 12 c7 -8 10 -21 7 -29 -6 -14 -103 -76 -120 -76 -11 0 18
52 49 89 29 34 45 39 64 16z m1460 -36 c9 -15 8 -39 0 -90 -10 -58 -16 -72
-37 -83 -18 -9 -22 -15 -13 -21 8 -5 -6 -25 -46 -66 -32 -33 -64 -59 -71 -59
-9 0 -13 18 -13 60 l0 60 30 0 c35 0 37 4 10 32 -30 33 -42 85 -29 133 6 22
13 43 16 48 2 4 35 7 73 7 60 0 71 -3 80 -21z m-1376 -111 c9 -12 16 -29 16
-38 0 -13 -230 -137 -348 -187 -32 -13 -33 -13 -23 6 22 40 219 198 281 225
47 20 56 20 74 -6z m-175 -32 c-16 -14 -171 -106 -179 -106 -5 0 -10 7 -10 16
0 22 52 69 92 81 31 10 106 17 97 9z m288 -128 c32 -35 78 -91 102 -126 51
-76 111 -199 111 -228 0 -26 -42 -44 -103 -44 l-39 0 6 38 c3 20 9 57 12 82
l6 45 -32 -42 c-17 -24 -35 -43 -39 -43 -10 0 -46 40 -60 67 -6 12 -11 41 -11
65 0 41 -2 45 -32 53 -23 7 -43 25 -65 60 -18 27 -33 55 -33 62 0 12 86 71
106 72 6 1 38 -27 71 -61z m1238 -35 c-32 -49 -102 -137 -129 -162 l-26 -24 0
39 c0 34 7 46 67 106 37 38 76 68 86 68 19 0 19 -1 2 -27z m-1545 -165 c10
-22 10 -33 0 -57 -15 -37 -116 -134 -133 -128 -9 3 -12 39 -12 128 l0 124 60
32 60 32 6 -52 c4 -29 12 -64 19 -79z m1558 -15 l4 -76 -38 6 c-57 10 -69 26
-50 71 9 21 25 51 37 67 30 43 43 25 47 -68z m-41 -104 c11 -4 24 -13 28 -19
9 -15 -93 -120 -117 -120 -24 0 -43 71 -27 102 30 58 45 63 116 37z m-967
-109 c0 -30 -26 -76 -47 -84 -13 -5 -26 2 -46 24 -34 38 -31 51 14 67 54 19
79 16 79 -7z m1043 -11 c17 -27 -1 -66 -40 -90 l-38 -24 43 -3 c36 -3 42 -6
42 -25 -1 -39 -38 -106 -90 -161 -49 -52 -63 -86 -36 -86 8 0 36 25 61 55 45
52 75 70 75 43 0 -20 -46 -114 -80 -162 -35 -52 -37 -61 -11 -46 11 5 29 10
40 10 18 0 21 -6 21 -45 l0 -45 -75 0 c-75 0 -75 0 -69 25 4 18 -1 33 -21 57
-27 32 -28 33 -21 138 8 124 19 170 46 195 23 21 26 45 5 45 -31 0 21 88 73
122 31 21 61 20 75 -3z m-1605 -16 c-3 -16 -92 -83 -110 -83 -11 0 -10 28 3
51 20 39 114 66 107 32z m633 -85 c46 -37 46 -93 1 -105 -42 -11 -66 -6 -84
18 -28 33 -23 81 9 101 27 16 38 14 74 -14z m-649 -47 c-20 -28 -67 -50 -79
-37 -13 13 21 60 57 79 32 16 35 16 38 1 2 -9 -5 -28 -16 -43z m28 -96 c0 -25
-81 -125 -101 -125 -12 0 -31 78 -24 99 5 18 36 35 80 44 40 9 45 7 45 -18z
m700 -26 c-4 -23 -17 -51 -29 -62 -20 -20 -21 -20 -41 -2 -26 23 -27 80 -2 94
9 6 31 11 48 11 31 0 31 0 24 -41z m90 -49 c47 -47 62 -132 35 -195 -17 -43
-43 -55 -61 -30 -24 32 -17 60 19 78 l32 16 -55 0 c-55 1 -80 13 -80 37 0 21
62 114 76 114 8 0 23 -9 34 -20z m-782 -47 c3 -34 -25 -63 -61 -63 -22 0 -16
29 15 73 25 34 42 30 46 -10z m-18 -111 c0 -4 -27 -34 -60 -67 -57 -56 -60
-58 -60 -33 0 46 18 78 52 93 37 16 68 19 68 7z m976 -124 c44 -88 63 -116 87
-129 17 -8 40 -27 50 -42 19 -24 19 -27 4 -51 -18 -27 -71 -43 -107 -31 -22 7
-22 21 -4 69 5 13 1 13 -24 4 -49 -19 -66 -5 -59 47 6 40 5 45 -13 45 -11 0
-29 9 -41 21 -18 18 -21 30 -17 84 4 67 19 95 49 95 14 0 33 -29 75 -112z
m-950 9 c-8 -42 -33 -66 -80 -77 -51 -11 -47 6 15 75 56 61 76 61 65 2z m1535
-54 c-5 -10 -21 -30 -35 -45 l-25 -28 40 0 c28 0 39 -4 37 -12 -7 -19 -78 -67
-115 -77 l-33 -10 0 95 0 94 70 0 c64 0 70 -2 61 -17z m-1634 -140 c-39 -40
-49 -45 -57 -33 -19 28 -7 54 30 67 72 24 78 17 27 -34z m113 -46 c0 -41 -15
-63 -51 -76 -46 -16 -59 -14 -59 10 0 28 16 58 54 97 28 30 32 31 43 15 7 -9
13 -30 13 -46z m1544 -52 c0 -62 -7 -112 -22 -161 -35 -116 -79 -164 -166
-180 l-39 -7 40 59 c50 73 97 163 90 170 -16 17 -101 -27 -233 -121 -10 -7
-25 2 -58 35 -52 50 -51 57 26 96 52 26 68 25 68 -7 0 -24 26 -25 66 0 18 11
44 45 66 87 50 95 85 125 138 121 25 -2 25 -3 24 -92z m-404 22 c0 -29 3 -33
28 -32 23 0 27 -4 30 -31 3 -29 -1 -33 -47 -53 -27 -11 -52 -21 -55 -21 -3 0
-6 16 -6 35 0 34 -12 46 -25 25 -10 -17 -33 -11 -40 10 -9 30 12 60 58 81 55
25 57 24 57 -14z m-1241 -179 c-22 -50 -34 -93 -37 -138 -2 -36 -9 -71 -16
-79 -19 -25 52 -5 92 25 41 32 62 21 46 -23 -10 -30 -36 -41 -105 -42 -74 -2
-84 18 -83 148 2 121 15 161 61 179 38 15 67 19 71 10 2 -4 -11 -40 -29 -80z
m115 25 c-17 -72 -58 -123 -98 -123 -32 0 22 116 65 137 35 18 40 16 33 -14z
m1327 -117 c-34 -55 -151 -125 -151 -90 0 45 59 108 130 138 30 13 35 13 38 0
2 -8 -6 -29 -17 -48z m189 -105 c0 -46 -60 -101 -110 -101 -22 0 -20 5 30 55
51 51 80 68 80 46z m-186 -72 c-20 -22 -54 -26 -54 -5 0 17 19 33 45 38 27 5
31 -9 9 -33z m-1384 -43 c0 -8 -27 -39 -61 -70 -45 -42 -68 -56 -90 -56 -22 0
-29 4 -29 20 0 40 27 86 56 98 64 24 124 28 124 8z m1564 -63 c-3 -27 -10 -51
-13 -56 -4 -4 -25 -4 -47 1 -32 6 -40 12 -42 33 -3 23 4 29 45 47 26 11 52 21
56 21 5 1 5 -20 1 -46z"/>
<path d="M16255 10376 c-5 -3 -27 -7 -47 -11 l-38 -6 0 -92 c0 -51 -7 -150
-15 -222 -21 -189 -19 -278 11 -424 26 -122 26 -133 20 -361 -4 -129 -11 -300
-16 -380 -24 -377 -32 -714 -19 -870 6 -85 15 -165 20 -176 9 -26 68 -37 174
-35 148 4 195 34 195 124 0 27 10 104 23 171 19 104 22 151 20 341 0 121 -8
312 -17 425 -33 419 -31 693 4 715 34 21 322 -369 440 -597 24 -46 72 -116
107 -156 36 -42 77 -103 94 -140 32 -72 62 -109 96 -123 16 -6 39 -43 78 -126
60 -126 100 -178 147 -188 18 -4 28 -13 28 -25 0 -10 9 -21 19 -25 12 -4 23
-22 31 -53 12 -48 28 -66 215 -243 58 -55 63 -58 157 -78 54 -12 116 -21 138
-21 46 0 49 8 25 86 -40 131 -46 733 -10 1014 25 191 23 454 -3 722 -12 120
-22 253 -22 297 0 43 -7 116 -16 161 -10 54 -13 104 -9 144 10 87 3 91 -144
91 -131 0 -173 -12 -191 -54 -6 -15 -17 -116 -24 -224 -11 -170 -11 -206 1
-260 12 -51 14 -141 10 -522 -3 -253 -9 -475 -14 -494 -5 -19 -14 -36 -22 -39
-29 -10 -183 175 -419 502 -87 122 -143 211 -192 311 -82 166 -140 264 -309
525 -194 299 -194 298 -221 305 -30 7 -291 16 -305 11z m73 -120 c25 -13 21
-21 -26 -45 -20 -10 -23 -9 -31 11 -9 24 2 48 23 48 6 -1 21 -6 34 -14z m122
-53 c-5 -10 -46 -56 -89 -103 -85 -91 -111 -99 -86 -26 23 65 113 146 163 146
19 0 21 -3 12 -17z m100 -22 c5 -11 10 -22 10 -25 0 -8 -122 -77 -128 -72 -6
7 56 103 71 110 24 9 36 6 47 -13z m1454 -95 c-2 -74 -4 -82 -29 -102 -19 -15
-24 -24 -15 -29 14 -8 -96 -125 -117 -125 -9 0 -13 18 -13 60 l0 60 31 0 31 0
-26 30 c-33 39 -42 89 -26 146 l13 45 76 -3 76 -3 -1 -79z m-1388 -34 c11 -7
34 -45 34 -56 0 -3 -85 -49 -190 -101 -104 -52 -190 -92 -190 -87 0 11 106
112 170 162 46 36 142 90 160 90 3 0 10 -4 16 -8z m-166 -46 c0 -6 -165 -106
-174 -106 -3 0 -6 8 -6 18 0 38 84 90 148 91 17 1 32 -1 32 -3z m305 -143
c138 -156 230 -340 184 -368 -6 -4 -37 -9 -70 -12 -67 -7 -67 -8 -43 73 24 83
15 98 -25 41 -33 -46 -35 -46 -54 -30 -28 26 -57 92 -57 134 0 32 -4 37 -32
45 -24 7 -40 23 -66 67 -19 32 -32 60 -30 62 15 14 104 65 113 65 6 0 42 -35
80 -77z m1235 -1 c0 -12 -112 -162 -139 -186 l-21 -19 0 40 c0 37 6 47 68 107
61 60 92 79 92 58z m-1565 -143 c18 -79 18 -83 0 -116 -24 -44 -110 -117 -130
-109 -12 4 -15 28 -15 126 l0 120 58 29 c31 17 60 30 63 31 3 0 14 -37 24 -81z
m1559 25 c3 -9 9 -47 12 -85 8 -77 3 -81 -65 -58 -45 16 -42 44 13 126 24 37
31 40 40 17z m-16 -193 c12 -6 22 -15 22 -19 0 -4 -24 -32 -54 -61 -61 -60
-85 -63 -99 -14 -12 39 -4 72 22 100 16 17 26 20 53 14 19 -5 43 -13 56 -20z
m-982 -97 c-3 -9 -6 -22 -6 -30 0 -8 -11 -26 -25 -40 -29 -29 -50 -23 -77 24
-17 28 -17 29 5 40 25 13 52 19 86 21 17 1 22 -3 17 -15z m1036 -11 c34 -30
17 -63 -58 -110 -16 -10 -13 -12 27 -12 l46 -1 -7 -37 c-9 -53 -31 -91 -84
-150 -25 -28 -46 -58 -46 -68 0 -29 32 -12 68 35 19 25 41 49 49 53 44 26 30
-31 -35 -140 -45 -74 -47 -81 -25 -72 46 17 53 12 53 -36 l0 -45 -75 0 c-73 0
-75 1 -65 20 9 17 7 26 -14 51 -24 28 -26 39 -26 118 0 115 14 184 45 225 29
38 31 46 10 46 -36 0 7 79 64 117 40 27 49 28 73 6z m-1602 -21 c0 -17 -87
-82 -109 -82 -14 0 -14 16 0 43 24 45 109 75 109 39z m648 -96 c24 -21 29 -65
10 -84 -18 -18 -82 -15 -100 6 -37 42 -33 84 10 106 28 15 32 14 80 -28z
m-649 -8 c-5 -18 -9 -34 -9 -35 0 -6 -61 -33 -74 -33 -31 0 17 73 59 90 32 14
34 12 24 -22z m16 -120 c-4 -13 -9 -31 -11 -40 -3 -9 -23 -33 -45 -53 -48 -43
-59 -38 -66 27 -6 51 4 63 63 77 62 14 66 14 59 -11z m702 -24 c-7 -39 -32
-84 -47 -84 -17 0 -50 43 -50 66 0 33 26 54 67 54 35 0 36 0 30 -36z m86 -55
c38 -29 60 -108 46 -167 -5 -25 -15 -52 -21 -59 -19 -23 -45 -14 -59 18 -13
34 -14 32 38 66 15 10 10 12 -32 13 -87 1 -100 29 -49 100 20 28 39 50 44 50
4 0 19 -9 33 -21z m-775 -40 c4 -31 -16 -56 -50 -65 -31 -7 -35 3 -17 39 30
58 62 71 67 26z m-28 -123 c0 -7 -25 -35 -55 -61 l-55 -47 0 34 c0 46 41 85
93 87 9 1 17 -5 17 -13z m983 -121 c31 -63 62 -115 69 -115 22 0 78 -63 78
-87 0 -28 -55 -56 -99 -51 -24 3 -26 6 -24 45 2 41 1 42 -22 31 -41 -18 -57
-4 -53 47 2 37 0 45 -13 45 -9 0 -27 8 -40 19 -19 16 -23 27 -22 72 2 74 17
109 45 109 20 0 33 -18 81 -115z m-967 -29 c-8 -13 -32 -28 -55 -34 -36 -9
-41 -8 -41 8 0 9 24 41 53 71 l52 54 3 -38 c2 -22 -3 -48 -12 -61z m1554 -6
c0 -5 -14 -25 -31 -45 l-31 -35 43 0 43 0 -30 -31 c-32 -34 -64 -53 -106 -63
l-28 -6 0 95 0 95 70 0 c39 0 70 -4 70 -10z m-1600 -108 c0 -4 -18 -26 -41
-47 -39 -39 -41 -39 -55 -21 -18 25 -18 31 0 45 26 22 96 38 96 23z m68 -47
c7 -14 12 -34 12 -45 0 -30 -42 -68 -82 -76 -33 -5 -38 -4 -38 12 0 31 70 134
90 134 4 0 12 -11 18 -25z m1552 -10 c9 -10 10 -36 5 -87 -13 -140 -49 -243
-101 -292 -26 -24 -109 -54 -120 -43 -3 3 12 31 34 64 57 83 95 157 83 161
-22 7 -86 -22 -163 -75 l-80 -55 -44 43 c-24 24 -44 46 -44 50 0 3 26 20 58
37 59 32 82 30 82 -6 0 -21 49 -6 79 22 12 13 40 54 60 92 47 88 117 130 151
89z m-379 -87 c23 3 27 -1 31 -28 4 -29 1 -33 -43 -56 -63 -31 -69 -31 -69 11
0 33 -1 34 -21 23 -17 -11 -22 -10 -35 6 -19 27 -1 54 57 84 l44 23 5 -33 c4
-29 8 -33 31 -30z m-1245 -95 c-8 -21 -23 -60 -35 -86 -13 -30 -21 -70 -21
-103 0 -31 -5 -64 -10 -75 -16 -30 17 -25 73 11 26 17 50 30 53 30 3 0 4 -15
2 -32 -4 -40 -34 -58 -100 -58 -77 0 -88 18 -88 140 0 141 17 176 99 201 40
12 41 11 27 -28z m94 -23 c0 -30 -36 -96 -62 -114 -28 -20 -48 -20 -48 -1 0
29 48 111 72 122 33 16 38 15 38 -7z m1350 -79 c0 -38 -110 -141 -152 -141
-52 0 11 93 91 135 56 30 61 30 61 6z m160 -164 c0 -42 -59 -87 -113 -87 -18
0 -13 9 33 55 59 60 80 68 80 32z m-170 -42 c0 -16 -30 -35 -54 -35 -21 0 -20
27 2 39 25 15 52 13 52 -4z m-1400 -60 c0 -27 -111 -124 -142 -125 -25 0 -28
4 -28 34 0 47 32 83 83 94 65 15 87 14 87 -3z m1570 -57 c0 -58 -10 -71 -46
-63 -59 14 -64 17 -64 38 0 16 13 28 48 44 26 11 50 22 55 22 4 1 7 -18 7 -41z"/>
<path d="M12822 10359 c-29 -4 -63 -14 -75 -22 -14 -9 -63 -94 -125 -219 -56
-111 -142 -266 -192 -343 -50 -77 -128 -216 -174 -310 -54 -110 -96 -182 -118
-203 l-35 -33 -34 43 c-60 74 -75 99 -268 445 -226 408 -290 511 -352 576 -42
44 -51 49 -76 42 -36 -9 -77 -9 -128 0 -32 6 -43 3 -56 -12 -26 -28 -39 -81
-49 -194 -5 -57 -16 -149 -24 -204 -8 -55 -18 -143 -22 -195 -3 -52 -35 -264
-71 -470 -61 -351 -65 -389 -73 -595 -8 -217 -30 -407 -70 -600 -11 -53 -17
-109 -13 -126 12 -63 130 -119 250 -119 55 0 68 4 88 25 14 13 25 29 25 34 0
6 24 178 54 383 33 224 56 425 60 503 2 72 19 221 35 332 17 112 31 220 31
240 0 36 46 303 54 310 6 7 23 -22 41 -72 77 -214 194 -445 405 -800 44 -73
84 -151 89 -174 13 -59 36 -90 84 -112 52 -23 91 -24 126 -3 36 21 31 12 164
299 252 547 350 778 355 833 4 47 7 52 28 52 36 0 42 -28 55 -238 7 -116 16
-198 25 -217 14 -31 39 -156 74 -380 20 -125 47 -638 40 -745 -2 -25 -4 -74
-4 -110 l-1 -65 40 -20 c31 -15 66 -20 153 -23 61 -2 123 -1 137 2 59 15 70
122 35 356 -12 74 -27 230 -35 345 -25 361 -50 549 -130 995 -58 324 -72 420
-86 575 -6 72 -15 140 -19 151 -10 25 -79 60 -130 66 -19 3 -59 1 -88 -3z
m139 -384 c14 -138 31 -262 37 -276 8 -19 7 -30 -1 -38 -12 -12 -125 -15 -143
-3 -6 4 -21 26 -33 49 -11 23 -25 44 -30 48 -6 3 -8 12 -5 19 4 11 -4 13 -38
9 -91 -12 -123 -20 -121 -31 3 -11 -75 -38 -84 -28 -3 2 -2 14 2 25 10 33 75
60 219 92 72 16 135 34 140 39 6 6 4 15 -4 25 -9 11 -33 15 -102 15 -84 0 -88
1 -78 19 5 11 41 31 80 46 39 15 75 35 80 45 9 16 3 20 -57 34 -36 8 -73 22
-82 30 -14 14 -12 19 19 52 36 36 75 61 120 75 55 17 53 21 81 -246z m-1637
239 c37 -6 46 -11 46 -27 0 -11 12 -30 26 -43 14 -13 22 -29 19 -35 -8 -11
-63 -3 -83 13 -12 10 -48 7 -84 -7 -16 -6 -18 0 -18 49 0 63 -1 63 94 50z
m145 -189 c56 -29 44 -63 -39 -105 l-42 -21 -24 25 c-21 20 -24 28 -14 45 13
26 13 26 -41 1 -52 -23 -79 -25 -79 -7 0 55 169 99 239 62z m1301 0 c0 -15
-75 -43 -86 -32 -3 3 -3 15 1 26 5 17 15 21 46 21 27 0 39 -4 39 -15z m-60
-155 c11 -7 0 -10 -38 -10 -33 0 -51 4 -47 10 8 13 65 13 85 0z m-1106 -42
c32 -45 22 -53 -73 -64 -75 -8 -78 2 -15 51 55 41 67 43 88 13z m-183 -16
c-17 -33 -41 -45 -86 -46 -42 -1 -65 8 -52 20 9 9 109 42 130 43 14 1 16 -3 8
-17z m-151 -82 c28 -11 60 -20 71 -20 19 0 21 -4 15 -37 -8 -44 -36 -87 -60
-91 -10 -2 -35 9 -57 23 -38 27 -39 29 -39 86 0 33 4 59 10 59 5 0 32 -9 60
-20z m305 -35 c-35 -29 -44 -30 -70 -12 -29 22 -9 37 48 37 l52 -1 -30 -24z
m1105 -16 c0 -15 -40 -30 -73 -27 -44 4 -40 20 8 34 41 11 65 9 65 -7z m-124
-50 c19 -11 31 -25 28 -31 -9 -14 -91 -48 -116 -48 -17 0 -19 4 -13 28 9 39
33 72 52 72 8 0 31 -9 49 -21z m-806 -59 c0 -14 -12 -21 -50 -29 -63 -14 -60
-14 -60 4 0 8 17 31 37 51 l37 37 18 -23 c10 -12 18 -30 18 -40z m1238 11 c12
-7 10 -11 -9 -25 -44 -30 -84 -18 -114 33 -7 12 2 13 50 7 32 -3 64 -10 73
-15z m-1712 -55 c20 -22 42 -121 30 -133 -10 -10 -75 8 -100 28 -29 23 -34 60
-10 80 14 11 14 13 0 21 -9 5 -16 16 -16 25 0 24 70 9 96 -21z m1289 -13 c-11
-46 -45 -94 -124 -175 l-74 -78 31 0 c30 0 32 -3 32 -34 0 -48 -20 -62 -75
-49 -25 6 -45 8 -45 6 0 -2 7 -17 14 -32 13 -25 13 -31 -1 -51 -16 -23 -16
-23 12 -16 l27 7 -7 -48 c-15 -104 -69 -177 -160 -219 -53 -25 -165 -44 -165
-29 0 21 38 66 86 100 30 22 54 43 54 47 0 11 -96 10 -142 -1 -29 -7 -40 -5
-49 6 -10 11 -8 18 8 34 15 15 45 24 109 34 49 7 97 16 108 20 17 8 17 9 -4
25 l-23 17 42 79 c53 97 101 158 141 176 34 15 36 20 14 39 -21 17 -11 65 19
97 35 38 104 69 156 71 20 1 22 -2 16 -26z m455 -32 l0 -40 -44 15 c-50 17
-53 40 -7 50 14 3 31 7 36 9 6 2 11 4 13 4 1 1 2 -17 2 -38z m-1284 0 c-10
-16 -46 -20 -46 -5 0 8 10 14 26 14 14 0 23 -4 20 -9z m94 -36 c0 -23 -4 -25
-40 -25 -37 0 -40 2 -30 19 20 38 70 42 70 6z m1160 -34 c0 -15 -28 -33 -40
-26 -8 5 -8 11 1 21 13 15 39 19 39 5z m-1755 -54 c67 -36 78 -62 35 -84 -28
-14 -116 -17 -124 -5 -3 5 8 19 24 31 38 28 38 41 -1 41 -24 0 -30 3 -25 16 3
9 6 20 6 25 0 16 23 9 85 -24z m595 5 c0 -10 -45 -32 -65 -32 -8 0 -19 9 -25
20 -10 19 -8 20 40 20 27 0 50 -4 50 -8z m1220 -52 c0 -66 -8 -72 -64 -50 -21
8 -26 16 -26 44 0 28 6 38 28 50 53 29 62 23 62 -44z m-1145 6 c18 -13 18 -15
-15 -34 -31 -19 -106 -39 -115 -30 -2 2 1 15 8 28 8 15 27 29 52 36 52 16 48
16 70 0z m-708 -122 c2 -6 -14 -16 -35 -22 -52 -16 -52 -16 -52 14 0 23 3 25
42 22 23 -2 43 -8 45 -14z m733 -4 c-13 -24 -42 -32 -101 -28 -37 2 -45 7 -47
26 -3 21 -1 22 78 22 77 0 80 -1 70 -20z m1141 4 c11 -14 10 -18 -6 -30 -10
-8 -24 -14 -31 -14 -7 0 -19 -3 -28 -6 -13 -5 -16 1 -16 30 0 34 2 36 34 36
19 0 39 -7 47 -16z m-1082 -48 l23 -24 -25 -17 c-16 -10 -41 -15 -69 -13 l-43
3 37 38 c20 20 40 37 45 37 5 0 20 -11 32 -24z m-717 -10 c15 -35 4 -56 -30
-56 -52 0 -122 13 -122 22 0 11 99 58 123 58 9 0 22 -11 29 -24z m1858 -42 c0
-40 -18 -64 -48 -64 -51 0 -72 11 -72 37 0 27 44 52 93 53 22 0 27 -4 27 -26z
m-1910 -62 c0 -6 -107 -52 -123 -52 -9 0 -9 44 0 53 9 10 123 9 123 -1z m780
-3 c0 -8 -58 -39 -75 -39 -3 0 -5 11 -5 25 0 23 4 25 40 25 22 0 40 -5 40 -11z
m1093 -42 c28 -12 28 -13 10 -29 -10 -9 -30 -20 -45 -23 -27 -7 -28 -5 -28 29
0 40 13 45 63 23z m-1843 -22 c0 -21 -39 -43 -85 -47 -39 -3 -42 0 -36 31 4
26 121 42 121 16z m788 -67 c-6 -16 -36 -34 -44 -25 -9 9 15 37 33 37 8 0 13
-5 11 -12z m1082 -53 c0 -62 -1 -65 -25 -65 -30 0 -65 36 -65 66 0 14 12 30
33 43 51 33 57 29 57 -44z m-1918 28 c24 -25 33 -83 23 -158 -8 -67 -42 -112
-93 -121 l-33 -7 21 36 21 35 -37 30 c-34 28 -39 38 -50 109 -19 115 -24 106
57 101 53 -4 76 -11 91 -25z m926 -115 c-6 -17 -36 -34 -45 -24 -4 4 1 14 11
22 24 17 39 18 34 2z m957 -18 c-3 -5 -13 -10 -21 -10 -8 0 -14 5 -14 10 0 6
9 10 21 10 11 0 17 -4 14 -10z m-912 -59 c-21 -27 -53 -40 -53 -21 0 6 14 26
32 43 37 37 52 21 21 -22z m963 -98 c-10 -10 -74 8 -80 22 -9 26 16 76 48 96
l31 19 3 -66 c2 -37 1 -69 -2 -71z m-1996 -48 c0 -13 4 -14 20 -5 28 15 34 -6
26 -82 -8 -81 -37 -143 -78 -168 -59 -36 -68 -29 -67 48 1 119 13 173 43 199
31 26 56 30 56 8z m2000 2 c0 -2 -13 -16 -30 -32 l-30 -29 0 32 c0 29 3 32 30
32 17 0 30 -1 30 -3z m30 -112 l0 -45 -54 0 c-49 0 -54 2 -49 20 7 26 59 70
84 70 16 0 19 -7 19 -45z m-35 -104 c-6 -5 -20 -12 -32 -16 -17 -5 -23 -2 -23
9 0 11 10 16 32 16 19 0 28 -4 23 -9z m51 -66 c19 -47 33 -192 22 -226 -9 -25
-32 -39 -69 -39 -13 0 -21 24 -38 108 -27 137 -27 146 7 171 40 30 61 26 78
-14z m-2086 -61 c-15 -38 -13 -44 15 -44 24 0 25 -2 25 -69 0 -112 -25 -153
-82 -135 -60 18 -72 66 -44 172 16 59 30 80 61 92 32 14 35 12 25 -16z"/>
<path d="M12870 9820 c-12 -8 -9 -10 12 -10 15 0 30 5 33 10 8 13 -25 13 -45
0z"/>
<path d="M9525 10353 c-99 -10 -274 -46 -363 -74 -253 -81 -446 -219 -604
-432 -62 -84 -76 -120 -107 -282 -10 -55 -27 -119 -36 -142 -15 -37 -16 -75
-11 -335 10 -476 11 -487 34 -545 23 -57 76 -147 184 -312 38 -58 76 -122 85
-143 13 -30 19 -35 33 -26 9 6 29 8 44 4 28 -7 276 -201 276 -216 0 -17 95
-58 176 -76 63 -14 130 -17 324 -18 257 0 335 9 398 45 31 18 35 18 74 2 79
-31 264 13 346 82 72 63 73 64 70 615 l-3 485 -26 12 c-20 10 -108 13 -325 15
l-298 1 -20 -27 c-17 -22 -20 -41 -19 -115 1 -106 14 -152 54 -186 26 -21 40
-25 99 -25 84 0 115 -11 133 -47 8 -15 25 -99 37 -186 24 -174 19 -258 -18
-320 l-18 -32 -240 1 c-245 1 -477 20 -599 50 -134 33 -229 120 -305 279 -79
167 -110 316 -110 530 1 405 122 691 364 857 73 51 212 116 336 159 86 30 106
33 210 32 93 0 150 -7 295 -37 220 -45 330 -58 365 -42 16 7 29 26 38 56 16
55 12 192 -6 198 -7 2 -12 12 -12 22 0 26 -119 80 -177 80 -21 0 -36 6 -39 15
-5 11 -23 15 -74 15 -52 0 -69 4 -74 15 -14 38 -74 49 -266 51 -102 1 -203 0
-225 -3z m-185 -134 c0 -11 -10 -42 -21 -70 l-21 -49 -30 18 c-16 9 -38 26
-49 38 -20 21 -20 21 7 38 24 16 89 44 107 45 4 1 7 -8 7 -20z m210 2 c0 -32
-19 -71 -34 -71 -15 0 -47 40 -59 73 -6 15 0 17 43 17 43 0 50 -3 50 -19z
m-126 -17 c3 -9 6 -39 6 -68 0 -38 -5 -58 -20 -73 -18 -20 -58 -39 -64 -31 -3
3 29 150 39 176 6 17 32 15 39 -4z m252 -30 c19 -45 19 -44 -21 -44 -39 0 -45
17 -24 64 14 30 26 25 45 -20z m127 26 c-8 -31 -19 -32 -31 -5 -11 23 -9 25
12 25 19 0 23 -4 19 -20z m137 -82 c0 -13 -8 -18 -25 -18 -28 0 -32 18 -14 52
11 21 12 21 25 3 8 -10 14 -27 14 -37z m-815 -32 c11 -46 11 -57 -1 -66 -10
-9 -21 -5 -49 15 -26 20 -35 23 -35 12 0 -8 7 -20 15 -27 19 -15 37 -82 29
-104 -10 -26 -34 -18 -49 17 -9 21 -15 27 -18 17 -47 -152 -87 -183 -151 -117
l-33 32 1 -48 c1 -31 -4 -51 -13 -57 -12 -7 -7 -13 21 -30 34 -20 35 -22 25
-51 -6 -16 -21 -42 -33 -57 l-22 -27 -36 34 -36 35 0 -26 c0 -14 6 -43 14 -65
16 -45 13 -53 -26 -70 -25 -11 -27 -15 -18 -39 10 -25 9 -26 -17 -21 -16 3
-37 9 -48 13 -17 6 -16 2 7 -22 29 -31 51 -78 41 -88 -10 -10 -149 -7 -176 3
-41 16 -40 54 4 170 59 158 103 240 163 306 l54 60 78 5 c90 6 108 23 42 41
l-43 11 65 60 65 60 26 -32 27 -32 17 47 c16 41 82 112 93 100 2 -2 10 -29 17
-59z m1132 22 c20 -22 43 -61 43 -72 0 -10 -101 -6 -121 4 -26 15 -24 27 12
61 37 35 40 35 66 7z m-1022 -23 c66 -38 68 -72 5 -93 -22 -8 -32 -7 -41 4
-14 17 -26 114 -14 114 5 0 27 -11 50 -25z m-615 -795 c0 -5 14 -25 32 -45 23
-27 32 -49 36 -86 l5 -49 -58 0 c-50 0 -56 -2 -45 -15 7 -8 9 -15 4 -16 -5 0
14 -6 41 -13 l50 -11 3 -85 c3 -76 1 -87 -18 -102 l-21 -17 21 -40 c22 -45 25
-72 9 -88 -13 -13 41 -160 127 -340 77 -163 95 -189 136 -198 45 -10 86 -43
93 -74 3 -15 22 -39 42 -55 34 -27 35 -30 18 -43 -41 -29 -124 -9 -196 48 -40
31 -249 263 -249 275 0 4 -22 31 -50 60 -31 32 -50 62 -50 76 0 13 -9 41 -19
62 -16 30 -19 51 -14 104 3 51 0 82 -15 130 -26 81 -21 97 37 118 66 25 72 34
19 34 -61 0 -72 15 -64 84 7 49 5 56 -13 68 -19 12 -21 23 -21 111 0 92 1 98
23 107 30 12 137 12 137 0z m1454 -404 c-11 -8 -55 -33 -98 -55 -115 -61 -142
-55 -104 23 l22 46 100 0 c90 0 98 -1 80 -14z m275 0 c9 -11 10 -51 2 -163
-13 -201 -42 -277 -118 -309 -40 -17 -43 -17 -43 0 0 8 17 28 38 45 l37 30
-37 1 c-21 0 -38 3 -38 8 0 11 23 41 69 91 23 24 41 53 41 63 0 16 -9 18 -65
18 -79 0 -81 6 -28 91 20 33 33 62 30 66 -4 3 -36 -4 -72 -16 -36 -12 -74 -21
-85 -19 -16 3 -13 10 26 56 l46 52 93 0 c68 0 96 -4 104 -14z m-343 -91 c-48
-34 -66 -39 -51 -15 10 16 67 50 85 50 8 0 -7 -16 -34 -35z m248 -157 c-44
-74 -94 -103 -94 -55 0 34 38 64 83 66 12 1 16 -3 11 -11z m76 -255 c0 -29
-38 -83 -66 -93 -41 -16 -64 -12 -64 10 0 13 7 20 19 20 10 0 24 7 31 15 10
13 9 15 -11 15 l-24 0 25 20 c23 17 43 25 78 29 6 0 12 -7 12 -16z m0 -153 l0
-50 -55 0 c-53 0 -55 1 -55 28 0 27 3 29 108 71 1 1 2 -21 2 -49z m10 -132 c0
-13 -3 -34 -7 -47 -5 -20 -10 -22 -40 -18 -19 3 -50 16 -69 27 -54 34 -27 55
74 59 37 1 42 -1 42 -21z m-1075 -107 c3 -5 -4 -26 -16 -45 -17 -30 -27 -36
-53 -36 -42 0 -93 18 -99 34 -12 32 32 55 105 56 31 0 59 -4 63 -9z m150 -23
c-10 -44 -21 -56 -64 -68 -59 -16 -64 -14 -57 22 8 41 22 56 60 67 60 18 68
15 61 -21z m886 15 c32 -32 -132 -68 -196 -43 l-30 12 29 25 c28 24 35 25 108
21 43 -3 84 -10 89 -15z m-749 -33 c10 -12 18 -34 18 -47 0 -25 -1 -26 -59
-20 -79 7 -81 9 -68 58 l10 41 41 -5 c25 -4 48 -14 58 -27z m438 -12 c19 -2
35 -7 35 -13 0 -6 -58 -13 -140 -17 -77 -4 -168 -10 -201 -13 -57 -6 -63 -5
-78 16 -9 13 -16 28 -16 34 0 9 258 4 400 -7z"/>
<path d="M2916 10306 c-38 -13 -76 -32 -84 -42 -15 -20 -13 -205 7 -499 5 -77
6 -194 3 -260 l-7 -120 -110 -27 c-165 -41 -280 -49 -470 -31 -136 13 -176 14
-265 2 -118 -14 -265 -14 -385 1 -44 5 -103 10 -132 10 -44 0 -53 3 -53 18 0
9 -1 141 -3 292 -3 231 -7 292 -25 384 -25 123 -28 196 -10 214 9 9 6 17 -12
37 -23 24 -27 25 -165 25 -96 0 -145 -4 -153 -12 -15 -15 -16 -349 -2 -418 5
-25 14 -448 19 -940 6 -492 13 -928 17 -968 6 -69 8 -74 45 -106 87 -74 206
-114 257 -87 21 11 22 19 22 134 0 67 -7 205 -15 307 -25 318 -38 614 -31 684
11 101 -5 97 356 70 311 -23 570 -31 570 -16 0 5 6 17 14 27 14 19 15 19 34 2
14 -13 49 -20 143 -27 178 -14 230 -33 267 -99 32 -59 36 -108 36 -516 1 -290
4 -396 13 -412 10 -17 42 -28 160 -57 154 -37 236 -45 250 -23 4 6 11 185 15
397 3 212 10 417 13 455 8 75 -10 361 -27 435 -5 25 -13 97 -18 160 -5 63 -12
148 -16 188 -5 49 -3 91 6 126 12 49 10 66 -24 234 -39 193 -48 342 -23 383 9
17 9 23 0 26 -6 2 -31 20 -55 39 -51 40 -70 41 -162 10z m-1705 -96 c18 -10
18 -13 -13 -55 -18 -24 -37 -43 -43 -42 -5 2 -18 20 -28 40 -15 30 -16 41 -7
52 14 17 63 20 91 5z m1823 -6 c19 -18 22 -161 6 -259 -15 -91 -65 -143 -97
-99 -11 15 -9 22 12 50 15 19 21 35 15 39 -5 3 -21 30 -35 59 -21 44 -25 68
-25 139 l0 87 54 0 c36 0 60 -5 70 -16z m-1750 -36 c12 -48 6 -87 -16 -102
-28 -20 -49 -20 -73 -2 -19 13 -18 16 23 60 23 25 42 50 42 56 0 19 18 10 24
-12z m-65 -187 c-6 -16 -26 -46 -44 -68 -30 -34 -34 -35 -35 -16 0 38 19 72
52 93 18 11 34 20 35 20 1 0 -3 -13 -8 -29z m83 -38 c23 -20 24 -85 2 -107 -9
-10 -33 -16 -60 -16 -42 0 -45 1 -38 23 10 35 58 117 68 117 5 0 18 -7 28 -17z
m1762 -154 c9 -45 7 -122 -3 -138 -5 -7 -32 -16 -60 -19 -48 -4 -51 -3 -51 19
1 32 31 97 64 137 34 40 42 40 50 1z m-1778 -24 c11 -26 -86 -145 -118 -145
-47 0 -40 93 10 128 49 34 99 42 108 17z m28 -112 c-20 -81 -18 -78 -63 -81
l-42 -3 43 55 c47 62 73 73 62 29z m1696 -118 c-47 -39 -58 -42 -67 -20 -10
27 26 55 69 55 l40 0 -42 -35z m90 -63 c0 -55 -23 -82 -70 -82 -21 0 -42 4
-45 10 -7 11 86 110 103 110 7 0 12 -15 12 -38z m-1810 18 c0 -36 -94 -140
-126 -140 -7 0 -16 17 -19 38 -3 20 -8 45 -9 54 -2 9 3 26 11 37 12 18 25 21
79 21 38 0 64 -4 64 -10z m-3 -194 c6 -71 0 -80 -63 -90 -78 -13 -77 44 3 142
32 39 37 42 46 27 5 -10 12 -45 14 -79z m794 -25 l24 -19 -22 -46 c-27 -54
-17 -58 32 -15 l35 31 0 -46 c0 -49 14 -62 24 -23 9 38 46 78 90 98 47 21 73
23 112 9 l27 -11 -34 -36 c-77 -81 -202 -141 -331 -158 -47 -6 -48 -6 -48 20
0 25 -1 26 -45 19 -38 -5 -45 -4 -45 10 0 20 -3 20 -51 -5 -48 -24 -57 -19
-42 20 l10 29 -41 -19 c-44 -20 -86 -25 -86 -10 0 5 -22 1 -50 -10 -27 -10
-74 -22 -104 -25 -53 -6 -55 -6 -58 19 -3 24 -5 24 -38 13 -23 -7 -46 -27 -70
-61 -19 -27 -52 -67 -72 -88 -32 -33 -42 -38 -75 -35 -61 5 -56 34 19 103 70
65 135 109 235 159 75 38 181 62 197 46 14 -14 59 -13 91 2 23 10 28 10 36 -5
6 -9 20 -17 32 -17 12 0 37 -9 55 -20 l33 -21 40 23 c22 12 49 37 60 55 24 38
29 39 60 14z m873 -18 c-37 -50 -116 -133 -127 -133 -12 0 1 67 19 103 18 35
70 67 107 67 l28 0 -27 -37z m-248 -6 c-3 -13 -15 -36 -28 -52 -22 -28 -133
-105 -151 -105 -14 0 -3 98 16 143 16 37 17 38 40 22 23 -14 28 -14 73 4 27
10 51 17 53 15 2 -2 1 -14 -3 -27z m384 -87 c-13 -32 -47 -50 -95 -50 -25 0
-35 4 -35 16 0 25 37 71 88 110 l47 36 3 -42 c2 -24 -2 -55 -8 -70z m-313 34
c-3 -17 -15 -54 -27 -83 l-22 -51 -59 0 c-43 0 -59 4 -59 14 0 7 33 50 72 94
58 64 76 78 86 69 9 -7 12 -23 9 -43z m-327 -29 c0 -42 -17 -82 -39 -90 -9 -3
-45 -9 -80 -12 l-65 -6 20 26 c34 43 133 117 157 117 4 0 7 -16 7 -35z m-1160
2 c0 -7 -29 -42 -65 -77 l-65 -64 0 35 c0 43 30 86 74 105 39 17 56 17 56 1z
m1848 -120 c17 -20 -1 -78 -30 -100 -34 -25 -107 -33 -132 -14 -25 18 -17 29
56 83 62 45 88 53 106 31z m-1849 -162 c-20 -34 -20 -36 -4 -101 22 -88 13
-171 -25 -240 -27 -48 -27 -51 -9 -47 18 5 20 2 17 -38 -3 -40 -5 -44 -28 -41
-14 2 -36 9 -50 15 -24 12 -25 17 -28 102 -2 50 2 99 8 110 8 15 5 41 -13 108
l-24 88 32 25 c33 25 97 52 127 53 16 1 15 -2 -3 -34z m1731 -16 c0 -12 -26
-59 -68 -122 -14 -21 -38 -45 -53 -53 -28 -14 -28 -14 -38 23 -23 89 -16 114
41 142 46 22 118 28 118 10z m119 -50 c19 -86 -54 -174 -162 -194 -31 -6 -37
-4 -37 10 0 23 173 236 183 226 5 -5 12 -24 16 -42z m-39 -211 c0 -43 -143
-148 -202 -148 -23 0 -24 42 -1 80 27 46 81 71 196 89 4 0 7 -9 7 -21z m20
-97 c0 -49 -30 -88 -78 -100 -56 -14 -122 -20 -122 -11 0 20 166 150 192 150
4 0 8 -17 8 -39z m-1845 -173 c-13 -78 -40 -113 -93 -124 l-32 -6 0 65 c0 83
20 107 88 107 l44 0 -7 -42z m1815 24 c0 -18 -102 -121 -136 -137 -43 -20 -50
-14 -60 53 -8 54 5 69 67 81 58 12 129 13 129 3z m-6 -189 c-16 -12 -144 -19
-144 -9 0 3 35 34 78 71 l77 66 3 -58 c2 -45 0 -60 -14 -70z m-1788 -15 c-4
-40 -12 -90 -18 -112 -15 -47 -68 -106 -97 -106 -19 0 -21 5 -21 64 0 54 3 66
21 78 19 12 20 17 10 37 -7 12 -10 29 -7 37 6 15 93 74 109 74 6 0 7 -29 3
-72z m1790 -46 c-25 -49 -102 -112 -136 -112 -26 0 -33 6 -46 35 -27 65 -23
70 69 87 45 8 92 16 105 17 22 1 22 0 8 -27z m14 -70 c0 -15 -27 -45 -37 -41
-16 6 3 49 22 49 8 0 15 -4 15 -8z"/>
<path d="M4423 10319 c-31 -38 -143 -379 -158 -483 -4 -25 -13 -46 -19 -46
-37 0 -74 -75 -96 -195 -7 -38 -18 -77 -24 -85 -7 -8 -20 -42 -30 -75 -10 -32
-48 -129 -83 -215 -87 -207 -116 -293 -169 -495 -67 -251 -108 -383 -173 -550
-49 -125 -100 -301 -89 -310 14 -11 117 -38 175 -45 121 -16 141 2 173 151 12
52 42 144 67 204 26 61 63 164 83 230 l37 120 164 -5 c231 -7 387 -6 509 4 89
7 110 6 137 -7 76 -40 142 -153 233 -402 72 -199 91 -245 106 -260 11 -11 23
-11 69 1 53 14 58 14 132 -12 124 -43 224 -30 231 29 2 17 -16 72 -48 145
-206 466 -217 497 -244 685 -19 125 -33 166 -81 218 -54 60 -73 108 -102 255
-24 121 -31 143 -71 205 -33 53 -43 75 -38 94 5 19 2 25 -9 25 -9 0 -18 8 -21
18 -3 9 -14 38 -25 64 -20 50 -25 98 -9 98 5 0 -1 15 -14 34 -13 19 -36 80
-51 135 -15 57 -35 107 -46 117 -10 9 -19 25 -19 34 0 19 -39 111 -93 220 -47
95 -67 104 -247 108 -114 3 -148 1 -157 -9z m177 -104 c33 -14 73 -25 89 -25
23 0 40 -12 76 -52 62 -69 78 -102 79 -167 l1 -54 -133 -44 -132 -45 -36 -54
c-45 -68 -111 -125 -188 -164 -78 -39 -90 -39 -82 3 6 33 38 67 63 67 12 0 11
3 -2 17 -14 13 -16 28 -11 66 7 64 24 88 83 122 52 30 93 64 93 77 0 4 -18 8
-40 8 -36 0 -40 2 -31 18 5 10 19 63 30 116 19 95 40 136 68 136 7 0 40 -11
73 -25z m190 -426 c-50 -51 -86 -79 -97 -77 -18 3 -63 63 -63 83 0 30 114 73
198 74 l43 1 -81 -81z m124 19 c8 -13 29 -60 47 -106 l32 -83 -34 -36 c-30
-31 -31 -34 -7 -19 33 22 64 8 75 -32 16 -59 9 -165 -15 -213 -27 -56 -96
-133 -114 -127 -8 3 -14 26 -16 66 l-3 61 53 27 c63 32 49 41 -33 24 -33 -7
-62 -10 -65 -7 -3 3 -1 22 5 44 6 21 11 46 11 56 0 16 -2 16 -29 3 -26 -14
-30 -14 -45 3 -19 21 -22 101 -4 119 9 9 9 12 0 12 -7 0 -25 12 -39 26 l-26
26 89 89 c49 49 92 89 96 89 4 0 14 -10 22 -22z m-424 -183 c0 -27 -40 -95
-81 -140 -40 -43 -208 -165 -227 -165 -28 0 -18 76 12 95 11 8 54 23 94 33 73
20 102 35 89 48 -4 4 -32 2 -63 -5 -30 -7 -58 -10 -61 -7 -10 10 27 44 110
101 81 55 127 69 127 40z m182 -187 c45 -90 88 -183 94 -208 7 -25 26 -75 43
-113 33 -74 71 -189 71 -217 0 -19 -37 -23 -355 -36 -124 -5 -156 -4 -187 9
-22 9 -38 23 -38 32 0 9 23 54 51 101 89 147 177 370 210 532 7 34 16 62 20
62 4 0 45 -73 91 -162z m-287 -45 c-3 -16 -17 -52 -30 -81 -28 -60 -57 -77
-150 -88 -56 -7 -57 -6 -46 14 6 11 48 47 93 80 46 33 92 69 102 81 26 29 39
26 31 -6z m707 -90 c38 -44 53 -176 25 -229 -20 -39 -56 -70 -89 -78 -21 -5
-30 -1 -42 16 -27 38 -19 52 47 86 61 32 61 32 22 27 -22 -4 -49 -9 -61 -11
-12 -3 -28 1 -37 10 -14 14 -9 24 44 106 33 49 63 90 68 90 4 0 15 -8 23 -17z
m-822 -143 c-43 -34 -211 -132 -217 -127 -7 8 24 98 43 125 14 20 23 22 107
22 l92 0 -25 -20z m10 -66 c0 -34 -96 -101 -116 -81 -14 14 11 46 54 70 55 31
62 32 62 11z m933 -159 c38 -134 41 -243 9 -302 -26 -50 -65 -73 -121 -73 -31
0 -43 5 -51 21 -7 11 -10 22 -8 23 2 2 35 20 75 40 39 21 79 46 89 57 17 19
16 19 -27 5 -24 -7 -68 -23 -97 -35 -29 -11 -71 -21 -93 -21 l-40 0 15 28 c8
15 53 72 100 126 47 54 86 102 86 107 0 5 -25 9 -55 9 -30 0 -55 4 -55 9 0 36
94 115 130 109 9 -2 25 -39 43 -103z m-1033 25 c0 -20 -79 -95 -139 -132 -54
-34 -60 -36 -66 -19 -8 25 10 100 28 118 33 33 177 60 177 33z m885 -100 c-10
-11 -21 -17 -24 -14 -3 3 3 12 13 20 28 20 32 17 11 -6z m-945 -75 l0 -45 -45
0 c-25 0 -45 3 -45 6 0 5 81 82 88 84 1 0 2 -20 2 -45z m715 -39 c19 -8 35
-22 35 -30 0 -20 -63 -71 -108 -85 -49 -16 -227 -27 -235 -14 -10 16 21 52 63
73 47 24 50 24 50 5 0 -21 1 -20 49 25 47 45 85 51 146 26z m-467 -43 c7 -43
-58 -73 -160 -73 -31 0 -59 4 -63 9 -7 12 38 44 116 81 55 26 66 28 84 16 11
-7 21 -22 23 -33z m161 -9 c-25 -27 -76 -54 -104 -54 -23 0 -18 28 10 55 19
20 35 25 71 25 l47 0 -24 -26z m-475 -7 c17 -13 16 -15 -14 -41 -18 -15 -50
-36 -71 -47 l-39 -19 0 28 c0 65 76 114 124 79z m864 -13 c-2 -9 -13 -23 -25
-32 -21 -13 -23 -13 -23 1 0 17 26 47 41 47 6 0 9 -7 7 -16z m386 -60 c3 -9 6
-41 6 -72 0 -119 -109 -241 -153 -171 -21 33 0 64 63 94 55 27 83 53 43 41
-54 -15 -110 -17 -121 -3 -14 16 -7 23 78 86 61 44 75 49 84 25z m-1256 -56
c-19 -28 -100 -71 -125 -66 -25 5 83 88 116 88 22 0 23 -1 9 -22z m-88 -157
c-25 -22 -57 -47 -72 -56 -27 -16 -28 -16 -28 6 0 13 14 38 32 56 26 27 40 33
72 33 l41 0 -45 -39z m1414 27 c17 -54 15 -80 -7 -102 -23 -22 -122 -54 -134
-43 -7 7 47 92 82 130 27 29 53 35 59 15z m56 -157 c0 -18 -112 -131 -130
-131 -14 0 -50 51 -50 71 0 24 36 47 97 64 68 19 83 18 83 -4z m96 -228 c8
-55 -9 -67 -87 -60 -37 3 -68 12 -80 23 -19 17 -19 18 23 62 30 31 37 43 23
39 -54 -16 -75 -18 -75 -10 0 19 35 57 79 84 l46 29 32 -64 c18 -36 35 -82 39
-103z m-1646 142 c0 -17 -37 -73 -73 -112 -32 -35 -38 -46 -27 -53 20 -12 -3
-60 -29 -60 -69 0 -10 194 69 223 20 7 60 8 60 2z"/>
<path d="M14560 10283 c-45 -94 -140 -408 -140 -459 0 -15 -9 -27 -27 -36 -36
-17 -67 -82 -83 -172 -6 -39 -18 -80 -25 -92 -7 -11 -19 -41 -25 -65 -7 -24
-52 -142 -101 -261 -49 -120 -105 -273 -123 -340 -117 -422 -150 -530 -204
-668 -62 -159 -92 -258 -92 -304 0 -22 7 -27 66 -46 67 -20 199 -30 222 -16
22 13 40 60 58 147 9 46 38 136 64 199 27 63 66 171 87 239 l38 123 165 -8
c208 -11 364 -11 507 0 111 9 113 9 151 -16 75 -50 138 -169 241 -457 29 -79
59 -157 67 -173 15 -30 17 -30 67 -23 73 11 101 9 166 -16 95 -36 204 -24 216
24 7 27 -6 62 -120 312 -113 250 -141 333 -170 505 -26 157 -46 210 -95 255
-45 40 -75 126 -100 285 -13 80 -25 109 -72 178 -22 31 -29 52 -26 73 3 22 1
29 -11 29 -23 0 -78 155 -62 174 9 11 6 22 -12 50 -14 19 -33 68 -42 108 -22
88 -42 138 -55 138 -6 0 -10 9 -10 19 0 10 -15 52 -34 92 -18 41 -43 97 -56
126 -46 104 -89 123 -281 123 l-127 0 -22 -47z m198 -68 c30 -14 66 -25 81
-25 43 0 135 -101 155 -170 29 -97 33 -92 -122 -145 -133 -45 -139 -48 -165
-89 -53 -84 -166 -173 -254 -200 -20 -7 -23 -4 -23 23 0 34 30 71 57 71 13 0
14 3 5 12 -7 7 -12 36 -12 64 0 64 25 98 105 143 30 17 59 40 65 51 10 18 8
20 -28 20 l-39 0 14 58 c7 31 18 83 24 115 11 61 36 97 67 97 9 0 41 -11 70
-25z m187 -425 c-44 -44 -87 -80 -96 -80 -17 0 -43 32 -59 74 -8 23 -5 27 38
47 51 25 97 36 157 38 l40 1 -80 -80z m157 -50 c20 -47 37 -94 37 -105 1 -10
-14 -34 -31 -53 l-33 -34 30 14 c62 30 85 -5 85 -127 0 -87 -27 -148 -94 -214
l-45 -44 -11 27 c-16 43 -12 101 8 118 9 9 35 24 57 34 51 22 26 30 -46 15
-27 -6 -55 -11 -61 -11 -10 0 -7 43 8 98 7 24 6 24 -23 8 -45 -23 -64 -5 -65
61 0 29 3 56 6 62 4 5 -3 13 -14 16 -12 4 -26 18 -32 31 -11 23 -6 31 73 110
46 46 91 83 99 82 8 -2 32 -41 52 -88z m-464 -137 c-18 -68 -97 -152 -221
-235 -78 -53 -85 -55 -93 -33 -20 50 30 95 125 114 36 7 66 20 77 33 l19 21
-37 -6 c-21 -4 -55 -10 -75 -13 l-38 -7 30 32 c43 46 172 131 200 131 22 0 23
-2 13 -37z m196 -179 c47 -93 86 -176 86 -183 0 -7 23 -70 51 -139 28 -69 53
-146 56 -172 l5 -47 -108 -7 c-365 -22 -434 -19 -460 19 -11 18 -7 29 33 95
92 149 179 364 219 542 10 43 21 75 25 70 4 -4 45 -84 93 -178z m-294 -27 c0
-13 -12 -48 -27 -78 -32 -62 -67 -84 -152 -95 -69 -9 -66 4 14 66 32 25 79 64
104 87 53 49 61 52 61 20z m735 -149 c33 -112 7 -205 -68 -242 -36 -17 -39
-17 -57 -1 -39 35 -33 53 32 86 33 17 58 33 55 36 -3 3 -29 0 -58 -6 -45 -10
-55 -9 -68 4 -11 11 -13 19 -6 29 6 7 27 40 49 72 57 87 65 95 87 84 10 -6 25
-34 34 -62z m-845 -85 c-41 -30 -225 -142 -227 -139 -7 7 29 106 48 130 19 25
25 26 112 26 90 0 91 0 67 -17z m0 -72 c0 -25 -68 -81 -97 -81 -13 0 -23 3
-23 8 0 18 34 54 68 72 47 24 52 24 52 1z m935 -142 c39 -126 45 -250 17 -306
-30 -58 -65 -83 -118 -83 -32 0 -46 5 -58 21 -14 20 -12 23 52 55 37 19 78 43
92 54 l25 20 -23 0 c-13 0 -54 -13 -90 -29 -65 -28 -92 -34 -140 -32 l-23 1
29 43 c17 23 64 80 106 127 41 47 76 88 76 93 0 4 -25 7 -55 7 -40 0 -55 4
-55 14 0 33 83 106 121 106 11 0 24 -26 44 -91z m-1042 -11 c-20 -34 -87 -90
-154 -127 l-39 -22 0 39 c0 100 46 138 168 141 l44 1 -19 -32z m907 -73 c0 -2
-9 -9 -20 -15 -16 -9 -18 -8 -14 5 5 13 34 22 34 10z m-960 -80 l0 -45 -47 0
-47 0 44 45 c24 25 45 45 47 45 2 0 3 -20 3 -45z m711 -36 c49 -17 54 -25 35
-53 -33 -52 -141 -86 -267 -86 -67 0 -70 1 -67 23 2 15 19 31 53 49 59 32 65
33 65 12 0 -12 14 -4 45 25 48 44 75 50 136 30z m-480 -9 c12 -7 19 -21 19
-40 0 -44 -34 -61 -135 -68 -115 -7 -114 11 3 72 101 53 88 49 113 36z m193
-41 c-22 -24 -86 -59 -109 -59 -24 0 -17 37 11 59 18 14 41 21 72 21 l45 0
-19 -21z m-475 -14 c17 -17 -67 -83 -111 -88 -19 -2 -22 2 -20 23 5 37 28 68
54 73 22 4 69 -1 77 -8z m861 -1 c0 -16 -23 -44 -35 -44 -18 0 -20 21 -3 38
12 12 38 17 38 6z m381 -81 c39 -100 -60 -279 -137 -249 -11 4 -14 17 -12 43
3 35 7 40 56 64 63 31 90 55 52 46 -78 -17 -117 -19 -123 -4 -3 8 5 24 18 37
29 27 117 89 128 89 4 1 12 -11 18 -26z m-1267 -54 c-30 -32 -80 -59 -110 -59
-15 0 -14 4 7 26 33 37 79 64 108 64 l25 0 -30 -31z m-63 -133 c-33 -35 -107
-86 -115 -79 -13 13 -5 33 28 67 27 29 41 36 71 36 l38 0 -22 -24z m1399 5
c17 -32 12 -79 -11 -100 -19 -18 -89 -41 -124 -41 -20 0 -13 13 49 98 48 65
68 75 86 43z m60 -149 c0 -10 -29 -44 -65 -76 -72 -63 -93 -64 -113 -6 -10 26
-8 33 10 50 12 11 24 20 27 20 3 1 29 7 56 15 69 19 85 18 85 -3z m56 -131
c32 -65 43 -139 23 -152 -34 -21 -169 2 -169 29 0 5 12 19 26 33 14 13 30 32
36 42 8 17 7 18 -14 12 -12 -4 -31 -9 -40 -11 -46 -13 5 55 72 98 30 19 31 18
66 -51z m-1616 31 c0 -9 -23 -46 -51 -81 -35 -43 -48 -66 -40 -70 20 -13 -8
-63 -33 -59 -53 8 -14 170 51 210 37 23 73 23 73 0z"/>
<path d="M9260 6068 c-178 -179 -326 -330 -327 -335 -2 -6 544 -561 652 -661
10 -10 675 639 675 659 0 8 -39 53 -87 99 -49 46 -164 158 -258 249 -93 91
-206 200 -250 241 l-80 75 -325 -327z"/>
<path d="M7460 6180 c-204 -12 -414 -31 -450 -40 -19 -6 -73 -10 -120 -11 -47
0 -110 -5 -140 -10 -30 -6 -109 -14 -175 -18 -274 -19 -422 -32 -455 -41 -19
-6 -73 -10 -120 -11 -47 0 -107 -5 -135 -10 -27 -6 -106 -14 -175 -19 -254
-16 -426 -31 -454 -40 -16 -6 -70 -10 -120 -11 -50 0 -113 -5 -141 -11 -27 -5
-106 -13 -175 -18 -225 -13 -414 -30 -457 -40 -23 -6 -77 -10 -120 -11 -43 0
-105 -5 -138 -10 -33 -6 -114 -14 -180 -18 -271 -19 -412 -32 -452 -41 -23 -6
-77 -10 -120 -11 -43 0 -105 -5 -138 -11 -33 -5 -114 -13 -180 -18 -270 -17
-431 -32 -440 -41 -6 -6 -6 -12 0 -18 10 -9 217 -27 450 -41 66 -3 127 -10
136 -14 9 -4 76 -11 150 -16 216 -14 389 -29 462 -40 37 -6 110 -10 163 -10
52 0 104 -5 115 -10 10 -6 83 -15 162 -20 78 -5 212 -17 297 -25 85 -9 218
-18 295 -21 77 -4 145 -10 151 -15 6 -5 67 -11 135 -14 68 -3 147 -10 174 -15
49 -10 207 -24 460 -41 72 -4 155 -13 185 -18 30 -5 97 -10 148 -10 51 -1 102
-5 112 -11 17 -9 127 -19 450 -40 69 -5 148 -13 175 -19 28 -5 96 -10 153 -10
57 -1 112 -5 122 -11 18 -10 246 -29 437 -37 112 -5 112 -5 227 91 130 109
176 146 182 146 4 0 35 25 69 55 35 30 67 55 72 55 4 0 28 18 51 40 24 22 48
40 53 40 5 0 9 9 9 20 0 11 -4 20 -8 20 -5 0 -22 12 -38 26 -16 14 -56 46 -89
72 -33 25 -66 52 -73 59 -8 7 -30 26 -50 40 -21 15 -60 47 -88 70 -29 24 -65
53 -82 66 -17 12 -50 39 -74 59 -52 44 -63 46 -208 38z"/>
<path d="M11545 6160 c-16 -15 -37 -31 -46 -36 -9 -5 -38 -28 -65 -50 -40 -34
-129 -107 -179 -146 -5 -4 -32 -26 -60 -48 -27 -22 -78 -61 -112 -87 -35 -27
-63 -54 -63 -61 0 -16 39 -51 57 -52 7 0 16 -6 20 -13 4 -8 35 -35 68 -61 33
-27 69 -56 80 -65 11 -9 38 -30 60 -46 22 -16 67 -53 101 -82 34 -29 65 -53
70 -53 5 0 28 -19 52 -41 l42 -41 113 5 c182 8 410 27 441 37 16 6 70 10 120
11 50 0 114 5 141 11 28 5 106 14 175 18 298 19 437 31 464 40 16 6 68 10 115
11 47 0 111 5 141 10 30 6 109 14 175 18 274 18 432 33 459 41 16 6 70 10 120
11 50 0 116 5 146 10 30 6 109 14 175 18 274 18 432 33 459 41 16 6 70 10 120
11 50 0 118 5 151 10 33 6 114 14 180 18 281 19 432 33 459 41 16 6 70 10 120
11 50 0 116 5 146 10 30 5 114 14 185 18 207 14 408 31 433 37 13 2 22 10 19
17 -2 8 -41 15 -108 19 -57 4 -140 12 -185 18 -44 5 -119 10 -166 10 -48 0
-99 5 -114 10 -15 6 -88 15 -163 20 -75 5 -206 16 -291 25 -85 8 -207 18 -270
21 -63 3 -133 9 -155 15 -22 5 -98 14 -170 19 -71 5 -204 16 -295 25 -91 9
-226 20 -300 25 -74 5 -160 13 -190 18 -30 6 -93 11 -139 11 -46 1 -100 5
-120 11 -35 9 -205 25 -451 41 -69 4 -150 12 -180 18 -30 5 -90 10 -133 10
-43 1 -97 5 -120 11 -43 10 -233 26 -457 39 -69 4 -131 10 -138 15 -6 4 -76
11 -155 16 -158 10 -340 26 -462 40 -44 6 -127 11 -185 13 -100 3 -105 2 -135
-23z"/>
<path d="M8535 6010 c-4 -6 -30 -28 -58 -50 -109 -84 -180 -140 -219 -175 -22
-19 -44 -35 -49 -35 -12 0 1 -32 20 -50 9 -9 34 -29 56 -45 22 -17 68 -52 102
-80 34 -27 83 -67 110 -87 l47 -37 34 20 c19 11 55 37 81 58 25 20 90 72 144
115 53 42 97 83 97 89 0 7 -8 17 -17 23 -27 17 -181 140 -242 192 -66 58 -97
76 -106 62z"/>
<path d="M10590 5975 c-19 -19 -39 -35 -45 -35 -5 0 -30 -19 -55 -41 -25 -22
-56 -48 -70 -57 -59 -39 -120 -96 -120 -113 0 -15 67 -79 83 -79 3 0 21 -14
39 -31 18 -17 51 -43 73 -57 22 -15 56 -41 75 -59 49 -45 75 -49 119 -18 82
58 107 78 136 103 17 15 58 49 93 75 36 28 62 56 62 66 0 16 -70 79 -213 191
-18 13 -50 39 -71 57 -22 18 -47 33 -56 33 -9 0 -31 -16 -50 -35z"/>
</g>
</svg>
