<?xml version="1.0" standalone="no"?>
<!DOCTYPE svg PUBLIC "-//W3C//DTD SVG 20010904//EN"
 "http://www.w3.org/TR/2001/REC-SVG-20010904/DTD/svg10.dtd">
<svg version="1.0" xmlns="http://www.w3.org/2000/svg"
 width="1920.000000pt" height="440.000000pt" viewBox="0 0 1920.000000 440.000000"
 preserveAspectRatio="xMidYMid meet">

<g transform="translate(0.000000,440.000000) scale(0.100000,-0.100000)"
fill="#000000" stroke="none">
<path d="M13553 3538 l-53 -10 0 -91 c0 -51 -7 -148 -15 -217 -23 -184 -20
-344 6 -460 35 -155 35 -333 -1 -960 -19 -331 -23 -641 -11 -795 7 -82 14
-157 17 -167 12 -40 250 -51 336 -15 44 19 58 42 58 99 0 24 12 113 26 198 31
194 32 382 4 797 -30 443 -35 607 -20 691 7 46 17 75 27 79 8 3 29 -9 50 -28
88 -84 316 -415 412 -596 32 -63 77 -128 117 -173 44 -48 77 -99 103 -154 35
-76 77 -126 106 -126 12 0 29 -31 88 -160 50 -109 88 -157 137 -171 29 -9 40
-18 40 -32 0 -10 9 -21 19 -24 12 -3 23 -17 27 -37 13 -60 44 -105 121 -173
43 -37 100 -90 127 -116 44 -42 60 -51 131 -68 44 -10 110 -22 148 -25 79 -8
79 -8 47 93 -14 47 -22 118 -31 285 -14 261 -7 516 21 783 25 242 25 464 0
725 -11 113 -23 268 -26 345 -3 77 -12 173 -21 213 -14 66 -12 136 4 178 2 7
-4 21 -15 32 -37 37 -262 37 -322 0 -32 -20 -40 -55 -50 -211 -5 -84 -12 -179
-15 -213 -4 -42 -1 -81 10 -125 15 -57 16 -117 12 -554 -3 -269 -9 -508 -14
-529 -4 -22 -14 -41 -22 -44 -23 -8 -147 132 -302 338 -215 287 -290 401 -363
551 -85 176 -164 306 -459 755 l-67 102 -75 11 c-89 13 -238 13 -312 -1z m117
-122 l24 -14 -34 -21 c-44 -27 -48 -26 -56 3 -11 45 17 59 66 32z m129 -53
c-48 -62 -183 -202 -190 -197 -52 32 96 214 173 214 28 0 29 -2 17 -17z m101
-22 c5 -11 10 -24 10 -30 0 -9 -118 -81 -134 -81 -11 0 22 57 55 95 35 40 54
44 69 16z m1550 -26 c9 -11 11 -34 7 -75 -10 -90 -16 -106 -44 -119 -20 -9
-23 -15 -14 -24 8 -8 -4 -26 -51 -74 -34 -35 -68 -63 -75 -63 -9 0 -13 20 -13
70 l0 70 30 0 31 0 -21 28 c-33 44 -40 94 -23 152 l15 50 73 0 c53 0 76 -4 85
-15z m-1460 -137 c11 -18 20 -36 20 -40 0 -8 -387 -198 -404 -198 -17 0 72 86
159 155 84 66 161 110 198 114 4 1 16 -14 27 -31z m-237 -57 c-105 -67 -141
-86 -150 -78 -24 24 55 89 130 107 79 19 84 11 20 -29z m354 -104 c105 -109
223 -307 223 -374 0 -29 -4 -33 -37 -42 -54 -15 -113 -14 -113 2 0 7 7 37 16
66 8 29 14 62 12 74 -3 19 -8 16 -37 -25 -19 -27 -39 -44 -46 -41 -28 10 -64
79 -70 134 -6 51 -9 56 -38 65 -24 7 -41 24 -64 64 -18 30 -33 59 -33 65 0 11
98 75 116 75 6 0 38 -28 71 -63z m1333 -13 c0 -22 -154 -214 -171 -214 -5 0
-9 17 -9 38 0 33 7 44 77 109 69 64 103 86 103 67z m-1664 -187 c13 -39 14
-54 4 -77 -15 -36 -126 -143 -143 -137 -8 2 -13 41 -15 135 l-3 131 68 35 68
34 3 -37 c2 -20 10 -58 18 -84z m1664 -34 c0 -81 -4 -85 -69 -62 -45 16 -39
56 22 143 19 27 21 28 34 10 8 -11 13 -46 13 -91z m-24 -118 l26 -17 -63 -64
c-35 -35 -69 -64 -76 -64 -34 0 -46 90 -17 139 18 31 22 33 61 28 24 -2 55
-12 69 -22z m-1046 -95 c0 -19 -31 -84 -43 -92 -25 -16 -46 -7 -67 27 -12 19
-19 39 -15 45 14 22 125 40 125 20z m1105 -20 c26 -28 13 -62 -37 -96 l-43
-29 43 -3 c40 -3 42 -5 42 -35 0 -41 -46 -121 -99 -172 -25 -23 -41 -48 -41
-62 0 -42 22 -28 101 66 35 40 61 42 50 3 -11 -36 -52 -117 -85 -165 -32 -47
-32 -49 0 -37 48 19 54 14 54 -40 l0 -50 -80 0 c-78 0 -91 5 -69 27 12 12 -4
53 -20 53 -19 0 -31 66 -26 140 12 164 15 178 46 216 33 41 36 54 14 54 -22 0
-18 21 11 65 28 43 79 85 105 85 9 0 24 -9 34 -20z m-1705 -13 c0 -16 -32 -46
-81 -75 -45 -27 -49 -27 -49 -3 0 30 41 72 80 81 50 11 50 11 50 -3z m661 -90
c61 -41 64 -101 7 -121 -38 -13 -76 0 -93 34 -22 42 -19 66 11 89 33 26 34 26
75 -2z m-661 -17 c0 -43 -95 -109 -107 -74 -5 15 45 74 71 84 32 13 36 12 36
-10z m10 -143 c0 -27 -42 -86 -82 -117 l-28 -21 -10 26 c-20 53 -22 75 -9 92
18 21 67 42 102 43 22 0 27 -4 27 -23z m750 -1 c0 -32 -17 -76 -37 -99 -16
-16 -17 -16 -40 5 -15 14 -23 33 -23 54 0 33 12 49 45 57 45 11 55 7 55 -17z
m81 -66 c43 -24 73 -120 58 -191 -18 -81 -65 -102 -87 -39 -11 29 -10 32 23
52 43 24 44 32 6 25 -39 -8 -99 10 -106 32 -6 19 60 131 77 131 5 0 18 -5 29
-10z m-820 -53 c9 -33 -14 -63 -55 -73 -28 -7 -29 -6 -22 21 9 34 47 86 60 82
5 -2 13 -15 17 -30z m-21 -125 c0 -4 -30 -37 -66 -72 l-66 -65 7 45 c4 25 14
53 23 63 21 24 102 47 102 29z m1042 -137 c35 -69 67 -125 73 -125 6 0 27 -14
48 -31 62 -51 44 -98 -43 -113 -53 -9 -67 4 -54 53 10 38 10 40 -8 30 -10 -6
-31 -9 -46 -7 -25 3 -27 6 -25 51 1 45 0 48 -28 54 -44 8 -54 28 -52 100 2 71
22 113 53 113 16 0 34 -28 82 -125z m-1012 35 c0 -64 -47 -110 -112 -110 -16
0 -17 3 -7 23 13 26 100 117 111 117 4 0 8 -14 8 -30z m1640 -70 c0 -5 -16
-28 -36 -50 l-36 -40 48 0 48 0 -29 -30 c-31 -32 -100 -70 -128 -70 -15 0 -17
13 -17 100 l0 100 75 0 c43 0 75 -4 75 -10z m-1745 -160 c-45 -46 -51 -49 -62
-33 -11 14 -18 53 -10 53 1 0 20 7 42 15 77 27 84 20 30 -35z m113 -16 c21
-68 -24 -124 -99 -124 -23 0 -24 10 -3 58 14 34 70 102 84 102 4 0 12 -16 18
-36z m1653 -18 c9 -221 -60 -389 -173 -426 -67 -21 -71 -11 -23 60 52 78 97
161 91 168 -15 14 -89 -17 -171 -72 l-93 -64 -46 47 c-25 26 -46 50 -46 54 0
9 101 67 118 67 7 0 18 -11 24 -25 9 -20 16 -23 37 -18 39 9 68 40 111 118 46
83 67 105 112 114 43 10 58 4 59 -23z m-439 -48 c3 -29 7 -32 33 -33 25 0 30
-4 33 -28 4 -33 -13 -49 -75 -71 l-43 -15 0 42 c0 32 -3 38 -12 29 -20 -20
-47 -14 -54 13 -7 30 7 50 55 75 50 27 59 25 63 -12z m-1288 -120 c-3 -12 -20
-51 -36 -87 -22 -48 -31 -84 -32 -131 -2 -36 -6 -73 -10 -82 -7 -16 -5 -17 25
-6 19 6 50 22 69 35 44 30 50 29 50 -5 0 -39 -25 -58 -86 -66 -106 -13 -130
21 -121 174 4 61 12 111 22 130 17 33 63 59 103 60 20 0 22 -4 16 -22z m96
-35 c-1 -27 -34 -96 -56 -114 -10 -9 -29 -20 -41 -23 -29 -9 -30 12 -4 70 29
63 101 111 101 67z m1429 -103 c-18 -51 -155 -157 -176 -136 -13 13 12 64 49
99 39 38 115 79 130 71 4 -3 2 -18 -3 -34z m181 -145 c0 -50 -64 -105 -121
-105 -20 0 -16 8 36 60 59 60 85 73 85 45z m-180 -49 c0 -18 -38 -46 -62 -46
-25 0 -22 26 4 44 28 20 58 21 58 2z m-1490 -70 c0 -7 -29 -41 -65 -75 -50
-46 -73 -61 -95 -61 -25 0 -30 4 -30 25 0 44 26 91 56 103 64 25 134 29 134 8z
m1668 -67 c-3 -27 -9 -54 -14 -59 -5 -5 -30 -4 -56 2 -41 10 -48 15 -48 35 0
19 10 29 53 48 28 13 56 24 61 24 5 1 6 -22 4 -50z"/>
<path d="M7140 3524 c-466 -44 -780 -187 -1008 -458 -129 -152 -143 -182 -182
-381 -12 -60 -31 -131 -41 -156 -19 -42 -20 -64 -15 -325 3 -153 9 -345 13
-425 8 -144 8 -146 50 -230 23 -46 87 -154 143 -239 55 -85 108 -172 118 -192
15 -34 20 -37 48 -32 18 3 42 0 55 -6 29 -16 198 -149 259 -206 107 -98 194
-117 550 -118 280 0 351 7 422 46 35 20 38 20 78 4 36 -14 53 -15 123 -6 87
12 191 47 238 80 16 12 41 42 56 68 l28 47 3 531 c2 451 1 533 -11 543 -24 19
-157 27 -432 26 l-260 -2 -18 -34 c-15 -28 -17 -52 -15 -139 6 -165 37 -201
178 -205 125 -3 129 -9 160 -220 24 -167 25 -254 5 -322 -27 -89 -17 -87 -317
-80 -281 7 -550 33 -641 63 -140 46 -245 154 -318 324 -69 163 -99 321 -99
530 0 248 36 424 124 605 89 182 210 296 417 394 298 141 387 148 804 66 295
-58 333 -57 361 11 21 50 20 200 0 223 -9 10 -16 24 -16 33 0 22 -130 78 -180
78 -27 0 -43 5 -46 15 -5 11 -24 15 -79 15 -63 0 -74 3 -80 19 -13 41 -122 62
-310 59 -71 -1 -146 -3 -165 -4z m-245 -156 c-4 -18 -17 -52 -29 -75 l-21 -42
-47 35 c-27 19 -48 39 -48 45 0 11 116 69 138 69 10 0 12 -9 7 -32z m221 -10
c-8 -50 -16 -61 -39 -52 -18 6 -57 64 -57 83 0 7 20 11 51 11 l52 0 -7 -42z
m-127 -15 c20 -70 10 -110 -33 -145 -21 -18 -56 -24 -56 -10 0 13 40 174 46
183 12 21 34 6 43 -28z m399 15 c-4 -31 -23 -33 -36 -3 -11 23 -10 25 14 25
20 0 25 -4 22 -22z m-144 -10 c8 -13 17 -33 21 -45 6 -21 3 -23 -35 -23 l-42
0 7 37 c11 61 24 69 49 31z m286 -54 c15 -39 13 -44 -20 -44 -32 0 -38 16 -20
51 15 26 29 24 40 -7z m-863 -55 c10 -44 10 -56 -2 -68 -11 -12 -19 -10 -48 8
-45 28 -53 27 -28 -5 29 -37 45 -99 31 -124 -13 -24 -25 -19 -50 22 l-18 29
-7 -28 c-15 -63 -49 -125 -72 -134 -29 -11 -50 -3 -88 32 l-30 29 3 -39 c2
-21 -2 -49 -8 -62 -13 -23 -7 -32 40 -59 12 -7 11 -16 -9 -59 -31 -64 -46 -70
-87 -30 -27 26 -35 29 -39 17 -4 -9 1 -32 9 -53 25 -59 21 -84 -15 -97 -28
-10 -30 -13 -24 -44 l6 -33 -42 14 c-56 20 -57 19 -27 -12 27 -30 48 -65 48
-82 0 -16 -195 -15 -207 2 -27 33 -21 63 37 210 70 175 90 211 163 292 l54 60
83 5 c93 6 112 20 50 39 -22 6 -40 16 -40 21 0 13 112 110 127 110 7 0 22 -14
32 -31 l20 -32 15 38 c9 20 16 41 16 46 0 15 71 80 83 76 7 -2 17 -28 24 -58z
m1234 -16 c12 -19 19 -37 16 -40 -13 -12 -93 -13 -116 -1 -37 20 -36 36 5 73
36 33 39 34 56 18 10 -9 28 -32 39 -50z m-1116 12 c56 -32 64 -54 30 -82 -32
-28 -61 -29 -75 -4 -11 22 -14 111 -3 111 3 0 25 -11 48 -25z m-655 -848 c0
-8 12 -24 26 -38 32 -29 54 -78 54 -119 0 -30 0 -30 -57 -30 -55 0 -58 -1 -58
-25 0 -22 4 -25 38 -25 71 0 77 -9 77 -110 0 -50 -3 -90 -7 -90 -5 0 -16 -7
-26 -14 -17 -14 -17 -16 8 -67 23 -45 25 -55 14 -76 -16 -30 1 -88 78 -263
111 -251 153 -320 197 -320 31 0 85 -42 96 -75 6 -16 27 -44 48 -61 l37 -32
-36 -17 c-35 -17 -39 -17 -92 0 -74 23 -135 79 -318 289 -124 142 -149 175
-154 210 -4 23 -13 51 -21 63 -9 15 -14 52 -14 111 0 62 -6 106 -20 146 -26
75 -17 99 44 116 59 16 79 38 30 32 -21 -3 -44 2 -60 13 -24 16 -25 20 -19 75
6 52 4 61 -14 77 -19 16 -21 28 -21 121 0 97 1 103 23 112 36 15 147 12 147
-3z m1555 -423 c-43 -33 -167 -96 -199 -101 -46 -7 -51 8 -21 67 l25 50 108 0
c98 -1 105 -2 87 -16z m283 4 c26 -26 5 -304 -29 -398 -24 -65 -60 -106 -107
-119 -28 -8 -32 -7 -32 9 0 10 16 28 38 41 l37 24 -37 3 c-51 4 -49 22 11 85
92 99 92 117 1 117 -84 0 -88 8 -35 90 55 88 50 91 -74 48 -77 -26 -84 -11
-25 56 l49 56 96 0 c61 0 99 -4 107 -12z m-318 -71 c0 -8 -89 -67 -100 -67
-18 0 8 29 45 52 27 16 55 24 55 15z m197 -234 c-23 -32 -44 -49 -61 -51 -24
-3 -25 -2 -16 29 5 18 14 37 19 42 8 8 56 22 84 26 5 1 -7 -20 -26 -46z m103
-238 c0 -49 -68 -115 -117 -115 -33 0 -31 38 2 46 13 3 29 12 36 20 9 11 7 14
-10 14 -29 0 -17 18 23 36 42 18 66 17 66 -1z m0 -165 l0 -50 -60 0 c-59 0
-60 0 -60 28 0 25 6 30 58 49 31 12 58 22 60 22 1 1 2 -21 2 -49z m10 -161
c-12 -63 -21 -67 -90 -34 -33 16 -60 35 -60 42 0 20 37 32 101 32 l56 1 -7
-41z m-1159 -89 c19 -11 19 -12 -3 -51 -23 -40 -23 -40 -76 -36 -37 2 -60 10
-74 25 -21 21 -21 22 -4 41 16 18 40 24 114 29 13 1 32 -3 43 -8z m1111 -9
c19 -7 19 -8 4 -24 -36 -36 -188 -49 -218 -19 -15 15 6 39 46 52 32 10 132 5
168 -9z m-932 -1 c0 -6 -6 -26 -14 -45 -11 -26 -23 -36 -53 -44 -55 -16 -63
-14 -63 15 0 34 17 63 43 74 31 12 87 12 87 0z m92 -10 c43 -12 68 -42 68 -81
0 -21 -4 -26 -22 -23 -13 2 -44 6 -70 9 -42 5 -48 9 -48 30 0 26 19 75 29 75
3 0 23 -5 43 -10z m391 -36 c119 -4 167 -9 164 -18 -2 -7 -53 -13 -148 -17
-79 -3 -164 -11 -188 -18 -71 -19 -110 -4 -125 47 -7 22 -6 22 61 17 37 -3
144 -8 236 -11z"/>
<path d="M17220 3524 c-458 -43 -775 -184 -998 -444 -133 -155 -154 -198 -192
-395 -12 -60 -31 -131 -41 -156 -19 -42 -20 -64 -15 -325 3 -153 9 -345 13
-425 8 -144 8 -146 50 -230 23 -46 85 -151 138 -232 53 -82 106 -168 118 -193
20 -42 23 -44 54 -38 26 5 42 0 76 -21 49 -33 170 -130 244 -197 104 -94 185
-111 543 -112 280 -1 351 7 422 46 35 20 38 20 78 4 36 -14 53 -15 122 -6 112
16 213 55 259 101 68 68 69 77 69 651 l0 509 -37 16 c-32 13 -89 16 -353 16
l-315 1 -18 -35 c-15 -28 -17 -52 -15 -139 6 -165 37 -201 178 -205 125 -3
128 -8 160 -226 24 -160 25 -248 5 -316 -26 -89 -17 -87 -312 -80 -289 6 -562
34 -658 67 -185 64 -316 257 -383 564 -13 64 -17 128 -16 301 0 201 2 230 26
331 78 331 224 518 509 653 57 27 147 64 199 83 90 31 101 33 230 32 116 -1
164 -7 340 -42 333 -66 367 -66 396 3 20 48 19 208 -1 225 -8 7 -15 20 -15 30
0 24 -127 80 -180 80 -27 0 -43 5 -46 15 -5 11 -24 15 -79 15 -63 0 -74 3 -80
19 -13 41 -122 62 -310 59 -71 -1 -146 -3 -165 -4z m-247 -156 c-3 -18 -15
-52 -27 -75 l-21 -42 -47 35 c-27 19 -48 39 -48 45 0 10 116 69 137 69 9 0 11
-10 6 -32z m227 13 c0 -24 -20 -81 -29 -81 -20 0 -71 63 -71 87 0 9 16 13 50
13 42 0 50 -3 50 -19z m-136 -18 c24 -83 14 -139 -30 -168 -25 -16 -54 -20
-54 -7 0 13 40 174 46 183 9 15 32 10 38 -8z m406 8 c0 -16 -12 -41 -19 -41
-4 0 -13 11 -19 25 -11 23 -10 25 13 25 14 0 25 -4 25 -9z m-146 -23 c8 -13
17 -33 21 -45 6 -21 3 -23 -34 -23 -45 0 -51 13 -31 64 12 32 25 33 44 4z
m286 -54 c15 -39 13 -44 -20 -44 -32 0 -38 16 -20 51 15 26 29 24 40 -7z
m-864 -55 c10 -44 10 -56 -1 -68 -11 -12 -19 -10 -48 8 -46 28 -52 27 -29 -6
31 -45 45 -98 32 -123 -13 -24 -25 -19 -50 22 l-18 29 -7 -28 c-15 -61 -47
-121 -71 -131 -30 -14 -50 -7 -89 29 l-30 29 3 -39 c2 -21 -2 -49 -8 -62 -13
-23 -7 -32 39 -59 13 -7 12 -14 -3 -49 -11 -22 -27 -48 -38 -57 -18 -17 -20
-16 -51 14 -18 18 -36 32 -40 32 -12 0 -8 -35 8 -73 23 -56 20 -76 -16 -89
-28 -10 -30 -13 -24 -44 l6 -33 -42 14 c-56 20 -57 19 -27 -12 27 -30 48 -65
48 -82 0 -16 -195 -15 -208 2 -27 34 -23 58 38 210 67 170 93 216 167 297 l51
55 83 5 c92 6 111 20 49 39 -22 6 -40 16 -40 21 0 13 112 110 127 110 7 0 22
-14 33 -32 l19 -32 11 30 c26 72 35 86 64 109 17 14 35 23 40 22 6 -2 15 -28
22 -58z m1235 -16 c12 -19 19 -37 16 -40 -13 -12 -93 -13 -116 -1 -37 20 -36
36 4 74 36 33 38 34 57 18 10 -10 28 -33 39 -51z m-1122 16 c21 -11 43 -30 50
-42 12 -19 11 -23 -13 -44 -30 -25 -61 -30 -73 -10 -12 19 -20 117 -10 117 5
0 26 -9 46 -21z m-645 -864 c3 -13 15 -29 26 -35 24 -13 50 -71 50 -111 0 -29
-1 -29 -57 -29 -55 0 -58 -1 -58 -25 0 -22 4 -25 38 -25 71 0 77 -9 77 -110 0
-50 -3 -90 -7 -90 -5 0 -16 -7 -26 -14 -17 -14 -17 -17 9 -67 21 -42 24 -57
15 -71 -6 -10 -11 -27 -11 -38 0 -51 193 -476 237 -522 15 -16 36 -28 47 -28
30 0 86 -42 92 -70 3 -14 25 -41 47 -62 l42 -36 -36 -17 c-35 -17 -40 -17 -94
0 -74 24 -127 72 -316 289 -124 142 -149 175 -154 210 -4 23 -13 51 -21 63 -9
15 -14 52 -14 111 0 62 -6 106 -20 146 -26 75 -17 99 44 116 59 16 79 38 30
32 -21 -3 -44 2 -60 13 -25 16 -26 20 -20 76 6 51 4 61 -14 76 -18 15 -20 29
-20 121 0 119 1 120 106 121 58 1 62 -1 68 -24z m1566 -399 c0 -13 -187 -109
-220 -113 -48 -7 -49 0 -15 67 l25 50 105 0 c58 0 105 -2 105 -4z m271 -12
c10 -12 10 -46 2 -172 -16 -227 -53 -316 -141 -341 -28 -8 -32 -7 -32 9 0 10
16 28 38 41 l37 24 -37 3 c-50 4 -49 21 5 80 99 107 100 122 7 122 -84 0 -88
8 -35 90 55 88 50 91 -74 48 -77 -26 -84 -11 -25 56 l48 56 97 0 c75 0 99 -3
110 -16z m-321 -67 c0 -8 -89 -67 -100 -67 -18 0 8 29 45 52 27 16 55 24 55
15z m193 -237 c-44 -60 -82 -70 -75 -20 2 16 10 35 18 41 12 10 56 24 87 28 4
1 -9 -21 -30 -49z m107 -235 c0 -49 -68 -115 -117 -115 -33 0 -31 38 2 46 13
3 29 12 36 20 9 11 7 14 -10 14 -29 0 -17 18 23 36 42 18 66 17 66 -1z m0
-165 l0 -50 -60 0 c-59 0 -60 1 -60 28 0 23 7 30 53 49 28 11 55 21 60 22 4 1
7 -21 7 -49z m10 -144 c0 -35 -17 -76 -32 -76 -21 0 -121 54 -121 65 0 18 47
35 101 35 48 0 52 -2 52 -24z m-1159 -106 c19 -11 19 -12 -3 -51 -23 -40 -23
-40 -76 -36 -37 2 -60 10 -74 25 -21 21 -21 22 -4 41 16 18 40 24 114 29 13 1
32 -3 43 -8z m1111 -9 c19 -7 19 -8 4 -24 -36 -36 -188 -49 -218 -19 -15 15 6
39 46 52 32 10 132 5 168 -9z m-932 -1 c0 -6 -6 -26 -14 -45 -11 -26 -23 -36
-53 -44 -63 -18 -74 -15 -67 17 10 42 23 62 47 72 31 12 87 12 87 0z m92 -10
c43 -12 68 -42 68 -81 0 -21 -4 -26 -22 -23 -13 2 -44 6 -70 9 -42 5 -48 9
-48 30 0 26 19 75 29 75 3 0 23 -5 43 -10z m391 -36 c142 -5 166 -8 156 -20
-9 -11 -42 -14 -141 -14 -77 0 -138 -5 -150 -11 -12 -6 -45 -12 -74 -13 -57
-1 -76 10 -89 52 -6 22 -5 22 62 17 37 -3 144 -8 236 -11z"/>
<path d="M8475 3493 c-32 -8 -65 -44 -65 -73 0 -14 -15 -57 -33 -95 -40 -83
-49 -115 -38 -133 15 -24 84 -32 306 -32 257 -1 408 -13 443 -36 l24 -16 -7
-1094 -8 -1095 24 -25 c44 -48 76 -58 136 -44 42 9 64 9 102 -1 26 -6 60 -9
74 -5 52 13 60 41 70 250 15 290 14 896 -2 1326 -11 295 -12 413 -3 505 13
148 16 155 56 155 17 0 95 13 173 30 81 16 224 36 330 45 104 9 198 18 209 21
29 5 49 85 41 166 -9 102 2 98 -301 98 -144 0 -400 4 -571 10 -170 5 -426 12
-567 16 -210 5 -258 9 -258 20 0 10 -15 14 -57 13 -32 -1 -67 -3 -78 -6z m194
-121 l114 -28 -27 -22 c-32 -25 -66 -32 -156 -35 l-65 -2 -3 58 c-2 42 0 57
10 57 7 -1 64 -13 127 -28z m369 -11 c24 -15 9 -44 -26 -53 -18 -5 -76 -7
-130 -6 l-97 3 35 19 c73 40 184 59 218 37z m451 -28 c-19 -51 -92 -113 -133
-113 -10 0 -16 13 -18 38 l-4 37 -16 -35 c-8 -19 -19 -56 -22 -82 -7 -45 -6
-48 22 -62 27 -14 29 -18 22 -50 -9 -40 -40 -86 -78 -116 -35 -28 -38 -13 -11
50 20 46 21 57 11 101 -14 61 -15 139 -2 173 5 14 21 33 36 43 29 18 119 41
171 42 31 1 32 0 22 -26z m-228 -1 c-27 -51 -107 -78 -145 -49 -19 14 -19 16
-3 41 16 24 23 26 88 26 63 0 69 -2 60 -18z m530 8 c21 -12 25 -40 7 -58 -7
-7 -44 -12 -95 -12 l-83 0 0 40 0 40 76 0 c41 0 84 -5 95 -10z m365 -11 c8 -6
14 -15 14 -20 0 -12 -271 -11 -290 1 -19 12 -7 16 85 29 83 11 171 7 191 -10z
m-596 -34 c0 -14 -4 -25 -10 -25 -5 0 -10 11 -10 25 0 14 5 25 10 25 6 0 10
-11 10 -25z m-182 -324 c-12 -41 -60 -92 -73 -79 -3 3 5 26 18 51 13 24 33 75
43 113 l19 69 3 -55 c1 -30 -3 -75 -10 -99z m-36 -273 c-5 -41 -33 -74 -56
-65 -13 5 -14 11 -2 44 8 21 22 55 32 77 l19 38 6 -29 c3 -15 4 -45 1 -65z
m-46 -132 c8 -20 -22 -78 -53 -107 -21 -20 -25 -21 -20 -6 4 10 7 34 7 53 0
50 52 97 66 60z m31 -153 c-3 -2 -16 -3 -30 -1 l-25 3 26 45 27 45 3 -44 c2
-23 1 -45 -1 -48z m8 -83 c15 -24 -102 -169 -124 -156 -15 10 -14 108 2 129
20 29 109 48 122 27z m23 -125 c18 -39 15 -89 -7 -109 -11 -10 -38 -20 -60
-23 -37 -5 -41 -4 -41 16 0 39 64 141 89 141 4 0 13 -11 19 -25z m2 -174 c0
-11 -38 -60 -89 -113 -47 -51 -71 -50 -71 0 0 46 20 76 68 102 39 20 92 27 92
11z m16 -149 c-9 -64 -29 -95 -84 -125 -27 -15 -55 -27 -61 -27 -27 0 -5 50
62 140 64 87 73 95 80 76 5 -11 6 -40 3 -64z m20 -187 c12 -48 -2 -69 -71
-103 -36 -17 -67 -32 -70 -32 -2 0 21 36 52 80 32 44 63 80 70 80 7 0 15 -11
19 -25z m-150 -41 c-3 -9 -6 -18 -6 -20 0 -2 -4 -4 -9 -4 -5 0 -7 9 -4 20 3
11 10 20 15 20 6 0 7 -7 4 -16z m113 -125 c-6 -12 -35 -48 -65 -80 -30 -32
-54 -68 -54 -79 0 -26 -8 -25 -37 2 -27 25 -30 64 -7 96 21 31 113 82 147 82
25 0 27 -2 16 -21z m27 -81 c-8 -42 -30 -65 -67 -70 -26 -4 -29 -2 -23 16 6
24 68 86 85 86 8 0 9 -11 5 -32z m-25 -188 c10 0 19 -6 19 -14 0 -24 -82 -176
-111 -208 -24 -25 -31 -28 -49 -18 -23 12 -23 1 -1 205 l6 59 55 21 55 21 3
-33 c2 -25 8 -33 23 -33z m-18 -240 c-3 -11 -15 -27 -26 -35 -44 -31 -50 -12
-11 34 28 33 45 34 37 1z"/>
<path d="M9310 1200 c-13 -8 -12 -10 3 -10 9 0 17 5 17 10 0 12 -1 12 -20 0z"/>
<path d="M11525 3475 c-60 -13 -157 -35 -215 -49 -58 -14 -115 -26 -128 -26
-49 0 -310 -201 -398 -306 -146 -176 -226 -366 -269 -644 -9 -58 -23 -143 -31
-190 -36 -204 -39 -230 -26 -250 7 -11 12 -39 12 -62 1 -179 157 -618 267
-749 36 -42 180 -148 213 -156 14 -4 106 -44 205 -90 l179 -83 246 -26 c263
-28 345 -27 550 2 313 46 489 124 605 271 45 58 49 65 60 135 3 20 21 58 39
85 47 69 43 54 131 483 35 174 49 325 42 474 -14 292 -77 484 -224 679 -85
113 -275 322 -321 352 -61 40 -172 72 -435 125 -286 57 -339 60 -502 25z m415
-121 c305 -35 332 -47 499 -220 100 -105 134 -134 154 -134 37 0 52 -31 33
-69 -16 -31 -34 -41 -72 -41 -25 0 -48 27 -57 70 -5 20 -24 33 -93 64 -121 55
-195 106 -230 157 -28 43 -30 44 -54 31 -54 -28 -152 -1 -226 62 -37 31 -41
32 -69 20 -42 -18 -53 -17 -61 8 -6 19 -7 20 -16 4 -15 -28 -71 -46 -158 -53
-60 -4 -83 -3 -96 8 -15 12 -18 12 -22 -1 -3 -8 -20 -30 -38 -47 -28 -29 -38
-33 -87 -33 -30 0 -72 7 -93 16 -35 15 -39 15 -51 -2 -20 -28 -16 -52 13 -71
l26 -17 -26 -23 c-57 -49 -151 -20 -192 58 l-15 29 78 0 c75 0 77 1 54 17 -23
16 -23 17 -5 30 30 23 252 133 267 133 8 0 22 -9 32 -20 l19 -21 13 25 c8 14
26 28 41 32 15 3 32 8 37 10 18 7 257 -6 395 -22z m137 -308 c109 -36 207 -66
218 -68 29 -5 111 -112 155 -203 46 -94 83 -232 99 -363 7 -53 12 -248 12
-450 0 -337 -1 -361 -21 -422 -40 -120 -91 -210 -161 -282 -94 -96 -185 -134
-379 -158 -109 -13 -386 -13 -410 0 -11 6 -65 17 -120 26 -128 19 -172 37
-211 85 -20 25 -39 39 -54 39 -32 0 -129 106 -146 162 -13 41 -16 43 -57 46
-41 3 -45 6 -62 46 -48 107 -126 604 -117 746 14 225 131 466 309 635 141 134
256 189 393 188 44 0 98 -4 120 -7 31 -6 55 -1 105 18 36 14 80 25 97 26 18 0
122 -29 230 -64z m-1077 -46 c30 -6 56 -12 58 -15 3 -3 -5 -16 -18 -30 l-23
-25 -49 27 c-63 35 -79 53 -46 53 14 0 49 -5 78 -10z m-139 -87 c16 -10 29
-20 29 -24 0 -8 -71 -29 -99 -29 -25 0 -27 17 -5 48 18 26 36 28 75 5z m1882
-33 c38 -33 78 -114 102 -205 28 -110 32 -106 -92 -103 -131 4 -140 15 -72 84
48 49 46 53 -11 24 -54 -28 -60 -26 -49 12 12 43 12 48 -5 48 -8 0 -24 12 -35
26 -24 31 -20 44 38 104 46 49 77 52 124 10z m-2005 -212 c32 -20 33 -22 17
-35 -19 -13 -83 -29 -90 -21 -8 8 16 78 27 78 6 0 26 -10 46 -22z m12 -156 c0
-5 -6 -17 -14 -27 -12 -17 -17 -18 -42 -6 -28 12 -28 13 -9 27 20 15 65 19 65
6z m1985 -18 c-54 -26 -82 -29 -105 -14 -29 20 17 40 89 39 l66 -1 -50 -24z
m166 -43 c11 -62 10 -73 -5 -96 -25 -38 -93 -83 -150 -100 -58 -17 -70 -11
-81 42 l-6 32 83 3 83 3 -94 31 -94 30 56 37 c65 43 154 87 179 87 12 0 19
-16 29 -69z m-2241 -71 c31 -16 40 -26 40 -45 0 -30 -50 -65 -94 -65 -23 0
-27 3 -21 18 4 9 12 38 18 65 5 26 11 47 14 47 2 0 22 -9 43 -20z m2264 -126
c3 -9 6 -35 6 -59 0 -59 -23 -75 -111 -75 -66 0 -129 15 -129 30 0 14 72 69
124 95 57 29 101 32 110 9z m-2248 -180 c-3 -9 -6 -22 -6 -29 0 -22 -57 -75
-80 -75 -20 0 -22 3 -15 38 8 42 20 61 50 72 35 15 58 12 51 -6z m2234 -81 c0
-79 -20 -216 -39 -265 -20 -52 -87 -89 -106 -58 -4 6 -15 4 -30 -6 -13 -9 -31
-14 -39 -12 -13 3 -13 7 1 36 15 31 15 36 0 61 -27 46 -13 68 54 87 32 9 64
24 71 32 11 13 10 15 -5 9 -46 -17 -122 -19 -142 -3 -20 16 -20 16 -1 31 11 8
28 15 38 15 27 0 22 12 -22 55 l-41 40 118 26 c65 15 124 28 131 28 9 1 12
-21 12 -76z m-2168 -66 c8 -40 -8 -64 -45 -71 -34 -6 -67 0 -67 13 0 3 14 23
31 44 36 44 74 50 81 14z m58 -257 c0 -5 -12 -10 -27 -10 -22 0 -25 2 -13 10
20 13 40 13 40 0z m2007 -117 c-15 -166 -133 -347 -296 -451 -68 -44 -173 -87
-236 -97 -22 -3 -51 -8 -65 -11 -38 -8 -12 11 35 26 65 20 172 80 222 123 27
25 55 62 69 93 27 62 29 63 93 71 l50 6 -35 42 c-20 25 -32 49 -28 58 3 8 30
25 60 37 62 26 69 40 19 40 -40 0 -44 13 -21 59 17 32 68 60 110 61 l29 0 -6
-57z m-2072 -34 c4 -5 -1 -19 -11 -30 -16 -18 -18 -18 -35 -2 -16 16 -16 19
-1 31 19 15 39 16 47 1z m89 -76 c-23 -17 -34 -17 -34 1 0 8 10 22 23 31 20
14 22 14 26 -2 2 -9 -5 -23 -15 -30z m116 -148 c0 -45 -20 -87 -39 -83 -18 4
-81 84 -81 104 0 10 15 14 60 14 l60 0 0 -35z m110 -120 c-7 -8 -19 -15 -26
-15 -8 0 -14 7 -14 15 0 10 10 15 26 15 22 0 25 -2 14 -15z m391 -144 c-14
-26 -69 -45 -87 -30 -8 6 -14 16 -14 21 0 13 39 27 78 27 29 1 32 -1 23 -18z
m509 -91 c-45 -24 -50 -24 -50 0 0 17 7 20 43 20 l42 -1 -35 -19z"/>
<path d="M1510 3483 c-14 -2 -71 -13 -127 -23 -85 -16 -111 -18 -158 -8 -51
10 -58 9 -76 -9 -11 -10 -21 -32 -22 -48 l-2 -30 90 -12 c50 -7 101 -10 115
-7 31 8 836 5 855 -3 22 -8 18 -31 -6 -44 -12 -6 -53 -22 -92 -35 -65 -22 -77
-23 -158 -14 -106 12 -139 24 -146 50 -5 19 -7 19 -27 6 -14 -8 -75 -19 -156
-26 l-134 -12 -22 27 -22 28 -49 -30 c-26 -16 -56 -32 -65 -36 -14 -5 -15 -10
-5 -36 8 -23 8 -46 -2 -96 -19 -96 -15 -235 14 -447 24 -173 25 -190 10 -218
-15 -28 -19 -30 -76 -30 -55 0 -60 2 -69 26 -13 33 -13 151 1 272 8 73 8 111
-1 153 -10 44 -10 76 0 145 17 128 14 203 -8 234 -11 14 -23 24 -28 23 -26 -5
-49 -158 -64 -423 -6 -102 -17 -243 -25 -314 -14 -115 -13 -131 0 -146 13 -14
15 -113 15 -775 l0 -759 27 -28 c26 -27 29 -28 137 -28 61 0 209 7 328 15 199
14 220 14 249 0 24 -13 47 -15 112 -10 45 4 100 11 122 17 22 5 99 13 171 17
72 5 141 14 155 21 92 49 336 279 402 380 76 115 112 292 83 404 -8 34 -20
104 -26 156 -14 138 -42 189 -178 323 l-110 108 56 97 c88 154 115 230 114
332 0 142 -60 367 -142 534 -78 159 -150 212 -346 251 -165 34 -256 40 -332
22 -57 -14 -68 -14 -109 0 -43 15 -49 15 -75 0 -25 -14 -32 -15 -69 -2 -40 15
-77 17 -129 8z m730 -225 c0 -33 -116 -96 -137 -75 -11 12 8 57 30 68 47 26
107 30 107 7z m151 -20 c29 -30 38 -61 19 -73 -16 -10 -174 -24 -182 -17 -9 9
16 79 37 102 33 37 82 32 126 -12z m-916 -58 c12 -19 85 -30 315 -45 381 -26
420 -40 496 -180 55 -101 71 -168 49 -202 -15 -22 -15 -26 0 -49 36 -56 -20
-151 -118 -201 -28 -14 -93 -37 -146 -51 -91 -25 -108 -26 -314 -25 -202 1
-220 3 -263 23 -25 13 -47 28 -49 34 -9 33 -37 553 -32 595 9 76 43 132 62
101z m948 -75 c-40 -28 -71 -35 -99 -23 -24 11 -25 13 -8 25 10 7 43 13 73 13
52 0 54 -1 34 -15z m81 -16 c58 -27 104 -178 113 -375 5 -104 4 -113 -16 -133
-13 -13 -35 -22 -58 -23 -105 -4 -111 8 -38 83 55 56 57 61 31 55 -15 -4 -42
-9 -60 -12 l-31 -6 25 21 c14 11 28 21 33 21 18 0 4 19 -23 30 -41 17 -40 54
5 119 35 50 49 89 23 63 -13 -13 -58 -16 -58 -4 0 4 5 13 11 19 8 8 -4 13 -45
18 -40 5 -56 12 -56 22 0 28 40 80 73 97 39 19 40 19 71 5z m-49 -595 c-45
-35 -55 -36 -55 -9 0 22 4 25 38 25 35 -1 36 -1 17 -16z m85 -35 c0 -44 -91
-99 -164 -99 -48 0 -27 24 62 72 48 26 90 48 95 48 4 0 7 -9 7 -21z m-1193
-84 c142 -20 188 -33 214 -61 l23 -24 -55 -56 c-29 -30 -91 -80 -136 -111
l-83 -57 0 -172 c0 -131 -3 -174 -13 -183 -8 -6 -17 -7 -21 -3 -4 4 -4 -11 1
-33 4 -22 7 -64 6 -92 -6 -124 -6 -151 2 -200 7 -50 7 -53 -14 -53 l-22 0 21
-30 22 -30 -21 -35 -20 -34 28 -17 c30 -18 61 -62 61 -88 0 -8 -9 -30 -20 -48
-29 -49 -26 -68 11 -68 20 0 29 -4 27 -12 -6 -18 -137 -33 -152 -18 -7 7 -10
53 -8 138 5 233 5 257 -3 334 -6 56 -5 82 4 92 7 8 8 17 3 20 -5 3 -10 52 -10
108 -1 57 -6 135 -11 173 -14 94 -14 268 1 393 10 91 10 106 -5 137 -9 20 -17
38 -17 40 0 9 85 5 187 -10z m770 -30 c13 -35 -35 -62 -150 -85 -52 -10 -64
-18 -121 -76 -48 -50 -71 -66 -99 -71 -53 -8 -48 10 20 79 l58 58 -115 -58
c-63 -32 -139 -67 -167 -79 l-53 -22 0 27 c0 97 120 158 365 183 61 6 125 18
144 27 78 33 109 38 118 17z m198 -12 c30 -15 55 -32 55 -39 0 -38 -128 -120
-217 -139 -37 -8 -39 -2 -18 48 20 49 19 58 -4 22 -25 -42 -60 -70 -100 -84
-36 -12 -104 -15 -114 -5 -16 16 290 223 330 224 7 0 37 -12 68 -27z m175
-226 c30 -14 74 -28 97 -32 39 -6 44 -11 67 -58 25 -54 88 -294 105 -404 12
-74 0 -218 -24 -287 -23 -67 -53 -113 -108 -163 -53 -49 -106 -77 -242 -128
-55 -20 -118 -46 -140 -58 -24 -13 -60 -21 -92 -21 -44 -1 -54 -5 -64 -24 -11
-20 -14 -20 -29 -7 -11 10 -46 15 -120 17 l-105 3 -13 43 -14 42 -22 -32 c-24
-35 -43 -39 -132 -23 -32 6 -52 2 -90 -14 -27 -12 -66 -26 -86 -30 -35 -8 -38
-7 -38 14 0 29 39 49 143 72 57 13 77 22 77 34 0 13 21 17 135 22 83 4 156 13
187 24 47 15 51 15 60 0 22 -40 234 -12 418 55 61 22 65 25 78 69 14 44 17 47
57 52 52 8 95 24 95 36 0 15 -30 22 -51 11 -18 -10 -19 -7 -19 56 l0 67 47 43
c26 24 44 46 41 49 -3 4 -24 -3 -46 -14 -33 -17 -42 -18 -51 -7 -8 10 -7 21 5
44 8 17 18 47 21 66 4 29 2 36 -18 46 -35 18 -35 18 -6 48 l27 28 -31 80 c-27
66 -43 90 -100 146 -38 38 -69 75 -69 83 0 8 -7 15 -15 15 -30 0 -114 22 -130
34 -62 45 98 47 195 3z m-229 -111 c144 -33 211 -113 228 -270 10 -83 -2 -313
-18 -374 -43 -156 -230 -196 -729 -156 -108 9 -220 13 -248 10 l-50 -6 -24 48
c-22 43 -25 61 -28 216 -4 183 11 409 29 450 20 42 177 81 389 96 146 11 378
3 451 -14z m-776 -945 c-49 -20 -75 -22 -75 -6 0 11 11 15 48 14 33 0 41 -3
27 -8z"/>
<path d="M3416 3480 c-68 -13 -69 -18 -62 -257 3 -116 13 -312 21 -435 34
-518 46 -773 44 -938 0 -106 3 -186 10 -203 6 -16 11 -48 11 -72 0 -81 68
-221 170 -350 136 -170 242 -257 369 -301 81 -28 305 -47 449 -37 72 5 82 4
82 -11 0 -18 15 -22 25 -6 9 15 62 12 98 -6 29 -16 42 -15 227 11 165 24 199
32 220 51 14 12 43 27 65 33 23 6 54 24 70 41 19 19 39 30 57 30 24 0 35 11
75 72 62 96 108 205 138 323 50 197 84 638 61 806 -7 50 -4 86 9 157 15 78 16
99 5 144 -15 65 -16 100 -5 304 9 190 -10 567 -30 584 -7 6 -60 14 -118 19
-58 4 -112 13 -120 20 -26 21 -66 -4 -90 -56 -29 -66 -34 -246 -16 -668 32
-762 12 -1031 -93 -1239 -68 -134 -188 -293 -237 -313 -52 -22 -251 -12 -412
21 -70 14 -171 31 -225 37 -76 9 -105 17 -124 34 -14 12 -44 30 -67 40 -35 15
-63 44 -158 169 -108 143 -115 155 -115 198 0 26 -14 100 -31 165 -45 175 -49
205 -33 313 21 150 18 295 -8 371 -44 130 -35 601 16 801 27 105 23 122 -29
144 -37 15 -180 18 -249 4z m114 -110 l39 -20 6 -132 c10 -252 11 -240 -18
-300 -35 -71 -50 -84 -71 -63 -13 14 -16 42 -16 164 0 104 4 151 13 160 10 11
9 14 -1 18 -7 3 -20 12 -28 21 -23 22 -14 140 12 159 22 16 18 17 64 -7z
m1837 6 c-17 -13 -13 -16 37 -30 65 -19 60 -8 76 -194 11 -128 11 -134 -11
-178 -29 -61 -115 -150 -161 -169 l-38 -15 0 30 c0 35 23 61 82 91 67 34 77
59 23 59 -19 0 -35 5 -35 10 0 14 33 78 70 137 17 26 30 50 30 54 0 12 -70 29
-117 29 -24 0 -43 4 -43 8 0 15 59 92 70 92 19 0 10 17 -15 28 -43 20 -22 61
30 61 19 0 19 0 2 -13z m-11 -247 c3 -6 -10 -27 -30 -47 l-36 -37 0 36 c0 19
5 40 12 47 15 15 45 16 54 1z m114 -314 c0 -69 -22 -95 -80 -95 -26 0 -40 5
-40 13 0 19 99 134 118 137 1 0 2 -25 2 -55z m-1898 -65 c25 -66 22 -108 -11
-165 -16 -28 -36 -57 -45 -64 -14 -12 -16 -10 -16 15 0 15 5 42 12 60 10 27 8
35 -10 62 -28 38 -28 65 -1 109 28 44 49 39 71 -17z m1878 -108 c0 -16 -45
-51 -90 -71 l-45 -20 -3 24 c-4 33 13 63 40 68 41 8 98 7 98 -1z m-17 -340
c-74 -59 -104 -76 -121 -65 -25 15 -23 77 3 81 47 8 48 12 11 52 -20 22 -36
44 -36 48 0 10 51 59 115 110 l50 40 3 -121 3 -122 -28 -23z m-1831 111 c-13
-124 -12 -143 2 -189 20 -64 20 -113 0 -224 -15 -82 -15 -92 0 -136 21 -63 21
-84 -3 -84 -70 0 -101 46 -101 150 0 55 4 74 18 88 18 18 18 19 0 42 -20 25
-23 52 -8 81 9 16 7 19 -10 19 -21 0 -23 8 -21 85 2 31 9 46 31 65 l29 26 -29
11 c-47 18 -39 46 36 129 36 41 67 74 68 74 1 0 -5 -62 -12 -137z m1858 -202
c12 -24 13 -81 1 -99 -11 -18 -79 -33 -118 -26 -74 14 -66 65 19 113 62 36 83
38 98 12z m-30 -181 c30 -6 55 -12 57 -13 6 -6 -46 -156 -71 -205 -28 -56 -53
-80 -93 -91 -42 -12 -54 -1 -60 52 l-5 46 63 3 64 3 -38 19 c-22 11 -41 24
-43 30 -2 6 18 35 46 65 27 29 48 57 45 61 -3 4 -25 0 -49 -8 -25 -9 -48 -13
-53 -9 -11 12 11 41 38 48 35 10 41 10 99 -1z m10 -355 l0 -85 -90 0 c-49 0
-90 4 -90 9 0 22 147 160 173 161 4 0 7 -38 7 -85z m-1826 43 c7 -13 17 -40
20 -60 4 -24 24 -58 56 -95 28 -32 57 -73 65 -90 10 -21 23 -33 35 -33 37 0
17 -65 -28 -93 l-27 -16 53 -1 52 0 0 -55 0 -55 59 0 c64 0 76 -8 67 -44 -11
-44 -105 -63 -163 -32 -16 8 -47 34 -70 58 -48 49 -133 192 -133 223 0 13 15
29 46 46 l47 26 -59 8 c-71 8 -94 20 -94 44 0 10 -9 38 -20 62 -22 50 -26 115
-7 122 6 3 29 6 49 6 29 1 41 -4 52 -21z m1691 -178 c-3 -5 -17 -10 -30 -10
-13 0 -27 5 -30 10 -4 6 8 10 30 10 22 0 34 -4 30 -10z m135 -25 c0 -16 -34
-84 -43 -88 -7 -2 -49 1 -94 6 -69 8 -83 13 -83 27 0 14 18 23 73 38 67 19
147 28 147 17z m-70 -176 c-11 -37 -37 -69 -57 -69 -8 0 -46 7 -84 16 -61 14
-68 18 -53 28 12 9 14 15 6 20 -7 4 -12 14 -12 22 0 11 20 14 104 14 l105 0
-9 -31z m-161 -100 c28 -6 60 -18 72 -28 18 -14 19 -20 9 -43 -7 -15 -26 -32
-42 -39 -25 -10 -40 -9 -96 10 -37 12 -77 21 -89 21 -30 0 -29 8 8 53 34 41
53 45 138 26z m-1049 -145 l0 -36 48 8 c26 4 63 8 82 8 30 1 35 -3 43 -30 l9
-31 86 33 c98 37 132 43 112 19 -16 -19 -6 -19 51 1 52 19 78 14 86 -16 3 -11
8 -20 11 -20 2 0 58 20 123 45 65 25 135 45 155 45 35 0 180 -58 170 -67 -18
-18 -211 -95 -249 -100 -27 -3 -104 2 -177 12 -124 18 -132 18 -221 1 -152
-29 -366 -6 -471 51 -64 35 -66 65 -5 87 52 19 73 23 115 25 30 1 32 -1 32
-35z"/>
</g>
</svg>
