<?xml version="1.0" standalone="no"?>
<!DOCTYPE svg PUBLIC "-//W3C//DTD SVG 20010904//EN"
 "http://www.w3.org/TR/2001/REC-SVG-20010904/DTD/svg10.dtd">
<svg version="1.0" xmlns="http://www.w3.org/2000/svg"
 width="1760.000000pt" height="272.000000pt" viewBox="0 0 1760.000000 272.000000"
 preserveAspectRatio="xMidYMid meet">

<g transform="translate(0.000000,272.000000) scale(0.100000,-0.100000)"
fill="#000000" stroke="none">
<path d="M12252 2496 c-79 -74 -214 -232 -327 -381 -87 -116 -121 -172 -153
-255 -5 -14 -65 -99 -132 -189 l-123 -164 23 -46 c12 -25 79 -129 150 -231 70
-102 141 -212 158 -245 51 -99 93 -160 172 -243 41 -44 90 -107 109 -141 37
-66 178 -247 230 -295 l31 -30 28 26 c36 36 72 48 138 48 48 0 56 3 65 24 26
55 -35 201 -119 289 -63 66 -280 257 -291 257 -6 0 -11 8 -11 18 0 10 -23 40
-50 67 -51 50 -145 199 -200 317 -37 79 -56 188 -39 221 21 40 481 631 539
692 49 53 114 138 163 215 16 25 15 27 -13 61 l-29 36 -132 0 -133 1 -54 -52z
m218 -68 c0 -23 -88 -115 -162 -172 -31 -23 -44 -27 -71 -22 -45 8 -70 28 -62
48 7 18 31 29 115 53 55 16 98 40 88 50 -3 3 -27 1 -53 -5 -56 -13 -66 -7 -38
22 23 22 98 46 151 47 27 1 32 -3 32 -21z m-280 -222 c0 -13 -97 -62 -106 -53
-3 2 -2 12 2 21 13 35 104 63 104 32z m30 -70 c0 -7 -9 -25 -21 -40 -25 -31
-68 -35 -93 -7 -20 22 -14 29 44 47 49 16 70 16 70 0z m-132 -89 c29 -27 28
-43 -6 -61 -40 -21 -132 -32 -132 -17 0 16 17 49 47 89 21 28 27 31 46 21 12
-6 32 -21 45 -32z m-8 -103 c0 -12 -65 -114 -76 -118 -6 -2 -30 4 -52 14 -49
22 -56 51 -18 75 32 21 146 44 146 29z m-152 -137 c20 -16 14 -24 -24 -31 -19
-4 -42 -10 -51 -13 -12 -5 -14 -1 -8 18 13 45 45 55 83 26z m2 -66 c0 -16 -66
-81 -82 -81 -9 0 -28 10 -43 22 -25 19 -26 22 -9 31 48 27 134 45 134 28z
m-129 -98 c2 -33 -2 -53 -22 -98 l-20 -45 -57 0 -57 1 28 20 c22 17 25 24 16
35 -16 20 7 71 40 89 37 20 71 19 72 -2z m-40 -217 c-19 -23 -59 -25 -77 -5
-16 18 -15 19 36 19 44 0 51 -2 41 -14z m57 -58 c7 -7 12 -31 12 -54 0 -38 6
-48 58 -101 31 -32 107 -128 167 -213 61 -85 134 -179 163 -209 49 -50 52 -55
43 -82 -9 -27 -8 -29 14 -29 34 0 77 -40 140 -132 51 -74 70 -128 45 -128 -24
0 -78 36 -134 89 -77 73 -116 127 -116 161 0 22 -11 34 -55 64 -52 34 -76 71
-61 95 4 5 -8 18 -25 28 -24 14 -46 48 -95 149 -50 102 -80 148 -135 210 -79
87 -102 125 -93 148 7 19 55 21 72 4z"/>
<path d="M15885 2542 c-29 -7 -30 -9 -32 -67 -2 -33 -10 -134 -19 -224 -19
-181 -15 -261 16 -391 23 -92 23 -154 -1 -585 -28 -535 -30 -816 -4 -941 7
-31 85 -49 178 -39 91 9 135 27 141 57 5 32 36 258 46 343 9 73 0 328 -21 595
-6 85 -12 236 -13 335 -1 259 11 271 126 127 83 -104 232 -330 278 -422 21
-41 62 -103 93 -137 30 -34 71 -96 92 -138 28 -58 44 -80 65 -88 22 -8 39 -33
81 -119 54 -110 86 -150 127 -163 12 -3 22 -13 22 -22 0 -8 8 -17 18 -20 11
-3 23 -21 30 -48 13 -47 40 -78 172 -198 79 -71 99 -79 263 -102 55 -8 57 -3
31 80 -36 118 -37 643 -2 920 16 129 14 372 -6 570 -25 252 -39 440 -40 527
-1 46 -6 82 -13 89 -17 17 -168 24 -221 10 -24 -7 -48 -21 -56 -34 -21 -35
-41 -360 -26 -428 14 -61 10 -880 -4 -912 -13 -28 -30 -20 -82 36 -152 161
-393 504 -488 692 -41 83 -142 254 -224 380 -200 311 -195 304 -212 311 -22 9
-279 14 -315 6z m113 -101 c10 -6 7 -12 -12 -24 -14 -10 -29 -17 -35 -17 -9 0
-21 23 -21 41 0 11 50 12 68 0z m90 -49 c-7 -10 -43 -52 -80 -92 -54 -58 -69
-70 -74 -57 -10 28 15 73 67 122 31 29 57 45 74 45 23 0 25 -2 13 -18z m90
-14 c7 -7 12 -16 12 -20 0 -8 -99 -68 -114 -68 -10 0 17 45 47 78 23 25 37 28
55 10z m1277 -28 c12 -37 -6 -129 -27 -144 -12 -8 -17 -19 -13 -26 8 -13 -82
-110 -102 -110 -9 0 -13 17 -13 55 0 53 1 55 27 55 l26 0 -22 24 c-28 29 -37
83 -21 130 l12 36 63 0 c55 0 65 -3 70 -20z m-1200 -110 l15 -30 -161 -80
c-89 -45 -164 -79 -167 -76 -13 13 138 144 218 190 58 33 76 33 95 -4z m-211
-49 c-112 -71 -133 -76 -100 -25 21 30 88 64 131 64 28 0 26 -3 -31 -39z m303
-73 c123 -132 218 -322 169 -341 -7 -3 -35 -9 -61 -13 l-48 -7 7 34 c3 19 8
52 12 74 5 38 5 39 -11 20 -9 -11 -23 -29 -30 -39 -12 -16 -17 -17 -30 -6 -23
19 -42 59 -50 107 -5 33 -12 43 -33 51 -18 6 -37 28 -55 60 l-28 51 48 31 c26
16 51 30 54 30 3 0 28 -24 56 -52z m1093 -17 c0 -11 -114 -166 -129 -175 -7
-5 -11 6 -11 31 0 34 7 44 62 95 63 57 78 66 78 49z m-1359 -162 c8 -21 7 -33
-4 -56 -20 -37 -105 -116 -117 -108 -6 3 -10 54 -10 114 l0 107 53 26 52 25 7
-41 c4 -22 13 -53 19 -67z m1365 -13 l7 -69 -39 8 c-49 9 -54 12 -54 34 0 26
60 115 70 105 5 -5 12 -40 16 -78z m-54 -86 c21 -6 40 -16 44 -21 7 -13 -84
-109 -103 -109 -14 0 -33 40 -33 69 0 19 36 71 48 71 4 0 24 -5 44 -10z m-832
-110 c0 -12 -11 -32 -25 -46 -21 -21 -28 -24 -41 -13 -49 40 -35 79 27 79 33
0 39 -3 39 -20z m908 8 c23 -23 14 -57 -23 -80 -44 -29 -44 -38 1 -38 35 0 35
-1 29 -32 -11 -49 -29 -79 -74 -126 -23 -23 -41 -49 -41 -57 0 -28 27 -15 64
30 41 49 72 61 61 23 -9 -30 -63 -128 -83 -150 -18 -21 -17 -21 26 -9 l32 10
0 -45 0 -44 -65 0 c-64 0 -65 0 -59 24 4 17 -1 31 -15 45 -40 40 -24 250 22
299 17 18 19 25 8 31 -22 14 -5 55 39 95 43 38 59 43 78 24z m-1398 -23 c0
-14 -83 -75 -101 -75 -9 0 1 41 14 58 8 10 53 28 80 31 4 1 7 -6 7 -14z m580
-109 c10 -28 -5 -54 -35 -62 -33 -8 -71 17 -80 53 -5 22 -2 32 20 51 l26 22
31 -21 c16 -12 33 -31 38 -43z m-580 26 c0 -19 -34 -62 -50 -62 -4 0 -15 -3
-23 -6 -26 -10 -8 33 25 61 35 30 48 31 48 7z m10 -120 c0 -22 -66 -102 -85
-102 -13 0 -25 30 -25 67 0 28 36 53 77 53 25 0 33 -4 33 -18z m620 3 c0 -22
-26 -81 -39 -89 -16 -10 -51 30 -51 59 0 28 23 44 63 45 18 0 27 -5 27 -15z
m94 -99 c22 -44 24 -102 6 -146 -16 -37 -43 -39 -59 -3 -13 29 -14 27 36 60
16 11 15 12 -9 7 -38 -8 -75 3 -88 26 -8 15 -4 28 21 64 26 37 35 43 53 37 11
-4 29 -25 40 -45z m-706 -5 c5 -29 -15 -51 -44 -51 -25 0 -24 13 4 58 18 27
36 24 40 -7z m-18 -99 c0 -4 -22 -30 -50 -57 -48 -47 -50 -48 -50 -23 0 15 3
34 6 43 10 26 94 59 94 37z m849 -101 c39 -76 58 -104 86 -121 67 -42 67 -93
0 -106 -52 -9 -68 0 -60 35 6 30 6 30 -29 24 l-36 -6 0 47 c0 38 -3 46 -19 46
-34 0 -46 30 -43 108 2 27 31 72 47 72 3 0 27 -45 54 -99z m-827 -7 c-6 -31
-31 -52 -71 -60 -32 -7 -33 -6 -21 15 6 13 28 41 48 63 31 34 37 37 42 22 4
-10 5 -28 2 -40z m1348 -33 c0 -5 -12 -23 -26 -40 l-26 -31 37 0 c23 0 34 -4
30 -11 -14 -22 -89 -69 -112 -69 -22 0 -23 3 -23 80 l0 80 60 0 c33 0 60 -4
60 -9z m-1435 -131 c-33 -33 -41 -37 -48 -24 -17 31 16 62 68 63 15 1 12 -6
-20 -39z m101 -27 c5 -26 1 -37 -19 -57 -29 -29 -77 -35 -77 -10 0 35 67 121
82 106 4 -4 10 -22 14 -39z m1348 -63 c-1 -154 -58 -270 -140 -286 -19 -3 -37
-4 -40 -1 -3 2 18 40 45 82 28 43 51 84 51 93 0 26 -60 5 -139 -49 l-73 -51
-39 38 c-44 43 -41 52 23 85 40 20 58 18 58 -7 0 -25 41 -15 74 19 17 18 44
56 59 85 19 37 38 58 60 67 57 25 62 19 61 -75z m-354 25 c0 -20 5 -25 24 -25
26 0 43 -30 30 -51 -7 -12 -66 -39 -84 -39 -5 0 -10 11 -10 24 0 21 -5 24 -27
23 -43 -3 -39 40 6 70 44 30 61 29 61 -2z m-1065 -112 c-7 -21 -21 -56 -30
-78 -10 -22 -17 -59 -16 -83 1 -24 -4 -52 -9 -62 -16 -29 18 -26 65 6 41 28
60 19 46 -20 -11 -30 -93 -46 -129 -25 -34 19 -41 56 -32 159 8 92 24 116 81
130 19 4 35 8 36 9 1 1 -4 -16 -12 -36z m85 -18 c0 -29 -41 -96 -65 -107 -33
-15 -36 -9 -25 34 17 60 90 119 90 73z m1180 -69 c0 -20 -38 -64 -83 -97 -46
-33 -67 -37 -67 -11 0 28 28 61 78 93 50 32 72 36 72 15z m140 -143 c-1 -36
-48 -73 -91 -73 -21 0 -19 4 21 45 46 47 70 57 70 28z m-150 -43 c-6 -11 -15
-20 -20 -20 -4 0 -15 -3 -24 -6 -10 -4 -16 -1 -16 8 0 21 21 38 47 38 21 0 22
-3 13 -20z m-1220 -44 c0 -20 -106 -116 -129 -116 -17 0 -21 6 -21 34 0 47 26
75 80 85 65 13 70 12 70 -3z m1370 -55 c0 -48 -9 -55 -60 -46 -56 9 -54 38 3
64 57 26 57 26 57 -18z"/>
<path d="M9760 2519 c-36 -17 -57 -20 -105 -16 -33 3 -68 9 -77 12 -43 17 -81
-126 -168 -630 -108 -620 -170 -901 -213 -960 -13 -17 -17 -18 -33 -5 -21 18
-64 107 -64 134 0 11 -27 92 -60 181 -33 89 -60 175 -60 191 0 52 -38 170
-101 311 -34 76 -78 183 -99 238 -21 55 -54 143 -75 195 -20 52 -39 116 -42
142 -5 41 -2 52 26 89 17 24 31 49 31 56 0 28 -46 37 -210 41 -224 5 -217 10
-276 -188 -83 -275 -124 -433 -124 -474 0 -57 -258 -974 -283 -1008 -12 -16
-23 -28 -26 -28 -7 0 -171 509 -171 529 0 7 -51 169 -114 360 -101 304 -166
539 -166 597 0 11 -6 31 -14 46 -8 15 -10 30 -5 35 5 5 12 30 15 55 6 42 4 47
-20 63 -22 15 -46 17 -165 13 -122 -3 -142 -6 -161 -23 -20 -18 -22 -27 -16
-76 3 -30 24 -107 47 -170 64 -178 160 -498 169 -564 4 -33 31 -122 59 -198
28 -75 51 -150 51 -165 0 -15 29 -133 64 -262 83 -306 173 -556 227 -632 20
-28 25 -30 63 -23 57 10 70 9 159 -12 l79 -18 20 25 c31 37 82 148 133 290 88
243 270 863 335 1145 34 144 47 185 61 185 13 0 52 -85 94 -203 21 -60 44
-111 51 -114 8 -3 11 -15 8 -31 -3 -17 22 -115 71 -272 42 -135 80 -271 85
-302 5 -32 29 -102 54 -157 25 -55 46 -112 46 -127 0 -14 22 -98 50 -186 52
-165 86 -228 125 -228 11 -1 74 -11 139 -25 87 -17 125 -21 139 -14 51 28 132
261 338 979 137 478 139 486 139 585 0 156 32 351 77 467 28 72 26 98 -8 141
-25 32 -40 33 -99 6z m-82 -116 l52 -6 0 -39 c0 -45 -11 -51 -104 -62 -45 -5
-57 -4 -53 6 3 7 8 21 12 31 4 10 3 17 -4 17 -12 0 -15 52 -4 64 4 4 17 4 28
1 11 -3 44 -8 73 -12z m-2536 -14 c2 -7 19 -17 38 -23 63 -20 90 -81 136 -306
14 -69 39 -155 55 -192 42 -97 39 -129 -24 -195 -36 -38 -43 -40 -57 -13 -8
15 -5 25 20 54 31 34 31 35 8 38 -30 4 -37 51 -11 80 18 20 18 21 -7 13 -14
-4 -31 -8 -39 -9 -21 -1 -58 58 -70 112 -9 44 -8 49 15 73 l25 26 -24 -4 c-22
-4 -25 0 -36 44 -17 66 -80 243 -97 270 -12 20 -11 22 14 31 37 14 50 14 54 1z
m1288 -30 c0 -5 20 -6 45 -2 56 7 82 -8 117 -73 26 -48 68 -181 68 -216 0 -15
-9 -18 -57 -18 -84 0 -96 11 -55 53 17 18 32 38 32 44 0 24 -22 24 -41 -1 -30
-38 -70 -35 -114 10 l-35 35 -27 -20 c-27 -22 -53 -27 -53 -12 0 5 12 23 26
40 20 24 22 31 10 31 -12 0 -16 10 -16 39 0 54 15 90 42 100 25 9 58 3 58 -10z
m1255 -105 c-53 -45 -128 -93 -137 -88 -14 9 -9 51 10 73 17 21 73 38 127 40
l30 0 -30 -25z m63 -59 c4 -50 -29 -92 -89 -109 -68 -21 -89 -20 -89 2 1 25
28 57 90 102 64 46 84 47 88 5z m-1401 -91 c4 -12 -74 -50 -84 -41 -3 4 4 18
17 32 24 26 60 30 67 9z m-7 -84 c0 -17 -7 -20 -40 -20 -47 0 -49 4 -12 24 37
21 52 20 52 -4z m1305 1 c-22 -21 -145 -82 -154 -77 -9 6 -1 52 14 76 3 5 38
10 78 10 43 0 67 -4 62 -9z m-1015 -11 c0 -15 -40 -32 -58 -25 -14 6 -11 10
13 21 37 16 45 17 45 4z m70 -40 c26 -51 26 -100 -1 -134 -15 -20 -29 -26 -48
-24 -36 4 -33 28 8 55 l34 23 -36 0 c-20 0 -43 7 -52 16 -15 16 -13 20 26 60
24 24 44 44 46 44 1 0 12 -18 23 -40z m1007 0 c-10 -74 -41 -103 -125 -116
-24 -3 -44 0 -56 9 -18 13 -14 18 69 81 105 79 120 82 112 26z m-1402 -35 c0
-15 -11 -24 -43 -34 -50 -16 -56 -13 -43 22 15 40 86 50 86 12z m9 -82 c-12
-51 -24 -73 -39 -79 -12 -5 -13 -10 -4 -20 15 -18 3 -33 -37 -50 -57 -24 -67
-20 -59 24 14 78 75 150 128 152 14 0 16 -5 11 -27z m450 -51 c3 -5 8 -28 12
-50 l7 -42 -52 0 c-57 0 -65 14 -34 60 26 38 55 52 67 32z m842 -24 c-69 -58
-136 -86 -136 -57 0 20 33 67 54 78 12 5 43 10 71 10 l50 1 -39 -32z m55 -83
c-15 -69 -43 -93 -117 -105 -75 -12 -74 -12 -74 3 0 28 191 186 199 165 2 -6
-2 -34 -8 -63z m-2210 -74 c22 -69 22 -70 4 -130 -20 -66 -16 -84 13 -58 27
25 32 21 32 -23 l0 -40 -51 0 c-43 0 -50 -3 -47 -17 3 -15 16 -19 66 -21 34
-2 62 -7 62 -11 0 -12 -50 -84 -69 -98 -28 -21 -38 -15 -64 45 -34 77 -47 127
-47 185 0 43 3 49 33 67 l32 20 -48 0 c-46 0 -48 1 -41 23 8 27 43 98 56 115
6 6 19 12 29 12 13 0 23 -17 40 -69z m1312 51 c16 -7 15 -10 -12 -36 -21 -21
-35 -26 -51 -21 -29 9 -23 47 10 56 32 9 32 9 53 1z m-513 -7 c0 -16 -36 -74
-63 -102 -23 -25 -34 -30 -44 -22 -20 17 -16 25 18 39 21 9 27 16 20 23 -18
18 -12 47 12 57 25 10 57 13 57 5z m570 -70 c7 -8 14 -46 16 -85 4 -64 2 -73
-20 -95 -32 -32 -36 -31 -71 5 -26 27 -28 33 -16 51 10 17 10 27 0 51 -11 26
-9 32 16 58 32 33 56 38 75 15z m755 -55 c-3 -5 -33 -30 -65 -55 l-60 -46 0
31 c0 46 38 80 90 80 24 0 39 -4 35 -10z m-1375 -47 c0 -46 -23 -94 -61 -128
-22 -20 -43 -35 -45 -32 -3 2 0 33 5 68 8 49 17 69 36 87 31 27 65 29 65 5z
m1406 -37 c-11 -73 -70 -126 -140 -126 -40 0 -40 17 1 66 36 44 132 118 141
109 2 -2 1 -24 -2 -49z m-706 -92 c19 -55 20 -68 9 -75 -8 -5 -17 -9 -20 -9
-3 0 -20 -13 -37 -30 -18 -16 -36 -30 -42 -30 -16 0 -12 31 6 52 16 17 15 19
-10 39 l-26 20 30 44 c27 39 41 52 62 54 3 1 16 -29 28 -65z m-770 -88 c0 -23
-197 -583 -220 -626 -15 -28 -133 -82 -192 -88 l-51 -5 16 24 c24 34 21 39
-15 29 -37 -11 -50 -3 -69 41 -16 39 -3 49 63 49 41 0 49 -4 68 -30 29 -41 65
-40 116 4 60 51 89 116 139 304 51 195 68 244 102 290 29 38 43 41 43 8z
m1320 6 c0 -16 -32 -52 -46 -52 -20 0 -18 12 6 38 21 22 40 29 40 14z m80 -34
c-1 -36 -21 -93 -40 -113 -38 -41 -120 -45 -120 -7 0 28 28 60 83 97 54 37 77
43 77 23z m-1970 -24 c16 -41 12 -109 -10 -164 -21 -54 -13 -65 18 -25 25 32
28 31 47 -5 31 -59 11 -90 -58 -90 -43 0 -62 20 -86 93 l-18 57 36 22 36 23
-42 3 c-24 2 -43 7 -43 12 0 14 85 100 99 100 6 0 16 -12 21 -26z m1400 6 c0
-32 -36 -60 -75 -60 -44 0 -44 10 0 49 41 36 75 41 75 11z m10 -98 c0 -24 -45
-89 -72 -103 -18 -10 -24 -8 -40 11 -45 55 -7 108 80 109 24 1 32 -3 32 -17z
m36 -69 c7 -10 14 -37 14 -61 0 -37 -4 -44 -26 -52 -37 -14 -70 -12 -84 5 -11
13 -7 25 25 70 40 59 51 65 71 38z m392 -48 c-61 -59 -78 -59 -78 0 l0 45 63
0 62 0 -47 -45z m27 -102 c-9 -24 -29 -58 -43 -75 -31 -36 -90 -64 -104 -50
-14 14 -1 32 35 47 29 12 29 13 9 19 -12 4 -22 11 -22 16 0 4 30 36 68 70 61
56 67 60 70 40 2 -13 -4 -42 -13 -67z m-390 0 c-7 -29 -61 -103 -75 -103 -13
0 -27 30 -31 65 -4 28 -1 31 46 47 67 22 68 22 60 -9z m-1405 -14 c0 -12 -15
-36 -34 -55 -41 -41 -81 -46 -90 -11 -12 45 -7 66 17 71 12 3 31 7 42 9 49 11
65 7 65 -14z m35 -99 c-1 -62 -18 -80 -76 -80 -37 0 -37 1 -29 29 12 43 27 67
57 90 38 30 48 22 48 -39z m1415 22 c0 -32 -5 -41 -25 -50 -32 -15 -65 -15
-65 -1 0 31 50 88 78 89 7 0 12 -14 12 -38z m287 -69 c-24 -44 -61 -73 -103
-80 l-39 -6 45 40 c90 79 105 91 108 83 2 -5 -3 -21 -11 -37z m-267 -44 c0 -6
-8 -24 -17 -40 -16 -26 -16 -31 -3 -39 11 -7 6 -10 -21 -10 -45 0 -67 17 -71
54 -2 24 2 31 22 37 39 11 90 10 90 -2z m120 -121 c-1 -15 -103 -101 -125
-106 -16 -4 -40 30 -49 69 -5 25 -3 26 52 36 84 15 122 15 122 1z m80 -33 c0
-52 -19 -83 -57 -96 -19 -6 -37 -8 -40 -5 -13 13 19 86 48 110 40 34 49 33 49
-9z m-1410 5 c0 -12 -7 -35 -16 -52 -15 -29 -18 -30 -66 -25 -28 4 -62 14 -77
24 l-26 17 45 19 c89 40 140 46 140 17z"/>
<path d="M715 2510 c-340 -31 -517 -138 -643 -389 -31 -63 -38 -87 -41 -153
-6 -152 49 -303 141 -381 35 -29 158 -87 512 -242 257 -112 481 -212 499 -222
22 -13 44 -43 72 -97 36 -72 40 -85 40 -155 -1 -94 -25 -146 -92 -195 -47 -34
-150 -74 -253 -97 -88 -21 -377 -12 -427 13 -12 6 -38 8 -57 5 -30 -5 -52 5
-171 74 -75 44 -143 78 -150 75 -8 -3 -19 -24 -25 -48 -14 -56 -39 -120 -53
-137 -6 -7 -21 -17 -34 -22 -27 -10 -24 -23 20 -87 53 -78 108 -108 217 -117
25 -2 95 -11 155 -19 179 -27 423 -32 530 -12 92 18 224 59 260 81 11 7 40 16
65 20 57 9 128 39 158 68 34 31 50 66 83 181 17 55 42 139 56 185 42 140 32
232 -35 337 -97 150 -328 294 -472 294 -73 0 -139 25 -256 96 -132 81 -184
104 -232 104 -49 0 -107 30 -175 91 -82 73 -112 128 -110 201 5 166 156 271
423 293 119 11 190 -10 432 -124 116 -56 216 -101 220 -101 4 0 21 19 38 42
30 41 30 42 30 173 l0 131 -32 31 c-28 26 -49 34 -139 52 -93 19 -250 40 -414
55 -27 2 -90 1 -140 -4z m420 -110 c132 -23 233 -48 241 -61 4 -8 -30 -156
-38 -164 -2 -2 -15 2 -28 8 -30 15 -36 47 -20 100 6 21 9 41 6 44 -4 5 -57
-12 -108 -35 -5 -2 -8 11 -8 29 l0 33 -29 -28 -30 -29 -33 28 c-18 16 -34 23
-36 16 -2 -6 -19 -11 -37 -11 -24 0 -40 8 -58 29 -17 20 -28 26 -38 20 -8 -5
-31 -9 -51 -9 -39 0 -60 21 -50 49 6 18 150 10 317 -19z m-360 -1 c-13 -20
-55 -30 -78 -17 l-22 12 25 7 c40 11 82 10 75 -2z m-283 -58 c-56 -48 -167
-68 -130 -24 20 25 89 53 128 52 l35 0 -33 -28z m748 -66 c-7 -9 -15 -13 -17
-11 -7 7 7 26 19 26 6 0 6 -6 -2 -15z m-948 -88 c-14 -32 -28 -47 -51 -55 -26
-9 -31 -9 -31 5 0 26 40 82 68 97 35 18 38 7 14 -47z m-62 -102 c0 -11 -11
-15 -40 -15 -45 0 -51 6 -17 20 34 14 57 12 57 -5z m-20 -70 c0 -8 -9 -24 -21
-36 -20 -20 -22 -20 -40 -3 -10 9 -19 25 -19 36 0 14 8 18 40 18 29 0 40 -4
40 -15z m-22 -132 c-2 -22 -8 -28 -27 -28 -18 0 -26 7 -32 28 -7 26 -6 27 28
27 32 0 34 -2 31 -27z m20 -55 c-3 -7 -15 -14 -29 -16 -23 -2 -23 -2 -5 13 24
18 39 20 34 3z m2 -68 c0 -5 -9 -10 -20 -10 -11 0 -20 5 -20 10 0 6 9 10 20
10 11 0 20 -4 20 -10z m77 -27 c5 -13 -43 -40 -53 -30 -3 3 0 15 6 27 12 22
40 24 47 3z m68 -65 c-11 -36 -33 -49 -61 -36 -32 15 -30 34 4 46 48 18 64 15
57 -10z m86 -38 l24 -19 -48 -1 c-45 0 -47 1 -37 20 14 25 31 25 61 0z m144
-60 c9 -15 -14 -40 -36 -40 -23 0 -69 21 -69 31 0 16 96 24 105 9z m117 -41
c31 -17 20 -29 -25 -29 -44 0 -67 13 -67 38 0 11 9 13 37 7 21 -4 46 -11 55
-16z m178 -109 c19 -11 29 -19 22 -20 -16 0 -82 27 -82 34 0 11 25 5 60 -14z
m167 -66 c-3 -3 -12 -4 -19 -1 -8 3 -5 6 6 6 11 1 17 -2 13 -5z m159 -25 c4
-6 8 -31 10 -54 2 -39 1 -42 -19 -37 -42 10 -121 77 -111 94 8 12 112 9 120
-3z m172 -101 c22 -22 12 -28 -51 -28 -69 0 -83 6 -66 27 14 16 101 17 117 1z
m99 -92 c24 -21 26 -26 16 -49 -15 -31 -85 -80 -108 -75 -16 3 -15 5 3 28 l20
25 -41 16 c-53 21 -56 47 -7 65 53 19 86 16 117 -10z m50 -138 c-8 -62 -24
-78 -79 -78 -72 0 -60 59 21 104 25 14 50 26 55 26 5 0 6 -24 3 -52z m-44
-170 c-13 -70 -60 -124 -100 -116 -16 3 -15 7 8 28 23 21 25 27 16 48 -10 21
-8 27 16 48 16 13 37 24 47 24 17 0 19 -5 13 -32z m-71 -167 c15 -14 -14 -82
-50 -120 -41 -43 -131 -77 -283 -106 -46 -9 -96 -23 -111 -31 -54 -29 -129 -6
-147 47 -13 38 12 59 69 59 24 0 93 5 152 12 87 10 115 10 144 -1 33 -12 39
-11 63 6 14 11 37 40 50 64 48 88 50 91 79 84 15 -3 30 -10 34 -14z m-1118
-94 c18 -13 17 -15 -10 -34 -16 -11 -39 -24 -51 -27 -13 -4 -23 -12 -23 -17 0
-13 31 -10 60 6 34 20 42 18 38 -6 -2 -12 -15 -31 -30 -42 -23 -17 -33 -19
-55 -11 -24 8 -28 16 -31 50 -5 71 53 117 102 81z m116 -46 c0 -5 -13 -22 -28
-39 -15 -16 -26 -35 -24 -41 2 -6 -3 -11 -12 -11 -23 0 -20 42 5 74 19 25 59
36 59 17z m160 -32 c-19 -64 -59 -88 -115 -69 -82 27 -14 93 102 99 20 1 21
-2 13 -30z m204 -15 c17 -16 20 -41 10 -68 -5 -13 -23 -16 -90 -16 l-84 0 0
32 c0 50 24 68 91 68 39 0 63 -5 73 -16z"/>
<path d="M920 440 c0 -5 7 -10 16 -10 8 0 12 5 9 10 -3 6 -10 10 -16 10 -5 0
-9 -4 -9 -10z"/>
<path d="M2505 2486 c-22 -33 -89 -235 -117 -351 -17 -69 -28 -97 -41 -101
-25 -8 -53 -68 -70 -151 -8 -39 -18 -77 -23 -84 -4 -7 -22 -53 -39 -103 -18
-50 -60 -156 -92 -236 -33 -80 -77 -206 -97 -280 -87 -315 -118 -417 -165
-537 -61 -159 -83 -235 -79 -270 3 -25 10 -30 63 -45 68 -19 157 -23 185 -8
19 10 41 69 59 157 6 28 27 91 47 140 21 48 54 140 75 203 30 93 40 115 55
113 90 -8 478 -12 549 -5 109 10 144 2 184 -43 60 -69 99 -150 187 -395 55
-149 63 -162 107 -149 49 14 92 11 147 -11 87 -34 181 -21 188 27 3 23 -14 67
-118 298 -89 199 -114 274 -135 411 -20 126 -33 163 -76 212 -46 52 -68 110
-90 230 -16 87 -26 118 -60 173 -34 57 -39 71 -29 88 9 18 8 21 -7 21 -12 0
-25 17 -40 55 -25 60 -29 95 -13 95 6 0 1 13 -11 29 -11 15 -32 68 -46 117
-13 49 -30 95 -36 103 -6 7 -17 27 -23 45 -40 107 -88 205 -113 230 -35 35
-83 45 -213 46 -92 0 -98 -1 -113 -24z m155 -76 c28 -11 64 -20 80 -20 55 0
150 -139 150 -221 0 -12 -31 -27 -124 -59 -111 -39 -125 -46 -141 -77 -34 -62
-152 -157 -222 -178 -20 -5 -23 -3 -23 19 0 29 31 66 56 66 14 0 13 2 -1 17
-13 12 -15 26 -10 57 8 56 24 77 89 116 68 42 78 60 32 60 l-34 0 14 38 c7 20
13 49 14 63 0 38 27 121 42 130 18 12 21 12 78 -11z m168 -376 c-85 -83 -92
-84 -124 -22 -12 22 -12 33 -4 43 18 22 110 48 185 53 14 1 -2 -20 -57 -74z
m110 24 c6 -7 24 -49 42 -92 l31 -79 -28 -29 -28 -30 28 13 c24 11 30 10 45
-4 13 -14 17 -36 17 -100 0 -71 -4 -88 -27 -127 -14 -25 -40 -58 -58 -75 -37
-36 -50 -25 -50 43 0 38 4 45 31 60 17 9 38 23 47 30 17 14 -2 12 -92 -5 -32
-7 -32 -5 -10 82 l7 27 -27 -17 c-39 -26 -58 -6 -54 59 3 43 -1 54 -19 69 -13
10 -23 24 -23 30 0 12 140 157 151 157 4 0 11 -6 17 -12z m-372 -179 c-12 -63
-104 -160 -216 -228 -47 -28 -60 -27 -60 7 0 39 24 57 100 77 63 16 90 30 90
45 0 4 -27 2 -60 -5 -33 -7 -60 -9 -60 -6 0 15 98 93 155 124 47 25 58 22 51
-14z m167 -158 c42 -81 77 -154 77 -162 0 -7 20 -63 45 -124 24 -60 47 -128
51 -151 l6 -41 -128 -9 c-71 -5 -177 -9 -236 -9 -96 0 -110 2 -129 21 l-21 21
43 69 c81 132 161 330 190 472 7 34 15 62 19 62 3 0 40 -67 83 -149z m-258
-43 c-19 -89 -77 -138 -161 -138 -49 0 -41 15 39 75 37 28 77 60 89 73 31 31
41 28 33 -10z m637 -98 c25 -49 24 -146 -1 -184 -35 -53 -92 -72 -111 -37 -17
33 -12 40 48 70 59 31 56 37 -12 22 -21 -5 -45 -7 -52 -4 -18 7 -18 37 0 52 8
7 29 37 47 67 38 62 56 65 81 14z m-727 -89 c-6 -11 -161 -106 -188 -117 -15
-5 -15 -2 0 43 25 76 35 83 120 83 44 0 72 -4 68 -9z m-4 -73 c-9 -25 -65 -68
-87 -68 -34 0 -1 50 51 78 33 19 45 15 36 -10z m819 -115 c28 -95 37 -207 21
-256 -17 -51 -63 -87 -111 -87 -29 0 -42 5 -50 20 -9 17 -4 22 43 45 30 15 67
37 83 51 l29 24 -45 -15 c-25 -8 -70 -23 -101 -34 -30 -11 -65 -18 -77 -14
-21 5 -21 6 7 47 16 22 57 72 90 109 34 37 61 72 61 77 0 6 -23 10 -50 10
l-51 0 16 30 c17 32 69 70 96 70 11 0 23 -23 39 -77z m-900 8 c0 -25 -78 -93
-167 -145 -10 -5 -13 5 -13 38 0 75 48 112 148 115 17 1 32 -3 32 -8z m780
-86 c-7 -8 -17 -15 -22 -15 -6 0 -5 7 2 15 7 8 17 15 22 15 6 0 5 -7 -2 -15z
m-840 -70 c0 -34 -1 -35 -37 -35 l-37 0 34 35 c19 19 35 35 37 35 2 0 3 -16 3
-35z m649 -42 l25 -16 -36 -33 c-20 -18 -55 -38 -78 -44 -42 -11 -187 -16
-196 -7 -12 12 18 45 57 63 32 14 43 16 47 6 2 -8 18 0 44 24 36 32 44 35 77
29 20 -3 47 -14 60 -22z m-431 -25 c5 -41 -35 -62 -119 -62 -39 -1 -69 3 -70
9 -2 16 133 85 161 83 19 -2 26 -10 28 -30z m162 2 c0 -12 -82 -60 -103 -60
-22 0 -21 12 4 44 16 20 29 26 60 26 21 0 39 -4 39 -10z m-425 -20 c10 -16
-13 -39 -67 -66 l-48 -24 0 25 c0 35 42 75 79 75 16 0 33 -5 36 -10z m745 -25
c-16 -19 -30 -19 -30 0 0 17 33 38 38 24 2 -5 -2 -16 -8 -24z m344 -41 c3 -9
6 -37 6 -62 0 -87 -84 -196 -125 -162 -23 19 -18 56 11 79 15 12 32 21 38 21
7 0 21 7 32 15 17 15 14 15 -43 9 -49 -5 -63 -3 -63 8 0 20 11 32 65 71 56 41
70 44 79 21z m-1105 -50 c-28 -30 -70 -54 -95 -54 -15 0 -15 2 2 21 26 30 75
59 98 59 18 0 18 -2 -5 -26z m-49 -104 c0 -16 -104 -93 -108 -80 -7 19 20 60
48 75 29 17 60 19 60 5z m1220 -51 c0 -30 -6 -42 -25 -55 -25 -17 -105 -32
-105 -20 0 10 59 95 82 118 27 27 48 7 48 -43z m40 -95 c0 -8 -24 -37 -52 -64
-43 -39 -57 -46 -71 -38 -24 12 -37 49 -26 70 18 35 149 63 149 32z m56 -111
c15 -32 28 -74 28 -93 1 -28 -4 -36 -25 -43 -31 -11 -88 -3 -115 17 -18 14
-17 16 21 57 24 25 33 39 22 35 -55 -19 -69 -19 -65 0 3 17 81 84 98 84 5 0
21 -26 36 -57z m-1423 8 c-10 -16 -33 -48 -51 -70 -19 -23 -29 -41 -23 -41 16
0 13 -26 -4 -44 -40 -40 -60 28 -30 102 24 56 53 82 93 82 l34 0 -19 -29z"/>
<path d="M3829 2484 c-22 -24 -24 -32 -22 -126 1 -55 6 -105 11 -111 6 -7 12
-168 15 -362 4 -268 9 -372 22 -443 14 -76 15 -105 6 -155 -34 -197 -49 -396
-44 -602 2 -115 9 -225 15 -243 6 -20 24 -42 46 -57 80 -52 187 -64 567 -65
328 -1 374 3 464 50 34 17 46 18 101 9 l63 -10 34 32 c37 37 42 72 22 172
l-12 57 -41 0 c-22 0 -92 -9 -155 -20 -133 -23 -220 -25 -276 -5 -28 10 -89
15 -205 16 -91 0 -190 4 -220 7 l-55 7 0 46 c-1 26 -7 55 -15 65 -24 28 -17
311 16 649 38 390 39 709 5 925 -13 80 -30 155 -38 168 -13 21 -19 22 -146 22
-131 0 -134 -1 -158 -26z m245 -93 c8 -22 18 -87 22 -145 6 -88 4 -109 -9
-130 -18 -26 -70 -46 -124 -46 -44 0 -43 18 8 114 22 43 38 84 35 92 -3 8 -19
14 -35 14 -24 0 -31 6 -40 31 -6 18 -11 44 -11 59 0 24 6 30 38 38 20 5 51 10
68 11 28 1 34 -4 48 -38z m-91 -362 c-6 -6 -19 -9 -29 -6 -17 3 -16 5 6 14 28
12 39 8 23 -8z m112 -46 c-15 -100 -65 -188 -127 -223 l-38 -21 0 48 c0 56 12
73 52 73 35 0 37 24 4 45 -13 9 -27 22 -30 30 -7 19 90 95 121 95 24 0 25 -2
18 -47z m11 -235 c-9 -64 -20 -86 -52 -98 -28 -11 -114 -14 -114 -4 0 4 30 40
66 80 41 46 73 74 86 74 19 0 20 -4 14 -52z m-96 -162 c0 -16 -21 -26 -56 -26
-35 0 -30 18 9 29 45 13 47 13 47 -3z m70 -61 l0 -45 -52 0 -53 0 47 45 c26
25 49 45 52 45 3 0 6 -20 6 -45z m-90 -130 c-13 -14 -27 -25 -32 -25 -4 0 -8
11 -8 25 0 21 5 25 32 25 l31 0 -23 -25z m88 -127 c-6 -179 -24 -217 -112
-233 -47 -9 -48 7 -1 91 42 74 43 87 10 102 -21 10 -24 16 -19 39 10 42 30 70
76 103 22 17 43 30 46 30 2 0 3 -60 0 -132z m-22 -293 c-8 -59 -20 -82 -59
-105 l-32 -20 38 0 c41 0 43 -5 22 -57 -14 -32 -14 -38 0 -53 17 -19 3 -40
-27 -40 -26 0 -22 -19 7 -32 33 -15 28 -25 -26 -67 l-44 -34 -11 69 c-6 38
-16 86 -22 107 -7 24 -8 73 -5 125 6 79 9 89 35 114 27 25 50 33 107 37 23 1
23 -1 17 -44z m-7 -384 c16 -29 -7 -50 -64 -57 l-50 -6 45 41 c52 46 56 48 69
22z m57 -77 c-5 -13 -2 -15 11 -9 10 4 42 10 71 13 44 4 52 2 52 -12 0 -13 4
-15 19 -6 11 5 32 10 46 10 l26 0 -21 -30 c-33 -47 -53 -53 -105 -35 -25 8
-62 15 -81 15 -30 0 -35 3 -30 17 6 15 4 14 -14 -2 -29 -26 -127 -34 -136 -11
-14 35 40 63 125 65 36 1 42 -2 37 -15z m494 -10 c0 -19 -53 -74 -73 -74 -8 0
-22 9 -32 19 -17 20 -18 20 -44 1 -29 -21 -101 -37 -101 -23 0 15 30 52 53 65
33 17 76 26 140 27 46 1 57 -2 57 -15z m440 -3 c0 -14 -75 -39 -169 -56 -100
-18 -143 -19 -159 -3 -9 9 -21 9 -50 0 -22 -7 -48 -12 -58 -12 -15 0 -13 5 11
30 26 27 35 30 94 31 36 1 95 5 131 9 97 11 200 11 200 1z"/>
<path d="M5931 2464 c-41 -87 -121 -351 -121 -399 0 -14 -10 -26 -26 -33 -31
-15 -58 -74 -74 -162 -7 -36 -15 -69 -20 -75 -4 -5 -21 -48 -38 -95 -16 -47
-57 -151 -90 -231 -33 -80 -74 -197 -92 -260 -96 -350 -122 -436 -168 -554
-49 -128 -75 -209 -86 -272 -5 -31 -4 -32 47 -49 30 -10 83 -18 126 -18 67 -1
75 1 92 24 11 14 26 59 35 100 8 41 39 136 69 210 30 74 64 170 76 213 17 60
26 76 38 73 35 -11 472 -16 556 -8 77 8 96 7 131 -8 75 -32 132 -136 236 -430
16 -47 37 -100 45 -118 l16 -33 67 7 c55 5 77 2 128 -16 108 -39 203 -15 187
48 -3 12 -50 122 -104 245 -111 249 -125 290 -151 450 -22 136 -27 149 -79
212 -47 57 -65 104 -87 228 -16 93 -26 119 -70 184 -18 27 -24 46 -20 66 4 21
2 27 -12 27 -22 0 -66 128 -50 147 6 8 3 21 -11 40 -11 15 -30 65 -42 111 -12
46 -29 90 -38 99 -9 9 -16 21 -16 27 0 14 -41 111 -80 190 -43 88 -68 99 -226
104 l-126 4 -22 -48z m168 -54 c24 -11 56 -20 71 -20 20 0 40 -14 78 -54 52
-55 76 -110 70 -160 -3 -28 -9 -31 -118 -68 -111 -37 -116 -40 -143 -83 -38
-59 -98 -111 -172 -146 l-60 -29 -3 26 c-4 31 23 64 52 64 19 1 19 2 4 11 -13
7 -18 23 -18 53 0 52 23 85 84 121 24 14 51 34 61 45 18 20 17 20 -25 20 -35
0 -40 2 -31 14 6 8 19 51 27 97 17 92 35 129 62 129 9 0 37 -9 61 -20z m176
-370 c-38 -38 -77 -70 -87 -70 -18 0 -58 45 -58 66 0 21 47 47 109 60 112 24
113 22 36 -56z m119 -22 c53 -121 53 -124 20 -159 -25 -27 -26 -30 -6 -20 28
15 59 6 66 -17 12 -37 7 -158 -7 -192 -20 -46 -90 -125 -104 -117 -14 9 -24
63 -17 91 3 14 23 31 52 46 54 26 42 37 -23 21 -74 -19 -75 -18 -60 40 15 55
14 55 -37 34 -13 -5 -20 0 -28 20 -13 35 -13 78 1 92 8 8 5 13 -10 18 -12 3
-26 16 -32 27 -10 18 -2 29 62 94 41 41 79 74 87 74 7 0 23 -24 36 -52z m-390
-135 c-15 -65 -89 -146 -197 -218 -59 -39 -87 -41 -87 -5 0 40 33 60 142 84
24 6 63 34 56 41 -2 2 -29 -3 -61 -10 -31 -7 -57 -9 -57 -4 0 22 161 139 193
139 14 0 16 -5 11 -27z m208 -249 c52 -117 127 -320 130 -354 l3 -35 -191 -14
c-196 -14 -267 -11 -300 14 -18 14 -18 15 5 57 106 189 196 411 216 537 l7 44
52 -95 c28 -53 63 -122 78 -154z m-298 49 c-11 -47 -43 -102 -68 -118 -14 -9
-50 -19 -81 -22 -55 -6 -57 -5 -45 14 7 11 34 34 59 52 25 17 64 47 86 66 49
42 57 43 49 8z m636 -98 c23 -47 20 -157 -6 -192 -46 -62 -105 -68 -112 -11
-2 20 5 28 47 48 28 13 49 25 47 27 -2 2 -25 -1 -52 -7 -42 -10 -50 -9 -61 6
-11 15 -10 21 5 38 10 12 33 45 52 74 37 59 57 64 80 17z m-720 -89 c0 -6
-175 -115 -197 -123 -18 -7 -9 34 19 90 l18 37 80 0 c44 0 80 -2 80 -4z m-10
-71 c0 -29 -80 -88 -97 -72 -13 13 12 49 45 67 45 24 52 24 52 5z m817 -129
c45 -157 40 -251 -17 -308 -21 -21 -38 -28 -67 -28 -36 0 -63 14 -63 32 0 4
26 21 58 37 31 16 65 38 76 50 18 20 18 20 -10 11 -16 -5 -62 -20 -102 -35
-97 -35 -115 -26 -71 36 18 24 59 73 91 109 32 36 58 68 58 72 0 5 -22 8 -50
8 -27 0 -50 3 -50 8 0 29 80 95 110 90 9 -2 23 -34 37 -82z m-914 -7 c-18 -31
-44 -53 -120 -102 l-43 -27 0 48 c0 26 6 56 13 65 16 23 82 46 130 47 l38 0
-18 -31z m787 -64 c-7 -9 -15 -13 -19 -10 -3 3 1 10 9 15 21 14 24 12 10 -5z
m-830 -70 c0 -35 -1 -35 -42 -35 l-43 1 39 34 c22 19 41 35 43 35 1 0 3 -16 3
-35z m633 -34 c36 -14 34 -35 -5 -65 -49 -36 -132 -53 -236 -48 -46 3 -39 29
13 59 48 27 55 28 55 6 0 -15 3 -14 18 5 45 58 86 69 155 43z m-425 -13 c20
-20 14 -46 -14 -65 -29 -19 -161 -25 -166 -8 -3 11 128 84 153 85 8 0 20 -5
27 -12z m156 -29 c-38 -42 -104 -64 -104 -34 0 29 38 55 82 55 l41 0 -19 -21z
m-415 -12 c12 -15 -14 -38 -76 -71 l-33 -17 0 31 c0 17 9 39 20 50 23 23 72
27 89 7z m751 -12 c0 -16 -27 -32 -37 -21 -7 7 16 36 28 36 5 0 9 -7 9 -15z
m340 -61 c17 -43 11 -87 -18 -138 -49 -89 -112 -111 -112 -40 0 30 5 36 49 59
67 34 70 44 10 33 -53 -10 -79 -6 -79 12 0 10 118 100 132 100 5 0 13 -12 18
-26z m-1099 -38 c-37 -40 -111 -70 -111 -46 0 15 90 70 114 70 19 0 18 -1 -3
-24z m-51 -106 c0 -17 -104 -90 -114 -80 -13 13 22 60 55 77 29 15 59 17 59 3z
m1210 -9 c15 -29 12 -77 -5 -91 -16 -13 -125 -42 -125 -33 0 7 61 96 83 121
25 27 33 28 47 3z m50 -135 c0 -8 -26 -37 -57 -66 l-57 -52 -23 26 c-38 45
-27 66 44 92 51 18 93 18 93 0z m54 -115 c33 -73 35 -127 5 -136 -30 -10 -106
4 -125 22 -14 14 -12 19 23 55 l38 39 -32 -12 c-47 -16 -58 -8 -32 25 20 26
75 66 90 66 4 0 18 -26 33 -59z m-1414 31 c0 -12 -29 -53 -64 -90 -25 -26 -28
-35 -17 -42 12 -7 12 -12 -3 -35 -24 -37 -40 -27 -44 28 -5 75 43 147 98 147
17 0 30 -3 30 -8z"/>
<path d="M11084 2298 c-12 -292 -9 -975 5 -1188 6 -96 14 -308 18 -472 l6
-296 26 -12 c37 -18 207 -25 258 -11 33 9 44 18 49 38 9 34 -3 703 -15 893 -6
80 -13 264 -16 410 -7 301 -18 418 -45 473 -17 35 -17 50 -8 184 14 203 21
193 -140 193 l-129 0 -9 -212z m170 102 c18 -17 18 -25 9 -82 -6 -35 -17 -78
-24 -96 -13 -30 -12 -37 9 -72 38 -67 22 -144 -38 -175 -43 -22 -60 -19 -60
10 0 25 31 65 51 65 5 0 7 6 2 12 -20 33 -43 318 -29 355 8 19 53 9 80 -17z
m46 -445 c17 -21 6 -115 -20 -164 -21 -43 -86 -104 -103 -98 -16 5 -21 61 -8
85 6 11 25 22 43 26 26 5 30 9 18 16 -8 5 -25 10 -37 10 -37 0 -27 30 29 87
29 29 55 53 59 53 4 0 12 -7 19 -15z m15 -262 c-10 -55 -29 -80 -67 -85 -42
-7 -58 0 -58 22 0 26 88 96 124 99 4 1 5 -16 1 -36z m-14 -150 c-12 -23 -60
-68 -88 -82 -23 -11 -23 -11 -23 44 l0 55 60 0 c55 0 60 -2 51 -17z m35 -85
c-8 -41 -22 -54 -64 -62 -31 -5 -33 -4 -26 17 8 28 34 57 59 68 34 13 38 10
31 -23z m-53 -168 c-28 -28 -61 -50 -72 -50 -18 0 -21 6 -21 50 l0 50 73 0 72
0 -52 -50z m67 -65 l0 -65 -75 0 c-42 0 -75 4 -75 10 0 19 62 79 103 99 23 12
43 21 45 21 1 0 2 -29 2 -65z m-77 -140 c26 -3 47 -10 47 -14 0 -5 -29 -34
-64 -65 -71 -62 -69 -63 -81 28 -7 51 4 70 35 62 8 -3 36 -7 63 -11z m87 -83
c0 -34 -29 -62 -65 -62 -49 0 -50 13 -2 48 48 36 67 40 67 14z m-46 -117 c-9
-23 -104 -89 -114 -79 -5 5 -12 28 -16 52 l-7 42 71 0 c59 0 70 -3 66 -15z
m20 -102 c-10 -7 -33 -13 -51 -13 -41 0 -36 14 22 60 l40 32 3 -33 c3 -23 -2
-37 -14 -46z m-45 -89 c-12 -14 -61 -44 -74 -44 -3 0 -5 14 -5 30 0 29 2 30
46 30 41 0 45 -2 33 -16z m71 -26 c-1 -26 -30 -50 -76 -64 -26 -8 -49 -13 -51
-11 -5 6 51 55 82 71 36 19 45 20 45 4z m-75 -178 c-67 -68 -106 -80 -104 -32
1 64 34 91 114 92 l49 0 -59 -60z m59 -44 c-3 -9 -13 -16 -22 -16 -13 0 -12 3
3 20 20 23 29 21 19 -4z"/>
<path d="M13575 2486 c-22 -33 -89 -235 -117 -351 -17 -69 -28 -97 -41 -101
-25 -8 -53 -68 -70 -151 -8 -39 -18 -77 -23 -84 -4 -7 -22 -53 -39 -103 -18
-50 -60 -158 -94 -239 -33 -81 -79 -216 -102 -300 -71 -263 -109 -387 -159
-517 -60 -156 -82 -232 -78 -267 3 -25 10 -30 63 -45 68 -19 157 -23 185 -8
19 10 41 69 59 157 6 28 27 91 47 140 21 48 54 140 75 203 30 93 40 115 55
113 90 -8 478 -12 549 -5 109 10 144 2 184 -43 60 -69 99 -150 187 -395 55
-149 63 -162 107 -149 49 14 92 11 147 -11 87 -34 181 -21 188 27 3 23 -14 67
-118 298 -89 199 -114 274 -135 411 -20 126 -33 163 -76 212 -46 52 -68 110
-90 230 -16 87 -26 118 -60 173 -34 57 -39 71 -29 88 9 18 8 21 -7 21 -12 0
-25 17 -40 55 -25 60 -29 95 -13 95 6 0 1 13 -11 29 -11 15 -32 68 -46 117
-13 49 -30 95 -36 103 -6 7 -17 27 -23 45 -40 107 -88 205 -113 230 -35 35
-83 45 -213 46 -92 0 -98 -1 -113 -24z m155 -76 c28 -11 64 -20 80 -20 55 0
150 -139 150 -221 0 -13 -30 -27 -123 -59 -113 -38 -125 -45 -142 -76 -34 -63
-152 -157 -222 -179 -20 -5 -23 -3 -23 19 0 29 31 66 56 66 14 0 13 2 -1 17
-13 12 -15 26 -10 57 8 56 24 77 89 116 68 42 78 60 32 60 l-34 0 13 48 c8 26
19 73 25 105 11 54 30 87 50 87 5 0 32 -9 60 -20z m168 -376 c-85 -83 -92 -84
-124 -22 -12 22 -12 33 -4 43 18 22 110 48 185 53 14 1 -2 -20 -57 -74z m110
24 c6 -7 24 -49 42 -92 l31 -79 -28 -29 -28 -30 28 13 c24 11 30 10 45 -4 13
-14 17 -36 17 -100 0 -71 -4 -88 -27 -127 -14 -25 -40 -58 -58 -75 -37 -36
-50 -25 -50 43 0 38 4 45 31 60 17 9 38 23 47 30 17 14 -2 12 -92 -5 -32 -7
-32 -5 -10 82 l7 27 -27 -17 c-39 -26 -58 -6 -54 59 3 43 -1 54 -19 69 -13 10
-23 24 -23 30 0 12 140 157 151 157 4 0 11 -6 17 -12z m-372 -179 c-9 -48 -65
-116 -141 -173 -113 -85 -135 -93 -135 -48 0 39 24 57 100 77 63 16 90 30 90
45 0 4 -27 2 -60 -5 -33 -7 -60 -9 -60 -6 0 15 98 93 155 124 47 25 58 22 51
-14z m167 -158 c42 -82 77 -155 77 -162 0 -7 20 -63 45 -124 24 -60 47 -128
51 -151 l6 -41 -128 -9 c-71 -5 -177 -9 -236 -9 -96 0 -110 2 -129 21 l-21 21
43 69 c81 132 161 330 190 472 7 34 15 62 19 62 3 0 40 -67 83 -149z m-258
-43 c-19 -89 -77 -138 -161 -138 -49 0 -41 15 39 75 37 28 77 60 89 73 31 31
41 28 33 -10z m637 -98 c25 -49 24 -146 -1 -184 -35 -53 -92 -72 -111 -37 -17
33 -12 40 48 70 59 31 56 37 -12 22 -21 -5 -45 -7 -52 -4 -18 7 -18 37 0 52 8
7 29 37 47 67 38 62 56 65 81 14z m-726 -89 c-6 -10 -188 -121 -198 -121 -10
0 23 93 40 113 12 13 31 17 89 17 41 0 72 -4 69 -9z m-5 -73 c-9 -25 -65 -68
-87 -68 -34 0 -1 50 51 78 33 19 45 15 36 -10z m819 -115 c28 -95 37 -207 21
-256 -17 -51 -63 -87 -111 -87 -29 0 -42 5 -50 20 -9 17 -4 22 43 45 30 15 67
37 83 51 l29 24 -45 -15 c-25 -8 -70 -23 -101 -34 -30 -11 -65 -18 -77 -14
-21 5 -21 6 7 47 16 22 57 72 90 109 34 37 61 72 61 77 0 6 -23 10 -50 10
l-51 0 16 30 c17 32 69 70 96 70 11 0 23 -23 39 -77z m-900 8 c0 -25 -78 -93
-167 -145 -10 -5 -13 5 -13 38 0 75 48 112 148 115 17 1 32 -3 32 -8z m780
-86 c-7 -8 -17 -15 -22 -15 -6 0 -5 7 2 15 7 8 17 15 22 15 6 0 5 -7 -2 -15z
m-840 -70 c0 -34 -1 -35 -37 -35 l-37 0 34 35 c19 19 35 35 37 35 2 0 3 -16 3
-35z m649 -42 l25 -16 -36 -33 c-20 -18 -55 -38 -78 -44 -42 -11 -187 -16
-196 -7 -12 12 18 45 57 63 32 14 43 16 47 6 2 -8 18 0 44 24 36 32 44 35 77
29 20 -3 47 -14 60 -22z m-431 -25 c5 -41 -35 -62 -119 -62 -39 -1 -69 3 -70
9 -2 16 133 85 161 83 19 -2 26 -10 28 -30z m162 2 c0 -12 -82 -60 -103 -60
-22 0 -21 12 4 44 16 20 29 26 60 26 21 0 39 -4 39 -10z m-425 -20 c10 -16
-13 -39 -67 -66 l-48 -24 0 25 c0 35 42 75 79 75 16 0 33 -5 36 -10z m745 -25
c-16 -19 -30 -19 -30 0 0 17 33 38 38 24 2 -5 -2 -16 -8 -24z m344 -41 c12
-32 5 -106 -13 -142 -21 -42 -68 -92 -85 -92 -19 0 -36 22 -36 46 0 22 42 64
64 64 7 0 21 7 32 15 17 15 14 15 -43 9 -49 -5 -63 -3 -63 8 0 20 11 32 65 71
56 41 70 44 79 21z m-1105 -50 c-28 -30 -70 -54 -95 -54 -15 0 -15 2 2 21 26
30 75 59 98 59 18 0 18 -2 -5 -26z m-49 -104 c0 -16 -104 -93 -108 -80 -7 19
20 60 48 75 29 17 60 19 60 5z m1220 -51 c0 -30 -6 -42 -25 -55 -25 -17 -105
-32 -105 -20 0 10 59 95 82 118 27 27 48 7 48 -43z m40 -95 c0 -8 -24 -37 -52
-64 -43 -39 -57 -46 -71 -38 -24 12 -37 49 -26 70 18 35 149 63 149 32z m55
-110 c15 -31 29 -71 32 -90 5 -29 2 -35 -20 -45 -32 -14 -110 -4 -128 17 -10
12 -6 22 27 56 23 25 32 38 21 34 -55 -19 -69 -19 -65 0 3 17 81 84 98 84 5 0
20 -25 35 -56z m-1422 7 c-10 -16 -33 -48 -51 -70 -19 -23 -29 -41 -23 -41 16
0 13 -26 -4 -44 -40 -40 -60 28 -30 102 24 56 53 82 93 82 l34 0 -19 -29z"/>
<path d="M10188 2490 c-26 -5 -52 -12 -59 -16 -14 -8 -8 -150 16 -404 21 -232
38 -1133 24 -1293 -8 -94 -8 -139 0 -172 6 -24 11 -97 11 -162 0 -79 4 -123
12 -131 16 -16 160 -16 176 0 9 9 18 6 39 -14 36 -34 67 -43 82 -24 10 11 11
166 7 673 -3 362 -4 674 -3 693 6 106 -2 274 -21 415 -12 88 -24 198 -28 245
-6 78 -5 87 15 104 27 25 27 61 -1 80 -25 18 -182 21 -270 6z m155 -132 c11
-13 17 -37 17 -68 0 -57 -20 -79 -79 -87 l-41 -6 21 48 c22 49 20 66 -5 46
-12 -11 -17 -6 -26 30 -12 44 -8 54 25 62 32 7 69 -3 88 -25z m-3 -192 c0 -28
-45 -81 -70 -81 -39 0 -34 43 9 72 38 26 61 29 61 9z m20 -91 c0 -34 -1 -35
-40 -35 -22 0 -40 3 -40 8 0 8 62 61 73 62 4 0 7 -16 7 -35z m18 -99 c10 -48
-59 -156 -99 -156 -35 0 -54 134 -23 165 24 24 117 17 122 -9z m26 -142 c21
-54 -13 -94 -79 -94 -44 0 -45 1 -35 23 14 26 80 87 96 87 7 0 15 -7 18 -16z
m-6 -167 c4 -37 -35 -98 -90 -137 -47 -34 -72 -39 -64 -12 2 9 7 44 11 78 4
33 10 66 14 73 10 16 59 30 96 28 25 -2 31 -7 33 -30z m6 -133 c3 -9 6 -36 6
-61 l0 -46 -61 6 c-33 3 -63 8 -67 11 -8 8 88 106 104 106 7 0 15 -7 18 -16z
m-14 -164 c0 -24 -71 -100 -93 -100 -31 0 -45 48 -27 94 9 24 15 26 65 26 48
0 55 -3 55 -20z m10 -124 l0 -53 -50 -10 c-40 -8 -52 -7 -62 4 -10 12 -3 24
39 64 28 27 56 49 62 49 7 0 11 -22 11 -54z m0 -110 c0 -12 -101 -106 -114
-106 -3 0 -6 16 -6 35 0 49 36 85 85 85 23 0 35 -5 35 -14z m16 -81 c10 -25
-6 -84 -24 -94 -10 -5 -34 -12 -55 -16 -34 -7 -37 -5 -37 15 0 27 35 86 58
100 25 14 52 12 58 -5z m-3 -162 c-3 -10 -21 -37 -40 -60 -39 -49 -42 -59 -8
-37 47 31 58 14 51 -79 -7 -105 -7 -93 0 -162 3 -33 2 -76 -3 -95 l-9 -35 -62
0 c-86 0 -96 12 -101 123 -3 76 11 275 25 340 4 20 10 22 79 22 67 0 74 -2 68
-17z"/>
<path d="M10320 680 c-13 -9 -13 -10 0 -9 8 0 24 4 35 9 l20 9 -20 0 c-11 0
-27 -4 -35 -9z"/>
<path d="M14931 2490 c-29 -5 -57 -14 -62 -21 -9 -15 -4 -106 20 -384 22 -241
36 -1089 23 -1375 -1 -36 1 -138 5 -228 6 -128 11 -165 23 -172 20 -13 146
-13 169 0 14 7 23 5 35 -9 27 -30 74 -47 89 -32 9 9 12 155 12 589 0 317 -2
629 -3 692 -2 63 -3 160 -3 215 1 55 -8 170 -19 255 -11 85 -23 200 -27 256
-5 94 -4 103 17 131 27 37 20 70 -17 84 -28 11 -184 10 -262 -1z m126 -110
c67 -24 71 -139 6 -169 -27 -13 -73 -15 -73 -3 1 4 7 18 15 32 21 36 19 59 -4
53 -13 -3 -20 2 -24 19 -13 45 -8 66 16 71 12 2 25 5 28 6 3 0 20 -4 36 -9z
m33 -206 c0 -19 -47 -85 -64 -90 -26 -9 -49 21 -35 47 16 30 99 66 99 43z m20
-94 l0 -40 -47 0 -48 1 45 39 c25 22 46 40 48 40 1 0 2 -18 2 -40z m4 -86 c41
-16 -37 -174 -86 -174 -24 0 -38 38 -38 105 0 41 4 56 18 64 19 11 82 14 106
5z m34 -189 c3 -29 -1 -43 -14 -52 -21 -15 -104 -18 -104 -3 0 19 83 101 99
98 11 -2 17 -16 19 -43z m-3 -115 c4 -6 3 -25 -1 -42 -8 -37 -113 -148 -139
-148 -15 0 -16 8 -11 58 12 103 16 113 49 128 38 16 93 18 102 4z m5 -204 l5
-58 -57 4 c-32 2 -61 7 -65 11 -9 9 88 108 102 104 5 -2 12 -30 15 -61z m-10
-108 c0 -20 -49 -84 -75 -98 -33 -17 -55 1 -55 45 0 59 6 65 71 65 39 0 59 -4
59 -12z m10 -126 l0 -58 -52 -11 c-64 -13 -79 -4 -58 34 13 23 93 93 106 93 2
0 4 -26 4 -58z m0 -109 c0 -13 -104 -113 -117 -113 -32 0 -6 91 31 108 24 12
86 15 86 5z m8 -119 c4 -49 -16 -70 -76 -80 -48 -7 -52 1 -26 51 24 46 56 76
79 73 16 -2 21 -12 23 -44z m2 -126 c0 -6 -19 -36 -41 -66 l-42 -55 32 19 c32
19 33 19 48 -1 11 -15 13 -34 8 -80 -6 -61 -7 -76 -3 -167 1 -29 -1 -70 -5
-90 l-8 -38 -55 0 c-78 0 -103 26 -106 112 -3 88 -1 127 13 261 l12 117 73 0
c50 0 74 -4 74 -12z"/>
<path d="M15070 680 c-13 -9 -13 -10 0 -10 8 0 22 5 30 10 13 9 13 10 0 10 -8
0 -22 -5 -30 -10z"/>
</g>
</svg>
