<?xml version="1.0" standalone="no"?>
<!DOCTYPE svg PUBLIC "-//W3C//DTD SVG 20010904//EN"
 "http://www.w3.org/TR/2001/REC-SVG-20010904/DTD/svg10.dtd">
<svg version="1.0" xmlns="http://www.w3.org/2000/svg"
 width="1920.000000pt" height="440.000000pt" viewBox="0 0 1920.000000 440.000000"
 preserveAspectRatio="xMidYMid meet">

<g transform="translate(0.000000,440.000000) scale(0.100000,-0.100000)"
fill="#000000" stroke="none">
<path d="M11701 3526 c-217 -209 -571 -675 -571 -752 0 -18 -153 -236 -256
-365 l-63 -78 32 -64 c18 -34 100 -162 183 -282 83 -121 166 -249 184 -285 57
-115 137 -228 218 -308 47 -46 92 -103 111 -139 38 -71 194 -281 273 -368 l55
-60 38 34 c54 47 94 61 174 61 66 0 70 1 78 27 24 71 -29 214 -120 323 -54 66
-357 340 -375 340 -5 0 -13 12 -17 27 -3 14 -37 58 -74 97 -48 50 -93 113
-151 213 -93 162 -129 255 -136 351 l-5 67 306 395 c168 217 332 422 364 455
86 89 211 261 211 290 0 7 -15 29 -33 50 l-34 39 -159 1 -159 1 -74 -70z m269
-79 c0 -16 -26 -49 -82 -105 -138 -136 -166 -150 -243 -118 -66 28 -32 74 72
100 68 17 137 48 148 66 8 13 -12 13 -74 -2 -61 -14 -72 -6 -41 27 29 31 98
53 168 54 48 1 52 -1 52 -22z m-340 -267 c0 -13 -14 -25 -44 -39 -70 -31 -86
-34 -86 -19 0 25 24 48 65 63 54 19 65 18 65 -5z m40 -83 c0 -7 -11 -29 -25
-50 -18 -26 -33 -37 -51 -37 -39 0 -83 28 -84 52 0 8 116 47 143 47 9 1 17 -5
17 -12z m-181 -98 c31 -22 41 -36 39 -52 -4 -30 -64 -58 -139 -64 l-61 -6 22
44 c30 59 68 109 84 109 7 0 32 -14 55 -31z m-16 -189 c-15 -28 -37 -62 -48
-76 -20 -25 -21 -25 -64 -9 -69 24 -85 47 -62 84 12 19 109 50 159 51 l43 0
-28 -50z m-157 -121 c19 -21 20 -20 -55 -39 -50 -13 -56 -10 -47 25 11 44 67
52 102 14z m-6 -80 c0 -5 -19 -31 -43 -56 l-43 -45 -36 15 c-68 28 -62 48 24
78 60 21 98 24 98 8z m-166 -95 c23 -9 20 -61 -8 -130 l-24 -59 -74 -2 c-68
-3 -72 -2 -53 13 11 8 26 19 34 23 11 7 11 12 0 29 -20 33 8 84 63 111 23 11
44 21 45 21 1 0 8 -3 17 -6z m-34 -283 c-5 -11 -24 -22 -41 -26 -26 -6 -36 -2
-57 19 l-27 26 68 0 c64 0 67 -1 57 -19z m64 -70 c11 -12 20 -43 23 -79 5 -52
9 -61 34 -76 33 -20 109 -115 269 -341 125 -175 184 -245 208 -245 12 0 14
-10 10 -50 -5 -49 -5 -50 23 -50 40 0 85 -43 162 -158 47 -70 67 -108 67 -131
0 -19 -5 -31 -13 -31 -25 0 -105 58 -179 132 -94 92 -132 149 -125 184 4 22
-3 31 -64 71 -70 46 -99 89 -76 112 6 6 9 12 6 14 -77 54 -82 62 -155 213 -63
128 -85 164 -143 226 -124 133 -155 193 -113 217 26 16 47 13 66 -8z"/>
<path d="M16148 3590 c-64 -11 -66 -14 -61 -62 3 -24 0 -95 -6 -158 -38 -397
-38 -426 11 -629 23 -98 22 -217 -9 -751 -18 -315 -23 -960 -8 -1055 10 -59
10 -59 55 -73 53 -16 236 -11 289 8 39 15 61 58 61 121 0 23 12 114 26 203 25
151 26 175 20 391 -3 127 -13 316 -21 420 -34 443 -30 716 11 732 9 3 28 -7
45 -23 85 -81 346 -461 419 -609 24 -48 67 -111 106 -155 41 -47 81 -106 105
-156 43 -89 68 -121 103 -130 18 -4 36 -32 81 -129 65 -140 101 -189 149 -205
23 -7 36 -19 40 -35 4 -16 14 -25 25 -25 14 0 21 -10 26 -37 11 -61 30 -87
127 -175 50 -45 110 -101 133 -124 39 -39 47 -42 156 -63 130 -24 179 -27 179
-8 0 6 -9 40 -20 74 -47 150 -52 733 -10 1118 26 235 24 430 -10 770 -11 115
-20 246 -20 291 0 45 -7 119 -16 165 -10 56 -13 105 -9 154 l7 72 -33 14 c-22
9 -71 13 -139 13 -135 -1 -179 -18 -197 -79 -17 -62 -37 -434 -25 -481 25 -98
22 -1060 -3 -1126 -4 -10 -13 -18 -20 -18 -24 0 -162 157 -306 350 -220 293
-271 371 -367 561 -91 180 -152 281 -380 630 l-135 207 -74 11 c-83 12 -234
13 -305 1z m111 -124 l23 -13 -37 -23 c-39 -24 -54 -18 -55 21 0 32 28 38 69
15z m110 -73 c-94 -109 -166 -182 -172 -176 -16 15 -5 63 22 99 55 74 107 113
155 114 l28 0 -33 -37z m120 -10 c14 -30 18 -25 -67 -74 -29 -17 -56 -29 -59
-26 -7 7 28 65 61 100 32 34 50 34 65 0z m1552 -27 c8 -16 8 -43 0 -92 -8 -55
-16 -73 -37 -90 -18 -15 -23 -24 -14 -29 14 -8 -106 -135 -127 -135 -9 0 -13
20 -13 70 l0 70 31 0 31 0 -25 29 c-13 16 -28 46 -31 66 -6 31 -3 51 19 123 3
8 28 12 80 12 70 0 76 -2 86 -24z m-1459 -137 l18 -34 -196 -98 c-108 -54
-200 -97 -206 -95 -14 5 125 135 206 193 65 46 130 77 151 71 6 -1 18 -18 27
-37z m-275 -69 c-103 -63 -117 -69 -117 -46 0 43 108 105 185 106 24 0 14 -9
-68 -60z m390 -89 c115 -127 223 -308 223 -373 0 -23 -6 -29 -37 -37 -21 -6
-55 -11 -75 -11 -44 0 -46 9 -23 86 8 27 15 58 15 69 -1 18 -3 17 -24 -7 -13
-15 -31 -37 -40 -49 -15 -22 -16 -22 -37 -3 -32 28 -59 93 -59 142 0 34 -3 42
-19 42 -28 0 -64 33 -94 88 -21 39 -24 52 -14 60 20 17 101 62 112 62 6 0 38
-31 72 -69z m1324 -20 c-17 -32 -127 -175 -149 -195 l-22 -19 0 45 c0 44 3 49
76 117 74 69 116 93 95 52z m-1654 -178 c15 -50 15 -52 -6 -87 -27 -43 -120
-128 -135 -123 -7 2 -11 49 -11 138 l0 134 60 32 60 32 8 -37 c4 -20 15 -60
24 -89z m1661 -23 l5 -80 -26 0 c-92 0 -102 52 -30 148 34 46 45 31 51 -68z
m-43 -114 c19 -8 35 -21 35 -28 0 -8 -27 -40 -60 -73 -69 -68 -89 -68 -103 2
-6 33 -4 47 14 77 24 41 54 47 114 22z m-1035 -132 c-10 -42 -36 -74 -61 -74
-10 0 -28 14 -40 31 -34 48 -7 74 82 78 26 1 27 -1 19 -35z m1113 5 c22 -30
10 -58 -40 -93 l-45 -31 47 -3 47 -3 -6 -42 c-7 -46 -56 -123 -111 -177 -36
-35 -46 -70 -20 -70 17 0 44 25 88 83 30 39 57 49 57 20 0 -23 -63 -147 -98
-192 -22 -30 -23 -34 -6 -27 10 4 32 10 47 13 28 6 28 6 25 -43 l-3 -49 -77
-3 c-43 -2 -78 0 -78 3 0 4 4 14 10 24 7 15 3 25 -20 50 -28 28 -30 36 -30
103 1 107 17 218 37 246 38 52 38 54 26 59 -48 18 57 153 119 153 9 0 23 -9
31 -21z m-1705 -16 c-3 -16 -102 -92 -120 -93 -5 0 -8 11 -8 25 0 31 30 62 67
71 16 3 33 7 38 9 21 7 26 4 23 -12z m658 -85 c59 -41 68 -100 17 -119 -39
-15 -62 -11 -88 16 -34 33 -33 77 1 104 33 26 31 26 70 -1z m-656 -7 c0 -41
-37 -80 -87 -96 -47 -13 -21 50 34 87 30 20 53 23 53 9z m10 -146 c0 -28 -28
-71 -72 -110 l-43 -39 -13 48 c-17 61 -6 91 40 105 53 15 88 13 88 -4z m746
-26 c-4 -23 -16 -55 -27 -71 -21 -28 -22 -29 -41 -11 -49 44 -46 97 6 112 63
19 69 16 62 -30z m88 -60 c54 -43 73 -150 38 -219 -21 -43 -51 -46 -69 -8 -17
34 -9 51 30 70 l32 15 -57 0 c-58 0 -88 14 -88 39 0 17 68 124 79 124 5 0 20
-9 35 -21z m-826 -51 c3 -38 -8 -53 -51 -63 -22 -6 -27 -4 -27 12 0 25 49 95
63 90 7 -2 13 -19 15 -39z m-18 -116 c0 -4 -29 -37 -65 -72 -60 -59 -65 -62
-65 -39 0 52 20 87 58 103 41 17 72 20 72 8z m1038 -137 c34 -69 67 -125 73
-125 17 0 78 -50 84 -71 10 -31 -12 -56 -60 -68 -52 -13 -91 -1 -81 26 3 8 9
27 13 41 6 24 4 25 -10 14 -9 -7 -28 -12 -44 -10 -26 3 -28 6 -27 51 0 45 -1
49 -29 54 -44 9 -61 43 -54 114 5 63 26 99 56 99 11 0 37 -42 79 -125z m-1014
10 c-3 -16 -15 -40 -27 -52 -20 -22 -82 -41 -94 -29 -8 8 44 82 80 112 35 30
51 18 41 -31z m1631 -62 c-10 -16 -27 -38 -38 -50 l-20 -23 42 0 c39 0 41 -1
31 -20 -12 -23 -106 -80 -132 -80 -16 0 -18 11 -18 100 l0 100 76 0 76 0 -17
-27z m-1695 -101 c0 -4 -20 -27 -43 -50 -38 -37 -45 -41 -56 -28 -22 27 -9 60
29 73 41 14 70 16 70 5z m80 -93 c0 -40 -18 -65 -57 -80 -84 -32 -86 28 -4
114 33 34 37 36 48 20 7 -9 13 -34 13 -54z m1650 -25 c0 -123 -44 -279 -93
-333 -26 -28 -93 -60 -126 -61 -23 0 -23 0 -5 28 49 73 114 187 114 199 0 33
-88 -2 -192 -78 l-71 -51 -41 48 c-22 26 -41 53 -41 59 0 15 103 68 120 61 8
-3 15 -15 15 -27 0 -18 4 -20 28 -15 46 11 75 40 114 111 47 89 80 123 121
127 53 6 57 1 57 -68z m-440 -8 c0 -30 2 -33 26 -28 29 5 44 -10 44 -44 0 -16
-14 -27 -57 -47 l-58 -26 -3 39 c-3 38 -4 39 -29 27 -21 -9 -27 -8 -39 7 -17
24 -5 48 44 81 52 36 72 33 72 -9z m-1299 -143 c-11 -27 -29 -70 -40 -96 -13
-30 -21 -70 -21 -103 0 -31 -5 -64 -11 -76 -10 -18 -8 -19 13 -13 34 11 80 35
101 53 23 21 42 3 33 -32 -8 -34 -36 -47 -106 -49 -90 -3 -95 6 -95 156 0 102
3 128 18 151 20 29 67 55 104 56 l23 0 -19 -47z m103 -20 c-9 -37 -39 -97 -56
-110 -7 -6 -23 -14 -35 -17 -19 -6 -23 -4 -23 14 0 55 60 140 100 140 17 0 19
-4 14 -27z m1426 -104 c-15 -35 -66 -81 -120 -109 -49 -25 -50 -25 -50 3 0 44
45 91 125 132 54 28 64 22 45 -26z m185 -146 c-12 -49 -68 -93 -117 -93 -19 0
-14 8 37 60 66 66 91 77 80 33z m-175 -33 c0 -17 -39 -50 -60 -50 -27 0 -25
25 2 44 25 18 58 21 58 6z m-1490 -74 c0 -23 -136 -136 -164 -136 -22 0 -26 4
-26 30 0 25 24 90 33 90 1 0 20 7 42 15 52 19 115 20 115 1z m1653 -127 c-4
-4 -29 -3 -55 2 -42 9 -48 14 -48 35 0 21 10 29 53 48 l52 24 3 -51 c2 -27 0
-53 -5 -58z"/>
<path d="M8674 3561 c-65 -30 -95 -33 -169 -17 -58 12 -72 13 -83 2 -40 -39
-90 -261 -191 -851 -63 -365 -134 -730 -168 -860 -25 -98 -79 -235 -92 -235
-30 0 -100 121 -101 172 0 16 -29 106 -65 200 -42 110 -71 206 -81 263 -19
117 -58 230 -140 412 -37 82 -86 200 -109 263 -24 63 -62 164 -85 224 -63 165
-70 239 -25 276 9 7 23 27 31 42 33 64 -28 82 -271 83 -171 0 -182 -1 -217
-23 -33 -20 -40 -33 -59 -95 -11 -40 -40 -137 -64 -217 -87 -288 -115 -399
-115 -451 0 -38 -46 -217 -161 -629 -152 -545 -188 -650 -218 -650 -11 0 -183
523 -221 675 -16 61 -74 243 -130 405 -109 320 -148 451 -192 660 -33 157 -33
149 -18 217 13 62 3 89 -38 100 -15 5 -95 8 -178 7 -132 0 -154 -2 -185 -20
-34 -20 -34 -21 -33 -90 2 -55 12 -98 54 -214 28 -80 83 -248 121 -374 38
-126 72 -233 75 -237 3 -5 7 -36 10 -69 4 -61 33 -153 94 -305 17 -43 34 -102
37 -130 3 -27 32 -149 64 -270 122 -460 234 -770 307 -847 30 -32 46 -34 100
-13 33 14 42 14 73 1 46 -19 156 -38 179 -31 57 18 160 264 301 715 87 278
251 858 274 965 23 112 66 277 77 298 21 41 61 -29 128 -223 29 -85 51 -132
67 -146 16 -14 21 -24 14 -28 -6 -4 -11 -16 -11 -27 0 -11 43 -158 95 -326 52
-168 95 -320 95 -337 0 -41 26 -116 80 -231 24 -49 45 -110 48 -135 2 -25 31
-130 63 -233 80 -257 75 -252 273 -294 83 -17 164 -32 179 -32 48 -1 91 62
154 229 35 92 180 565 253 825 34 121 95 335 135 475 47 162 72 265 68 282
-12 60 32 435 69 588 6 25 22 66 34 92 28 56 30 98 7 136 -35 57 -67 64 -139
33z m-112 -143 l68 -12 0 -48 c0 -46 -1 -47 -37 -57 -21 -6 -64 -11 -96 -11
-55 0 -57 1 -45 20 10 16 10 24 0 40 -25 40 -7 98 27 85 8 -3 45 -11 83 -17z
m-3072 -23 c0 -8 9 -15 20 -15 87 0 136 -103 195 -410 20 -102 40 -169 72
-231 12 -26 23 -64 23 -85 0 -46 -38 -114 -81 -145 -31 -22 -32 -22 -45 -4
-20 27 -18 36 15 75 l29 35 -29 12 c-33 14 -38 45 -13 81 20 29 14 35 -18 23
-35 -13 -64 9 -94 73 -34 72 -32 112 9 154 31 33 31 34 7 27 -14 -4 -29 -8
-34 -9 -4 0 -19 35 -31 79 -27 96 -85 258 -108 302 -17 31 -17 31 11 41 41 16
72 14 72 -3z m1554 -21 c9 -3 14 -9 12 -13 -3 -4 22 -5 55 -3 43 3 65 0 83
-11 49 -33 121 -201 133 -311 l6 -58 -74 7 c-102 10 -108 18 -59 71 44 48 47
56 26 73 -12 10 -17 8 -25 -8 -36 -67 -86 -69 -148 -7 l-44 45 -36 -25 c-69
-46 -89 -15 -27 42 l35 34 -27 0 -27 0 7 62 c8 77 27 108 65 108 16 0 36 -3
45 -6z m1546 -129 c-23 -25 -163 -125 -174 -125 -10 0 -7 70 4 90 14 27 45 41
104 50 93 14 93 14 66 -15z m68 -77 c6 -74 -49 -132 -138 -144 -25 -3 -53 -8
-62 -11 -23 -6 -24 33 -2 65 21 31 166 132 184 129 9 -1 16 -16 18 -39z
m-1701 -114 c2 -6 -9 -16 -24 -24 -101 -47 -113 -45 -67 10 21 24 33 30 57 28
17 -2 32 -8 34 -14z m-17 -109 c0 -24 -3 -25 -52 -25 l-53 1 28 24 c38 34 77
34 77 0z m1590 5 c-28 -21 -173 -100 -185 -100 -14 0 3 81 21 101 14 16 31 19
103 19 l86 0 -25 -20z m-1230 -9 c0 -14 -41 -41 -63 -41 -27 0 -17 33 13 41
37 10 50 10 50 0z m85 -53 c30 -64 32 -112 6 -154 -21 -35 -65 -51 -87 -33
-22 18 -17 34 23 62 l38 27 -38 0 c-47 0 -83 31 -67 59 8 16 89 90 98 91 2 0
14 -24 27 -52z m1223 1 c-9 -86 -57 -129 -153 -137 -33 -2 -56 1 -69 11 -18
13 -12 19 89 96 59 44 115 81 123 81 11 0 14 -11 10 -51z m-1698 -32 c0 -24
-37 -48 -79 -54 -34 -5 -41 -3 -41 11 0 41 19 56 70 56 35 0 50 -4 50 -13z
m-2 -119 c-12 -54 -33 -88 -56 -88 -15 -1 -15 -2 2 -15 34 -26 -5 -67 -76 -79
-35 -6 -38 -5 -38 17 0 88 90 207 156 207 20 0 21 -3 12 -42z m550 -55 c6 -10
13 -37 17 -60 l7 -43 -66 0 -66 0 15 37 c18 43 52 83 71 83 7 0 17 -8 22 -17z
m1037 -18 c-66 -57 -109 -84 -143 -91 -27 -5 -32 -4 -32 12 0 32 39 84 73 99
17 8 57 14 87 14 l55 1 -40 -35z m55 -125 c-17 -65 -55 -98 -123 -111 -32 -5
-72 -9 -90 -7 l-32 3 40 44 c22 24 78 75 125 112 l85 67 3 -33 c2 -19 -2 -52
-8 -75z m-2691 -63 c26 -76 26 -118 1 -192 -11 -32 -20 -60 -20 -62 0 -11 30
0 45 17 31 34 45 25 45 -30 l0 -50 -65 0 c-58 0 -65 -2 -65 -20 0 -18 7 -20
80 -20 59 0 80 -3 80 -13 0 -17 -52 -98 -76 -118 -44 -37 -54 -33 -84 34 -62
136 -78 269 -38 306 12 12 31 24 42 28 15 6 3 9 -41 13 l-62 5 29 70 c33 78
74 123 95 105 8 -6 23 -39 34 -73z m1585 12 c-36 -36 -44 -40 -63 -30 -23 13
-28 40 -9 59 7 7 35 12 62 12 l51 0 -41 -41z m-614 21 c0 -35 -89 -150 -116
-150 -13 0 -27 28 -19 40 2 4 18 13 35 20 22 9 28 16 21 23 -17 17 -13 55 7
66 23 14 72 14 72 1z m705 -90 c18 -34 19 -66 4 -76 -8 -4 -8 -9 0 -17 21 -21
13 -86 -14 -112 -32 -33 -45 -32 -88 13 -35 36 -36 39 -21 60 13 19 13 27 3
57 -12 34 -12 36 21 70 42 44 74 46 95 5z m920 -49 c-3 -6 -42 -37 -86 -71
l-81 -61 6 38 c12 65 17 74 49 88 36 16 121 20 112 6z m-1685 -78 c0 -49 -34
-116 -73 -145 -54 -41 -56 -41 -52 -6 3 18 7 55 11 82 7 58 47 106 88 106 23
0 26 -4 26 -37z m1710 -50 c-14 -63 -53 -107 -108 -123 -52 -14 -77 -13 -92 6
-11 13 -4 25 51 81 35 36 84 79 109 95 40 25 45 27 49 11 2 -9 -2 -41 -9 -70z
m-860 -69 c33 -96 34 -111 7 -118 -13 -3 -40 -21 -60 -41 -60 -58 -94 -38 -41
24 14 17 21 31 16 31 -5 0 -21 9 -35 21 -26 20 -26 21 -10 47 28 45 77 93 92
90 8 -2 22 -26 31 -54z m-930 -125 c0 -26 -243 -718 -269 -768 -15 -26 -180
-101 -241 -108 l-54 -6 22 37 c28 47 27 48 -4 36 -51 -20 -70 -13 -95 35 -30
55 -21 67 57 73 56 5 57 4 95 -37 22 -24 47 -41 60 -41 58 0 152 98 189 197
12 32 42 137 67 233 55 213 85 296 124 343 37 45 49 46 49 6z m1596 -18 c-14
-26 -34 -41 -57 -41 -13 0 17 57 33 63 33 13 39 7 24 -22z m104 -28 c0 -50
-21 -106 -51 -135 -25 -26 -34 -29 -81 -26 -46 3 -53 6 -56 25 -4 29 58 97
123 134 27 16 53 29 58 29 4 0 7 -12 7 -27z m-690 -8 c0 -36 -39 -71 -89 -80
-23 -4 -45 -4 -48 -1 -10 9 58 77 92 92 42 18 45 17 45 -11z m-1701 -22 c16
-58 13 -102 -14 -177 -13 -39 -22 -72 -19 -75 3 -3 19 9 35 27 16 17 33 32 38
32 12 0 41 -63 41 -88 0 -35 -27 -52 -84 -52 -66 0 -78 12 -109 107 l-23 70
41 27 40 26 -47 0 c-59 0 -61 12 -12 71 68 82 97 90 113 32z m1701 -138 c-24
-50 -72 -95 -101 -95 -25 0 -54 59 -45 94 3 14 16 31 28 37 27 15 132 27 136
17 2 -5 -6 -28 -18 -53z m56 -51 c20 -29 24 -108 7 -125 -6 -6 -32 -14 -57
-16 -47 -6 -76 7 -76 32 0 17 87 135 100 135 5 0 17 -12 26 -26z m508 -29
c-29 -38 -82 -75 -108 -75 -13 0 -16 11 -16 55 l0 55 76 0 75 0 -27 -35z m26
-65 c0 -32 -39 -125 -70 -169 -32 -44 -75 -71 -113 -71 -52 0 -35 41 27 63 17
7 17 8 -4 25 l-22 18 82 77 c46 42 87 77 92 77 4 0 8 -9 8 -20z m-513 -123
c-14 -23 -37 -53 -52 -67 l-27 -25 -19 24 c-11 14 -19 39 -19 62 0 37 2 39 43
49 23 6 53 15 67 19 35 11 37 -10 7 -62z m-1720 -26 c-14 -21 -42 -46 -62 -55
-49 -23 -65 -10 -65 55 0 54 -4 51 95 67 44 7 50 6 53 -11 2 -10 -8 -36 -21
-56z m69 -26 c9 -36 -4 -106 -23 -127 -11 -13 -31 -18 -65 -18 -43 0 -48 2
-48 22 0 47 79 147 117 148 7 0 15 -11 19 -25z m1722 -15 c4 -48 -15 -70 -66
-77 -35 -5 -42 -3 -42 11 0 26 19 58 48 84 37 30 56 25 60 -18z m357 -62 c-22
-71 -77 -121 -150 -133 l-40 -7 60 53 c33 30 73 66 90 81 37 34 48 35 40 6z
m-335 -93 c-5 -14 -17 -36 -25 -49 -15 -23 -15 -25 2 -35 14 -8 9 -10 -29 -11
-57 0 -88 24 -88 70 0 25 5 31 33 39 17 5 51 10 74 10 41 1 42 0 33 -24z m150
-129 c0 -18 -150 -148 -164 -143 -15 4 -57 89 -54 106 2 10 32 21 88 32 109
22 130 23 130 5z m98 -49 c-8 -71 -28 -100 -76 -116 -24 -7 -46 -11 -49 -7
-10 9 17 88 39 116 21 27 55 49 77 50 10 0 12 -11 9 -43z m-1721 -3 c-10 -59
-32 -84 -75 -84 -45 0 -101 15 -127 34 -18 13 -16 15 23 35 43 22 133 49 166
50 16 1 18 -4 13 -35z"/>
<path d="M1863 3549 c-198 -15 -382 -63 -498 -129 -89 -51 -172 -135 -247
-250 -92 -141 -113 -208 -105 -344 11 -207 103 -381 239 -452 16 -8 277 -123
580 -255 304 -132 567 -250 584 -262 73 -49 136 -190 137 -307 1 -131 -55
-214 -187 -276 -152 -72 -430 -122 -524 -94 -26 8 -85 16 -132 18 -47 2 -90 8
-97 13 -6 6 -36 9 -65 8 -51 -2 -61 2 -220 94 -92 54 -172 97 -177 97 -6 0
-18 -26 -26 -57 -39 -143 -68 -197 -110 -207 -21 -5 -25 -11 -19 -29 17 -56
108 -158 169 -190 25 -13 62 -21 100 -23 33 -1 87 -7 120 -13 249 -44 627 -57
770 -26 104 22 266 74 285 90 8 8 49 21 90 29 41 9 104 30 138 47 83 40 108
81 156 246 20 70 50 173 67 228 52 171 49 252 -13 377 -37 72 -157 203 -238
258 -132 89 -232 128 -363 141 -119 12 -179 33 -294 106 -157 100 -209 125
-283 133 -93 10 -150 42 -246 135 -104 102 -119 130 -118 220 2 147 75 236
249 306 113 45 220 62 345 56 133 -6 172 -20 474 -164 265 -126 247 -124 298
-44 28 44 28 47 28 201 l0 156 -38 37 c-38 37 -43 39 -221 72 -101 19 -208 35
-239 35 -32 1 -93 7 -137 15 -87 16 -83 16 -232 4z m422 -125 c182 -28 320
-58 351 -79 l21 -14 -24 -93 c-14 -51 -27 -95 -29 -97 -2 -2 -17 2 -34 9 -39
16 -47 49 -26 115 9 28 16 55 16 58 0 13 -28 7 -84 -18 -31 -14 -59 -25 -61
-25 -3 0 -5 17 -5 37 l0 36 -22 -19 c-52 -45 -52 -45 -93 -11 -25 20 -40 27
-43 19 -2 -7 -21 -12 -43 -12 -40 0 -79 26 -91 61 -4 11 -8 12 -19 2 -13 -13
-86 -18 -113 -7 -19 7 -21 45 -4 62 15 15 82 10 303 -24z m-369 -13 c-23 -26
-69 -35 -96 -21 -12 6 -19 14 -16 18 6 6 72 18 110 21 18 1 18 0 2 -18z m-316
-41 c0 -31 -148 -101 -184 -87 -49 19 74 94 157 96 15 1 27 -3 27 -9z m885
-110 c-10 -11 -20 -18 -23 -15 -3 3 3 14 13 25 10 11 20 18 23 15 3 -3 -3 -14
-13 -25z m-1135 -47 c-1 -24 -34 -95 -51 -110 -8 -6 -26 -14 -42 -18 -21 -6
-27 -4 -27 9 0 28 27 71 65 105 40 35 55 39 55 14z m-100 -183 c0 -17 -7 -20
-45 -20 -50 0 -61 16 -17 26 15 3 32 7 37 9 21 7 25 4 25 -15z m-20 -85 c0
-23 -46 -66 -63 -59 -14 5 -37 45 -37 64 0 6 23 10 50 10 38 0 50 -4 50 -15z
m-20 -149 c0 -26 -23 -56 -44 -56 -20 0 -36 22 -36 52 0 26 3 28 40 28 36 0
40 -3 40 -24z m4 -93 c-16 -12 -54 -18 -54 -9 0 2 15 13 33 25 35 22 54 8 21
-16z m16 -73 c0 -5 -11 -10 -25 -10 -14 0 -25 5 -25 10 0 6 11 10 25 10 14 0
25 -4 25 -10z m90 -25 c18 -22 0 -37 -39 -33 -31 3 -31 4 -16 26 19 26 37 28
55 7z m90 -73 c0 -24 -28 -62 -45 -62 -28 0 -66 24 -63 39 3 16 56 39 91 40
10 1 17 -6 17 -17z m98 -48 c34 -24 26 -34 -28 -34 -51 0 -64 12 -38 38 16 16
39 15 66 -4z m181 -77 c8 -11 5 -19 -14 -37 -24 -23 -25 -23 -70 -6 -59 23
-64 34 -18 41 21 4 43 8 48 10 22 8 43 4 54 -8z m139 -53 c12 -8 22 -21 22
-30 0 -12 -9 -13 -52 -8 -60 8 -78 18 -78 46 0 18 5 19 43 13 23 -4 52 -13 65
-21z m222 -135 c32 -17 33 -18 10 -19 -24 0 -90 33 -90 46 0 8 38 -5 80 -27z
m200 -73 c0 -11 -19 -15 -25 -6 -3 5 1 10 9 10 9 0 16 -2 16 -4z m173 -25 c31
-12 43 -46 25 -68 -10 -13 -10 -17 0 -20 20 -7 14 -33 -9 -33 -25 0 -53 15
-101 53 -42 34 -54 57 -36 69 18 11 91 10 121 -1z m219 -127 c9 -3 19 -11 22
-19 4 -13 -9 -15 -80 -15 -64 0 -85 3 -82 13 11 32 71 41 140 21z m128 -113
c34 -25 36 -53 4 -90 -25 -30 -91 -71 -114 -71 -18 0 -10 39 12 54 l21 15 -29
11 c-72 26 -84 33 -84 50 0 17 16 25 100 54 22 7 62 -3 90 -23z m65 -158 c-11
-83 -15 -93 -41 -103 -35 -14 -88 -12 -102 2 -31 31 3 84 80 122 29 14 56 26
61 26 4 0 5 -21 2 -47z m-55 -215 c-1 -70 -46 -134 -108 -153 -21 -6 -23 -4
-20 17 2 12 13 27 26 33 15 6 20 15 16 25 -20 46 -16 67 18 88 49 32 68 29 68
-10z m-111 -199 c30 -10 32 -15 27 -41 -26 -131 -133 -194 -418 -249 -62 -12
-118 -27 -126 -35 -16 -17 -85 -18 -115 -3 -69 36 -88 93 -41 124 16 10 35 14
53 10 16 -3 85 1 154 10 145 17 203 19 212 5 3 -5 21 -10 40 -10 39 0 80 41
121 123 42 84 42 84 93 66z m-1344 -121 c14 -6 25 -15 25 -19 0 -13 -50 -47
-86 -59 -19 -6 -34 -15 -34 -20 0 -21 23 -19 70 5 l50 25 0 -27 c0 -37 -36
-73 -75 -73 -68 0 -92 49 -61 124 22 53 60 68 111 44z m138 -79 c-10 -17 -28
-39 -40 -49 -17 -13 -19 -20 -10 -29 8 -8 4 -11 -17 -11 -24 0 -28 3 -22 23 3
12 6 27 6 33 0 22 49 64 75 64 l26 0 -18 -31z m206 -21 c-16 -58 -41 -83 -89
-86 -48 -4 -100 14 -100 33 0 43 72 83 152 84 l47 1 -10 -32z m250 -24 c23
-30 27 -64 9 -82 -8 -8 -49 -12 -116 -12 l-105 0 6 42 c8 61 33 78 117 78 62
0 71 -2 89 -26z"/>
<path d="M2095 1040 c-9 -15 -1 -23 21 -18 15 3 16 4 1 16 -11 9 -17 10 -22 2z"/>
<path d="M4017 3504 c-46 -91 -157 -452 -157 -511 0 -16 -6 -23 -18 -23 -40 0
-73 -66 -97 -191 -8 -43 -21 -89 -29 -102 -8 -12 -20 -42 -26 -67 -6 -25 -48
-133 -92 -240 -99 -240 -128 -322 -179 -520 -64 -244 -116 -411 -184 -590 -69
-180 -98 -278 -93 -318 3 -23 12 -29 63 -45 33 -10 97 -21 143 -24 121 -8 120
-9 175 222 8 33 36 112 63 175 26 63 64 169 84 235 l37 120 169 -5 c242 -7
433 -6 554 4 124 10 144 4 208 -69 68 -77 100 -150 258 -583 20 -55 41 -75 68
-67 63 18 132 17 181 -5 100 -44 226 -36 245 16 11 29 4 49 -103 286 -141 311
-176 405 -196 538 -35 224 -39 236 -102 308 -62 71 -79 119 -115 319 -13 78
-23 104 -61 163 -38 59 -45 77 -40 105 5 28 2 34 -15 37 -31 5 -81 146 -62
176 9 13 6 24 -11 47 -13 17 -37 80 -54 140 -20 68 -39 116 -51 127 -11 9 -20
25 -20 36 0 18 -14 52 -87 214 -29 64 -63 101 -107 118 -17 6 -96 14 -177 17
l-147 6 -25 -49z m203 -79 c33 -14 72 -25 88 -25 44 0 145 -109 166 -180 30
-100 28 -104 -66 -138 -46 -16 -113 -39 -150 -51 -38 -13 -68 -26 -68 -31 0
-19 -92 -128 -139 -163 -54 -41 -141 -87 -166 -87 -33 0 -4 87 31 96 20 5 23
11 18 28 -11 33 -5 105 11 135 8 16 48 50 89 76 93 61 101 75 40 75 -42 0 -44
1 -34 20 6 11 18 57 25 102 19 105 32 145 53 158 25 14 37 12 102 -15z m220
-441 c-41 -41 -87 -82 -101 -89 -30 -16 -43 -7 -74 54 -17 34 -17 35 6 53 36
27 130 52 214 57 28 1 27 -2 -45 -75z m125 -11 c29 -61 65 -155 65 -172 0 -8
-14 -30 -32 -48 -18 -18 -27 -33 -21 -33 7 0 15 5 18 10 3 6 17 10 30 10 41 0
57 -38 58 -137 2 -80 -1 -93 -27 -141 -28 -49 -101 -132 -118 -132 -13 0 -30
80 -23 111 5 22 18 35 55 54 87 44 77 55 -29 30 -35 -9 -66 -13 -69 -10 -3 3
0 28 6 56 17 70 16 72 -20 53 -31 -16 -32 -16 -50 6 -19 24 -24 94 -9 120 7
10 2 19 -20 32 -52 32 -49 43 47 139 49 49 96 89 104 89 9 0 25 -17 35 -37z
m-465 -178 c0 -42 -39 -106 -99 -165 -66 -64 -215 -165 -230 -155 -6 3 -11 20
-11 36 0 47 36 75 123 94 45 10 82 24 93 36 9 10 15 21 13 23 -2 3 -33 -2 -68
-10 -35 -8 -66 -13 -69 -10 -17 18 194 175 236 176 6 0 12 -11 12 -25z m196
-197 c49 -95 91 -182 92 -193 2 -11 28 -81 57 -155 54 -136 82 -226 73 -236
-8 -8 -354 -34 -451 -34 -90 0 -152 16 -163 43 -3 8 26 68 64 134 84 147 161
338 199 495 15 65 31 118 34 118 4 0 47 -78 95 -172z m-308 -65 c-24 -88 -58
-132 -117 -152 -39 -13 -121 -15 -121 -3 0 12 45 51 126 110 40 29 77 59 84
67 25 30 39 18 28 -22z m756 -82 c39 -43 58 -168 35 -228 -14 -37 -54 -79 -91
-94 -26 -10 -32 -10 -48 7 -41 43 -35 57 43 97 59 31 66 37 37 32 -111 -18
-118 -18 -124 2 -4 13 12 47 54 111 34 51 64 92 69 92 4 0 16 -9 25 -19z
m-854 -135 c0 -5 -101 -71 -186 -121 -41 -24 -74 -42 -74 -39 0 2 9 33 21 67
31 94 36 97 146 97 51 0 93 -2 93 -4z m-10 -85 c0 -36 -106 -108 -127 -87 -13
13 21 55 66 80 55 31 61 31 61 7z m992 -166 c54 -190 48 -297 -22 -367 -32
-32 -44 -38 -81 -38 -39 0 -79 20 -79 41 0 4 36 26 79 49 43 23 87 50 97 61
18 20 18 20 -11 13 -17 -3 -61 -20 -98 -36 -68 -29 -167 -48 -167 -32 0 14 75
110 151 195 38 42 69 82 69 88 0 7 -22 11 -60 11 -33 0 -60 3 -60 6 0 4 9 21
20 40 26 41 77 75 109 72 22 -3 28 -14 53 -103z m-1106 8 c-19 -38 -59 -73
-136 -122 -58 -38 -65 -40 -71 -24 -10 24 0 82 17 110 24 38 81 59 167 62 l38
1 -15 -27z m949 -93 c-10 -11 -20 -18 -23 -15 -7 6 18 35 31 35 5 0 2 -9 -8
-20z m-1005 -75 l0 -45 -51 0 -51 0 49 45 c26 24 49 44 51 45 1 0 2 -20 2 -45z
m772 -51 c37 -19 34 -38 -13 -76 -48 -39 -125 -58 -236 -58 -74 0 -93 3 -93
14 0 21 25 43 81 72 l49 24 0 -21 c0 -19 7 -15 51 26 48 44 53 47 91 41 22 -4
53 -13 70 -22z m-524 -6 c21 -21 14 -66 -12 -83 -37 -25 -161 -41 -194 -25
l-27 12 24 17 c40 27 165 90 182 91 8 0 20 -5 27 -12z m200 -18 c29 -1 -55
-67 -98 -78 -35 -9 -40 -8 -40 7 0 41 67 88 108 75 8 -2 21 -4 30 -4z m-510
-35 c12 -12 -15 -40 -68 -72 -65 -39 -70 -40 -70 -8 0 35 19 71 44 84 20 10
83 8 94 -4z m911 -17 c-19 -36 -49 -51 -49 -24 0 19 27 46 46 46 12 0 13 -4 3
-22z m415 -64 c3 -9 6 -40 6 -70 0 -100 -89 -229 -144 -208 -18 7 -30 42 -24
71 2 10 27 30 58 46 56 28 104 66 68 54 -9 -3 -43 -9 -76 -13 -98 -11 -92 20
18 97 60 41 85 48 94 23z m-1362 -74 c-40 -36 -104 -61 -118 -47 -3 3 18 24
46 46 37 29 61 41 83 41 l32 -1 -43 -39z m-55 -106 c20 -5 19 -8 -15 -38 -53
-46 -93 -76 -103 -76 -31 0 24 94 65 110 26 11 27 11 53 4z m1499 -49 c12 -66
-11 -90 -110 -114 -27 -7 -51 -9 -54 -6 -8 7 86 142 111 160 26 18 44 5 53
-40z m54 -131 c0 -21 -119 -133 -142 -134 -20 0 -58 46 -58 71 0 22 34 46 92
64 62 20 108 19 108 -1z m44 -106 c34 -59 59 -143 52 -172 -8 -32 -49 -41
-121 -26 -80 17 -85 34 -27 93 38 39 42 46 22 39 -86 -31 -104 -18 -47 34 27
26 87 73 94 74 1 0 13 -19 27 -42z m-1704 -2 c0 -15 -28 -55 -79 -110 -23 -25
-32 -40 -23 -43 30 -11 -2 -77 -35 -71 -28 5 -30 95 -3 149 33 63 63 89 105
89 23 0 35 -5 35 -14z"/>
<path d="M10287 3333 c-4 -120 -11 -319 -17 -443 -11 -231 -2 -647 21 -1015 7
-93 14 -348 18 -565 l6 -395 38 -19 c78 -38 319 -34 359 6 20 20 21 27 15 447
-3 234 -11 498 -16 586 -6 88 -18 356 -26 595 -14 442 -22 519 -59 574 -14 23
-15 41 -6 158 14 191 13 253 -6 272 -13 13 -43 16 -168 16 l-153 0 -6 -217z
m200 92 c18 -12 23 -24 23 -58 -1 -52 -13 -107 -36 -168 l-18 -47 27 -41 c62
-93 4 -231 -98 -231 -42 0 -26 68 25 98 21 13 26 22 19 29 -6 6 -16 40 -21 74
-12 74 -22 335 -13 357 6 17 56 10 92 -13z m69 -567 c11 -34 -6 -131 -32 -186
-17 -33 -42 -65 -71 -87 -63 -48 -73 -46 -73 17 0 64 19 88 69 88 34 1 35 2
17 15 -11 8 -32 15 -48 15 -49 0 -37 39 36 108 66 64 89 70 102 30z m5 -340
c-15 -49 -47 -70 -103 -66 -34 2 -44 7 -46 23 -3 23 67 87 120 110 31 13 33
12 36 -8 2 -12 -1 -38 -7 -59z m-16 -158 c-14 -26 -107 -100 -127 -100 -5 0
-8 29 -8 65 l0 65 75 0 76 0 -16 -30z m45 -93 c0 -41 -25 -66 -74 -74 -32 -5
-36 -3 -36 17 0 28 61 90 89 90 17 0 21 -6 21 -33z m-68 -207 c-42 -40 -71
-60 -87 -60 -24 0 -25 3 -25 60 l0 60 88 0 87 -1 -63 -59z m88 -75 l0 -75 -90
0 c-105 0 -112 8 -52 68 33 33 113 82 135 82 4 0 7 -34 7 -75z m-91 -171 c28
-4 51 -9 51 -13 0 -4 -35 -42 -79 -85 l-79 -78 -12 87 c-14 97 -9 110 41 101
14 -3 49 -8 78 -12z m101 -107 c0 -35 -27 -66 -66 -73 -25 -5 -40 -2 -51 8
-13 13 -9 19 34 51 56 43 83 47 83 14z m-59 -144 c-14 -27 -129 -105 -136 -93
-3 6 -10 33 -14 60 l-8 50 84 0 c77 0 83 -1 74 -17z m49 -67 c0 -18 -7 -39
-15 -46 -19 -16 -91 -25 -99 -12 -7 12 80 92 100 92 9 0 14 -12 14 -34z m-76
-157 c-20 -22 -66 -49 -84 -49 -5 0 -10 16 -10 35 l0 35 57 0 56 0 -19 -21z
m86 -32 c0 -39 -47 -72 -125 -87 l-40 -8 45 40 c60 54 120 82 120 55z m-86
-217 c-60 -59 -88 -80 -108 -80 -30 0 -33 19 -16 82 15 52 62 73 170 77 l35 1
-81 -80z m61 -60 c-10 -11 -23 -20 -28 -20 -6 0 0 11 13 25 27 29 42 25 15 -5z"/>
<path d="M13328 3534 c-34 -39 -152 -392 -173 -521 -5 -32 -12 -42 -31 -47
-33 -9 -61 -68 -84 -183 -11 -53 -24 -101 -29 -107 -5 -6 -21 -47 -35 -90 -15
-44 -55 -147 -90 -230 -89 -210 -120 -303 -176 -516 -69 -262 -113 -403 -180
-575 -60 -155 -84 -231 -95 -301 -6 -38 -4 -42 22 -52 92 -37 241 -54 282 -32
24 12 46 69 65 166 8 43 40 140 71 214 31 74 72 187 91 250 19 63 37 116 39
119 3 2 119 -2 259 -9 210 -11 277 -11 384 0 71 7 147 11 170 8 111 -15 192
-150 331 -545 56 -159 73 -187 109 -179 91 20 120 19 196 -9 64 -23 86 -27
138 -22 64 6 98 28 98 64 0 15 -40 111 -159 377 -100 223 -129 312 -152 461
-30 198 -32 201 -103 285 -53 62 -76 125 -105 289 -18 100 -26 122 -66 184
-48 75 -51 87 -35 118 9 16 7 19 -12 19 -19 0 -28 12 -51 73 -29 76 -33 102
-17 112 5 3 -1 21 -14 39 -13 19 -35 78 -50 133 -15 54 -35 109 -44 123 -9 14
-22 39 -28 55 -130 332 -130 332 -361 341 -137 6 -149 5 -165 -12z m184 -109
c34 -14 76 -25 94 -25 67 0 179 -164 172 -251 l-3 -42 -139 -47 -139 -46 -38
-56 c-49 -71 -128 -140 -203 -178 -76 -39 -86 -38 -86 3 0 34 18 58 54 71 15
5 16 9 6 21 -8 10 -11 35 -8 71 5 64 19 81 118 146 81 54 86 68 27 68 l-45 0
13 28 c8 15 19 61 26 102 17 111 40 159 77 160 7 0 40 -11 74 -25z m208 -450
c-54 -54 -92 -85 -106 -85 -22 0 -46 29 -64 76 -9 24 -7 27 45 50 54 25 119
40 180 43 28 1 26 -3 -55 -84z m138 -2 c11 -21 32 -71 47 -111 l28 -73 -34
-36 c-24 -25 -28 -32 -12 -24 65 33 87 1 88 -129 0 -110 -12 -142 -91 -229
-44 -49 -49 -52 -61 -35 -17 24 -17 119 1 136 7 8 32 22 55 32 22 11 41 23 41
28 0 11 -8 10 -86 -7 -36 -9 -69 -14 -71 -11 -3 3 1 32 10 66 8 33 13 60 10
60 -2 0 -17 -7 -32 -15 -23 -11 -32 -12 -45 -2 -18 13 -26 87 -14 122 6 16 1
24 -22 37 -49 28 -40 53 52 145 46 46 90 83 100 83 10 0 25 -16 36 -37z m-463
-185 c-11 -52 -50 -111 -110 -166 -67 -61 -204 -154 -219 -149 -6 2 -10 21
-10 42 2 52 26 70 121 91 43 9 84 25 95 36 11 11 18 21 16 23 -2 2 -34 -3 -72
-11 -37 -9 -70 -13 -74 -9 -13 13 151 141 210 165 43 17 50 13 43 -22z m281
-368 c8 -25 33 -90 55 -145 55 -141 79 -214 79 -242 0 -12 -1 -23 -2 -23 -2 0
-84 -7 -183 -15 -296 -24 -402 -18 -425 25 -9 16 -4 31 26 77 106 166 213 430
254 628 l12 58 84 -159 c46 -87 91 -179 100 -204z m-392 123 c-3 -16 -17 -51
-29 -80 -28 -63 -63 -84 -153 -91 -85 -7 -81 4 31 88 48 36 97 75 109 88 32
31 50 29 42 -5z m746 -83 c25 -13 50 -98 50 -167 0 -87 -43 -151 -113 -168
-19 -5 -29 -1 -41 16 -29 41 -20 56 52 94 57 31 62 35 32 30 -19 -3 -51 -8
-70 -11 -40 -7 -72 17 -54 40 5 7 34 49 64 94 30 45 56 82 58 82 2 0 12 -5 22
-10z m-873 -165 c-82 -57 -219 -136 -224 -131 -8 8 16 90 38 125 l19 31 102 0
103 0 -38 -25z m9 -79 c-7 -30 -71 -76 -103 -76 -27 0 -29 8 -7 38 14 21 105
74 113 66 2 -1 1 -14 -3 -28z m998 -144 c41 -136 47 -262 16 -327 -29 -60 -71
-86 -129 -83 -32 2 -48 9 -58 25 -14 20 -11 22 59 56 40 20 84 48 98 62 l25
27 -25 -7 c-14 -3 -64 -22 -111 -41 -88 -34 -149 -44 -149 -22 0 15 64 99 145
190 36 40 65 78 65 85 0 8 -22 13 -61 15 l-60 3 23 35 c28 41 82 80 112 80 18
0 25 -14 50 -98z m-1094 18 c0 -21 -83 -100 -146 -140 -35 -22 -66 -40 -69
-40 -3 0 -5 21 -5 48 0 80 31 114 125 135 39 9 95 7 95 -3z m940 -110 c-14
-10 -27 -16 -30 -13 -6 6 30 33 44 33 6 0 0 -9 -14 -20z m-1010 -75 l0 -45
-47 0 -47 0 44 45 c24 25 45 45 47 45 2 0 3 -20 3 -45z m745 -38 c17 -7 39
-17 50 -24 19 -11 19 -13 -10 -44 -52 -55 -105 -72 -237 -77 -65 -2 -118 -1
-118 2 0 29 55 74 108 91 17 5 22 2 22 -11 0 -14 8 -10 38 18 63 60 88 68 147
45z m-489 -32 c33 -51 -14 -87 -133 -100 -63 -8 -115 7 -95 27 17 17 176 97
194 98 10 0 25 -11 34 -25z m192 -5 c30 -1 -53 -68 -93 -76 -44 -8 -50 -3 -34
28 18 34 68 61 97 52 8 -2 21 -4 30 -4z m-514 -33 c17 -12 15 -15 -18 -45 -30
-26 -95 -62 -112 -62 -2 0 -4 12 -4 28 0 67 83 116 134 79z m926 -7 c0 -13
-37 -50 -50 -50 -10 0 -3 27 13 48 11 14 37 16 37 2z m408 -137 c3 -77 -6
-106 -55 -171 -33 -44 -70 -58 -94 -36 -22 20 -25 53 -6 76 6 9 38 29 70 43
31 15 57 31 57 34 0 4 -29 3 -65 -2 -49 -7 -69 -6 -80 3 -8 7 -12 17 -9 22 15
24 141 108 159 106 18 -3 20 -12 23 -75z m-1354 -4 c-35 -37 -75 -59 -105 -59
l-22 0 24 26 c33 37 79 64 108 64 l25 0 -30 -31z m-56 -118 c13 -8 -33 -52
-100 -95 -36 -24 -45 -5 -18 39 32 51 86 77 118 56z m1486 -24 c15 -55 7 -87
-26 -107 -32 -19 -127 -44 -135 -36 -7 7 97 155 115 165 22 12 39 4 46 -22z
m56 -156 c0 -21 -120 -131 -143 -131 -20 0 -47 38 -47 66 0 27 21 45 79 66 65
23 111 23 111 -1z m100 -253 c0 -28 -5 -40 -21 -49 -29 -15 -123 -2 -151 21
l-23 19 31 33 c44 48 63 74 45 64 -7 -5 -29 -12 -47 -16 -66 -15 -35 42 53 96
l38 23 38 -76 c23 -48 37 -92 37 -115z m-1766 130 c-9 -18 -37 -55 -62 -83
-34 -38 -41 -51 -28 -53 20 -4 20 -6 1 -42 -17 -32 -49 -40 -59 -14 -18 48 5
129 51 184 30 34 40 40 74 40 l40 0 -17 -32z"/>
<path d="M9240 3530 c-41 -5 -88 -14 -104 -20 l-29 -11 7 -122 c3 -67 15 -214
25 -327 24 -256 48 -1305 36 -1528 -9 -154 -9 -159 0 -447 5 -143 10 -184 22
-197 13 -15 33 -18 105 -18 49 0 98 5 110 11 16 9 25 6 47 -14 24 -24 70 -47
91 -47 5 0 14 17 19 38 15 52 14 1214 0 1457 -7 117 -8 207 -3 233 12 57 1
246 -25 440 -12 84 -25 212 -31 284 l-10 132 25 26 c30 32 32 70 4 96 -17 15
-38 19 -117 20 -53 1 -131 -1 -172 -6z m119 -144 c73 -38 67 -178 -10 -205
-33 -11 -89 -15 -89 -6 0 3 9 23 20 45 29 57 25 91 -8 58 -8 -8 -14 -5 -22 16
-16 44 -13 94 8 99 35 9 74 7 101 -7z m21 -253 c0 -26 -35 -79 -65 -99 -30
-20 -55 -6 -55 31 0 24 19 44 65 68 39 21 55 21 55 0z m26 -149 c-6 -16 -106
-20 -106 -4 0 5 24 28 53 51 l52 42 3 -38 c2 -20 1 -43 -2 -51z m5 -64 c25
-14 24 -44 -6 -107 -30 -65 -66 -103 -98 -103 -21 0 -26 7 -36 44 -15 59 -14
128 2 148 19 25 104 36 138 18z m43 -186 c12 -31 6 -91 -10 -105 -9 -7 -42
-15 -75 -17 -77 -6 -78 9 -3 83 58 57 78 66 88 39z m-6 -183 c19 -12 0 -77
-37 -129 -29 -39 -95 -91 -135 -105 -16 -6 -18 -3 -13 25 4 18 9 62 13 98 4
36 11 73 16 82 15 29 124 50 156 29z m6 -187 c3 -9 6 -42 6 -75 0 -58 -1 -59
-27 -59 -37 1 -112 16 -120 24 -8 8 107 126 123 126 7 0 15 -7 18 -16z m-14
-197 c0 -32 -54 -102 -91 -117 -25 -11 -33 -11 -45 2 -17 17 -20 56 -10 106
l8 32 69 0 c65 0 69 -1 69 -23z m18 -154 l-3 -66 -59 -14 c-58 -13 -86 -7 -86
18 0 25 116 129 143 129 4 0 7 -30 5 -67z m2 -130 c0 -16 -125 -133 -142 -133
-38 0 -8 113 34 130 28 11 108 13 108 3z m10 -98 c11 -13 9 -43 -7 -98 -6 -23
-61 -47 -107 -47 -34 0 -34 1 -26 30 27 94 105 158 140 115z m0 -199 c0 -8
-23 -45 -51 -81 l-51 -67 42 24 c41 23 41 23 56 3 13 -16 14 -36 9 -100 -8
-102 -8 -129 0 -191 4 -29 2 -74 -5 -107 l-11 -57 -69 0 c-84 0 -97 5 -115 41
-20 38 -20 245 0 404 8 65 15 125 15 132 0 10 23 13 90 13 72 0 90 -3 90 -14z"/>
<path d="M9354 1315 c-17 -13 -15 -13 21 -4 49 14 56 19 24 19 -14 0 -34 -7
-45 -15z"/>
<path d="M15012 3529 c-132 -14 -126 -6 -119 -173 4 -77 15 -231 26 -341 26
-261 43 -1164 32 -1640 -2 -77 0 -219 4 -315 5 -145 9 -177 23 -188 21 -16
185 -16 211 0 17 10 24 8 46 -14 14 -14 40 -32 57 -39 62 -25 60 -59 54 811
-3 432 -6 808 -6 835 1 28 1 113 2 190 0 98 -7 198 -26 337 -14 108 -29 242
-32 297 -7 98 -6 100 20 131 28 34 32 51 16 80 -21 39 -119 48 -308 29z m115
-139 c39 -14 58 -51 57 -112 -1 -64 -32 -98 -98 -105 -25 -3 -46 -3 -46 0 0 2
9 24 20 48 26 59 26 71 -4 63 -22 -5 -26 -1 -35 33 -15 54 -14 62 12 73 30 12
58 12 94 0z m33 -255 c0 -9 -11 -34 -25 -56 -37 -57 -86 -72 -100 -28 -9 28
10 54 57 77 52 25 68 27 68 7z m20 -115 l0 -50 -50 0 c-69 0 -67 8 20 79 14
11 26 20 28 21 1 0 2 -22 2 -50z m5 -100 c21 -8 25 -14 20 -37 -14 -63 -37
-111 -68 -140 -50 -47 -66 -49 -83 -8 -18 43 -19 159 -1 173 26 21 92 27 132
12z m45 -189 c14 -28 13 -74 -4 -96 -10 -14 -30 -20 -81 -23 l-67 -4 16 30
c15 28 103 112 118 112 4 0 12 -9 18 -19z m-4 -186 c20 -51 -63 -173 -148
-216 -37 -19 -38 -19 -38 -1 0 45 23 188 32 200 25 29 144 43 154 17z m8 -187
c3 -13 6 -47 6 -77 l0 -53 -67 7 c-102 11 -102 10 -32 81 35 35 69 64 75 64 6
0 14 -10 18 -22z m-14 -183 c0 -44 -81 -135 -120 -135 -36 0 -50 57 -29 119
11 31 12 31 80 31 56 0 69 -3 69 -15z m8 -162 l-3 -68 -59 -13 c-50 -11 -62
-11 -73 1 -12 11 -9 19 16 51 32 40 98 96 113 96 5 0 8 -30 6 -67z m2 -137 c0
-18 -117 -126 -137 -126 -27 0 -11 89 22 117 31 27 115 33 115 9z m8 -88 c15
-15 15 -69 0 -102 -7 -17 -24 -30 -47 -36 -49 -13 -91 -13 -91 2 0 25 43 99
72 123 33 28 48 31 66 13z m12 -200 c0 -7 -17 -35 -38 -62 -70 -93 -69 -88
-24 -63 32 17 44 19 53 10 18 -18 22 -111 6 -169 -11 -43 -11 -57 0 -90 13
-37 13 -59 -3 -166 l-6 -38 -74 0 c-106 0 -119 14 -128 141 -4 52 -2 137 3
189 6 52 13 127 17 165 3 39 7 76 10 83 2 8 30 12 94 12 65 0 90 -3 90 -12z"/>
<path d="M15124 1315 c-23 -18 -10 -18 36 0 32 12 33 14 9 14 -14 1 -34 -6
-45 -14z"/>
</g>
</svg>
